TITLE:   070816_EG101_HEISTS_ROUGH_CUT_SOURCES.sub.01.sub.02 
FCM: NON-DROP FRAME
001  EVL1_HEI V     C        00:13:50:05 00:13:51:00 01:00:00:00 01:00:00:25 
M2   EVL1_HEI       037.5                00:13:50:05 
* SHUTTERSTOCK_T_QEVL1HEIS845_HEISTS_DINNER SET GANG_REAL SURVEILLANCE CAMERAS CAP 
* TURED AND RECORDED THE TWO ROBBERS ENTER THE HOUSE_14225156 
* FROM CLIP NAME:  T_QEVL1HEIS845.NEW.01.COPY.01
002  EVL1_ESC V     C        06:00:02:01 06:00:07:12 01:00:00:25 01:00:01:16 
M2   EVL1_ESC       108.5                06:00:02:01 
* GETTY__QEVL1ESCP001_GREAT ESCAPES_MECKLENBURG SIX_AERIAL AROUND PRISON ON ALCATR 
* AZ ISLAND _622-21 
* FROM CLIP NAME:  QEVL1ESCP001.NEW.01
FCM: DROP FRAME
003  QEVL1GRN V     C        01:31:42:26 01:31:44:04 01:00:01:16 01:00:02:24 
M2   QEVL1GRN       037.5                01:31:42:26 
* GETTY__QEVL1ESCP001_GREAT ESCAPES_MECKLENBURG SIX_AERIAL AROUND PRISON ON ALCATR 
* AZ ISLAND _622-21 
* FROM CLIP NAME:  QEVL1GRND130.NEW.01 
* TO CLIP NAME:  QEVL1ESCP001.NEW.01
004  QEVL1GRN V     C        01:31:44:03 01:31:44:12 01:00:02:24 01:00:03:01 
M2   QEVL1GRN       037.5                01:31:44:03 
* GETTY IMAGES__QEVL1GRND130_UNDERGROUND_EL CHAPO TUNNELS_INTERIOR OF ALCATRAZ PRI 
* SON. ROW OF CELLS, CLOSE-UP OF CELL DOOR BARS, INSIDE OF JAIL CELL_180563302 
* FROM CLIP NAME:  QEVL1GRND130.NEW.01
005  QEVL1GRN V     C        01:31:44:11 01:31:44:11 01:00:03:01 01:00:03:01 
FCM: NON-DROP FRAME 
005  EVL1_HEI V      008 00:01:01:10 00:01:01:20 01:00:03:01 01:00:03:11 
M2   QEVL1GRN       037.5                01:31:44:11 
M2   EVL1_HEI       056.7                00:01:01:10 
* GETTY IMAGES__QEVL1GRND130_UNDERGROUND_EL CHAPO TUNNELS_INTERIOR OF ALCATRAZ PRI 
* SON. ROW OF CELLS, CLOSE-UP OF CELL DOOR BARS, INSIDE OF JAIL CELL_180563302 
* FROM CLIP NAME:  QEVL1GRND130.NEW.01 
* TO CLIP NAME:  QEVL1HEIS395.NEW.01
006  EVL1_HEI V     C        00:01:01:20 00:01:05:00 01:00:03:11 01:00:04:16 
M2   EVL1_HEI       056.7                00:01:01:20 
* GETTY IMAGES__QEVL1HEIS395_HEISTS_LUFTHANSA HEIST_CU REAR TIRES OF LARGE TRUCK S 
* PINNING AND MOVING AWAY_99032188 
* FROM CLIP NAME:  QEVL1HEIS395.NEW.01
007  EVL10615 V     C        12:14:01:18 12:14:03:13 01:00:04:03 01:00:05:26 
* FROM CLIP NAME:  EVL1061516A02_275_0223.NEW.01.SUB.01
008  QEVL1ARC V     C        00:01:37:06 00:01:39:10 01:00:05:26 01:00:08:00 
M2   QEVL1ARC       037.5                00:01:37:06 
* GETTY IMAGES__QEVL1ARCH225_ARCHITECTS_NARCO SUBS_MAN COUNTING MONEY FOLLOWING DR 
* UG DEAL, POLICE OFFICER SEIZED DRUGS,HOLDING SYRINGE HEROIN_98115517 
* FROM CLIP NAME:  QEVL1ARCH225.NEW.01
009  EVL1_GRN V     C        00:00:09:07 00:00:11:14 01:00:05:26 01:00:08:03 
M2   EVL1_GRN       037.5                00:00:09:07 
* POND5_T_QEVL1GRND336_UNDERGROUND_EL CHAPO TUNNELS_MAN USES LOADER MACHINE  FOR P 
* ACKAGES OF DRUGS_32153141 
* FROM CLIP NAME:  T_QEVL1GRND336.NEW.01
010     BL    V     C        00:00:00:00 00:00:00:00 01:00:07:15 01:00:07:15 
010  EVL1_HIG V      010 00:02:51:25 00:02:52:07 01:00:07:15 01:00:07:28 
* TO CLIP NAME:  T_QEVL1TECH211.NEW.01
011  EVL1_HIG V     C        00:02:52:08 00:02:53:09 01:00:07:28 01:00:08:29 
* POND5_T_QEVL1TECH211_HIGH TECH CRIMES_SILK ROAD_COCAINE FROM SILK ROAD ILLEGAL D 
* RUGS_116642 
* FROM CLIP NAME:  T_QEVL1TECH211.NEW.01
FCM: DROP FRAME
012  EVL1_GRN V     C        01:13:50:07 01:13:51:00 01:00:08:05 01:00:08:28 
M2   EVL1_GRN       037.5                01:13:50:07 
* AETN__QEVL1GRND030_UNDERGROUND_EL CHAPO TUNNELS_ECU COCAINE BEING CUT UP, SNORTE 
* D / MONEY BEING COUNTED_76238_COCAINEHISTORYBETWEENTHELINES_09 
* FROM CLIP NAME:  QEVL1GRND030.NEW.01
FCM: NON-DROP FRAME
013  EVL1_HEI V     C        00:00:28:08 00:00:29:04 01:00:08:28 01:00:09:18 
* GETTY IMAGES__QEVL1HEIS154_HEISTS_LUFTHANSA HEIST_CUTTING COCAINE, SNORTING DRUG 
* S OFF BLACK TABLE_104564643 
* FROM CLIP NAME:  QEVL1HEIS154.NEW.01
014  EVL10516 V     C        15:19:28:10 15:19:31:11 01:00:09:08 01:00:12:09 
* BACKPLATE FOR JON DOUGLAS RAINEY 
* FROM CLIP NAME:  EVL1051616A04_IP_0252.NEW.01.SUB.01
015  EVL10610 V     C        13:20:03:18 13:20:04:21 01:00:09:09 01:00:10:13 
* FROM CLIP NAME:  EVL1061016C03_A0025.NEW.01.SUB.01
016  EVL10610 V     C        13:20:04:22 13:20:05:14 01:00:10:13 01:00:11:03 
* FROM CLIP NAME:  EVL1061016D03_B0023.NEW.01.SUB.01
017  EVL10610 V     C        13:20:05:14 13:20:06:19 01:00:11:03 01:00:12:09 
* FROM CLIP NAME:  EVL1061016D03_B0023.NEW.01.SUB.01
018  EVL1_HEI V     C        00:05:40:20 00:05:55:20 01:00:12:09 01:00:15:24 
M2   EVL1_HEI       133.6                00:05:40:20 
* FRAMEPOOL_T_QEVL1HEIS301_HEISTS_SISI JEWEL HEIST_AERIAL PULLBACK TO FRONT VIEW O 
* F SCHöNBRUNN PALACE AT NIGHT_499-775-925 
* FROM CLIP NAME:  T_QEVL1HEIS301.NEW.01
019     BL    V     C        00:00:00:00 00:00:00:00 01:00:12:28 01:00:12:28 
019  EVL1_GRN V      010 00:00:06:02 00:00:07:04 01:00:12:28 01:00:13:10 
M2   EVL1_GRN       081.1                00:00:06:02 
* TO CLIP NAME:  T_QEVL1GRND407.NEW.01
020  EVL1_GRN V     C        00:00:07:04 00:00:08:17 01:00:13:10 01:00:13:28 
M2   EVL1_GRN       081.1                00:00:07:04 
* GETTY IMAGES_T_QEVL1GRND407_UNDERGROUND_HATTON GARDEN_TRACK OVER WALL OF CCTV MO 
* NITORS_1B08521_T002 
* FROM CLIP NAME:  T_QEVL1GRND407.NEW.01
021  SEVL1GRN V     C        01:00:07:11 01:00:09:15 01:00:13:19 01:00:15:24 
* AP IMAGES_T_SEVL1GRND026_UNDERGROUND_EL CHAPO TUNNELS_MEXICAN POLICEMAN SHINES F 
* LASHLIGHT THRU CLANDESTINE TIJUANA/US TUNNEL (JAN 25, 2006)_6012502324_HTTP://WW 
* W.APIMAGES.COM/METADATA/INDEX/ASSOCIATED-PRESS-INTERNATIONAL-NEWS-MEXICO-V-MEXIC 
* O-DRUG-TUNNEL/7 
* FROM CLIP NAME:  SEVL1GRND026.TIFF.NEW.01
022  EVL1_GRO V     C        00:00:14:01 00:00:14:27 01:00:13:28 01:00:14:23 
M2   EVL1_GRO       037.5                00:00:14:01 
* GETTY IMAGES_T_QEVL1GRND407_UNDERGROUND_HATTON GARDEN_TRACK OVER WALL OF CCTV MO 
* NITORS_1B08521_T002 
* FROM CLIP NAME:  T_QEVL1GRND245.NEW.01 
* TO CLIP NAME:  T_QEVL1GRND407.NEW.01
023  EVL1_GRO V     C        00:00:14:26 00:00:15:28 01:00:14:23 01:00:15:24 
M2   EVL1_GRO       037.5                00:00:14:26 
* POND 5_T_QEVL1GRND315_UNDERGROUND_EL CHAPO TUNNELS_MOVING THRU LONG DANK TUNNEL 
* (ACTUALLY GAZA) _31741395 
* FROM CLIP NAME:  T_QEVL1GRND245.NEW.01
FCM: DROP FRAME
024  EVL1_HEI V     C        00:00:12:06 00:00:13:24 01:00:15:24 01:00:17:11 
M2   EVL1_HEI       037.5                00:00:12:06 
* AETN__QEVL1HEIS064_HEISTS_LUFTHANSA HEIST_MEN WITH BAGS (OF CASH) WALK THROUGH H 
* ALL / ZOOM INTO $20 BILLS_106549_MOBSTERS_JIMMYTHEGENTBURKE_11 
* FROM CLIP NAME:  QEVL1HEIS064.NEW.01
FCM: NON-DROP FRAME
025  EVL1_HEI V     C        00:00:26:04 00:00:26:12 01:00:17:03 01:00:17:11 
* AETN__QEVL1HEIS191_HEISTS_DINNER SET GANG_MAN ON ROOFTOP RUNNING AWAY FROM CRIME 
* , DUSTING FOR FINGERPRINTS_45885_WATCHINGTHEDETECTIVES_EP5_010604 
* FROM CLIP NAME:  QEVL1HEIS191.NEW.01
026  T_QEVL1H V     C        00:00:00:22 00:00:04:04 01:00:17:11 01:00:17:29 
M2   T_QEVL1H       153.8                00:00:00:22 
* "POND5_T_QEVL1HEIS1329_HEISTS_DINNER SET GANG_DINNER SET JEWELRY, 
* LARGE DIAMONDS FALLING WITH SLOW MOTION _11165972" 
* FROM CLIP NAME:  T_QEVL1HEIS1329.NEW.01
027  EVL1_HEI V     C        00:00:26:11 00:00:27:11 01:00:17:11 01:00:18:05 
* AETN__QEVL1HEIS191_HEISTS_DINNER SET GANG_MAN ON ROOFTOP RUNNING AWAY FROM CRIME 
* , DUSTING FOR FINGERPRINTS_45885_WATCHINGTHEDETECTIVES_EP5_010604 
* FROM CLIP NAME:  QEVL1HEIS191.NEW.01
028  T_QEVL1H V     C        00:00:00:08 00:00:02:08 01:00:17:26 01:00:19:25 
M2   T_QEVL1H       031.3                00:00:00:08 
* POND5_T_QEVL1HEIS1325_HEISTS_DINNER SET GANG_DINNER SET JEWELRY, DIAMOND NECKLAC 
* E WITH LARGE STONES FALLING ON THE TABLE_63768233 
* FROM CLIP NAME:  T_QEVL1HEIS1325.NEW.01
029  EVL10602 V     C        18:28:36:10 18:28:37:00 01:00:19:08 01:00:19:25 
* FROM CLIP NAME:  EVL1060216A05_211_0057.NEW.02.SUB.01
031     BL    V     C        00:00:00:00 00:00:00:00 01:00:19:20 01:00:19:20 
031  T_QEVL1H V      010 01:00:00:00 01:00:00:01 01:00:19:20 01:00:20:03 
M2   T_QEVL1H       155.4                01:00:00:00 
* TO CLIP NAME:  T_QEVL1HEIS1307.MOV
030     BL    V     C        00:00:00:00 00:00:00:00 01:00:19:20 01:00:19:20 
030  T_QEVL1H V      010 01:00:02:16 01:00:02:29 01:00:19:20 01:00:20:03 
* TO CLIP NAME:  T_QEVL1HEIS1309.MOV
032  T_QEVL1H V     C        01:00:02:29 01:00:04:19 01:00:20:03 01:00:21:23 
* POND5_T_QEVL1HEIS1309_HEISTS_DINNER SET GANG_ROLLS OF BLUEPRINTS ON TABLE, LAYOU 
* T OF HOUSES_669504 
* FROM CLIP NAME:  T_QEVL1HEIS1309.MOV
033  T_QEVL1H V     C        01:00:00:00 01:00:08:09 01:00:20:03 01:00:21:23 
M2   T_QEVL1H       155.4                01:00:00:00 
* POND5_T_QEVL1HEIS1307_HEISTS_DINNER SET GANG_ARCHITECTURE BLUEPRINT, HOUSE PLAN, 
*  GRAPHIC _7730263 
* FROM CLIP NAME:  T_QEVL1HEIS1307.MOV
034  EVL10602 V     C        18:28:39:09 18:28:41:15 01:00:21:23 01:00:24:00 
* FROM CLIP NAME:  EVL1060216B05_211_0033.NEW.01.SUB.01
035  EVL10512 V     C        10:05:49:00 10:05:50:20 01:00:24:00 01:00:25:25 
* FROM CLIP NAME:  EVL1051216A01_IP_0213.NEW.01
036  T_QEVL1S V     C        00:00:02:20 00:00:04:17 01:00:24:00 01:00:25:26 
M2   T_QEVL1S       037.5                00:00:02:20 
* SHUTTERSTOCK_T_QEVL1SCAM400_HEISTS_BERNIE MADOFF_COUNTING MACHINE COUNTS US DOLL 
* ARS_5977802 
* FROM CLIP NAME:  T_QEVL1SCAM400.NEW.01
037  T_QEVL1S V     C        00:00:02:22 00:00:04:19 01:00:24:00 01:00:25:26 
M2   T_QEVL1S       037.5                00:00:02:22 
* SHUTTERSTOCK_T_QEVL1SCAM397_HEISTS_BERNIE MADOFF_MONEY COUNTING MACHINE HUNDREDS 
* _3802880 
* FROM CLIP NAME:  T_QEVL1SCAM397.NEW.01
038  EVL10610 V     C        16:52:14:11 16:52:15:10 01:00:25:26 01:00:26:25 
* FROM CLIP NAME:  EVL1061016D05_B0027.NEW.01.SUB.01
039  EVL10517 V     C        12:53:18:11 12:53:19:10 01:00:25:26 01:00:26:25 
* BACKPLATE FOR DAVID KUSHNER 
* FROM CLIP NAME:  EVL1051716B03_LL0248.NEW.01.SUB.01
FCM: DROP FRAME
040  QEVL1SCA V     C        00:00:10:01 00:00:10:25 01:00:26:25 01:00:27:19 
M2   QEVL1SCA       037.5                00:00:10:01 
* GETTY IMAGES__QEVL1SCAM412_HEISTS_BERNIE MADOFF_U.S. CURRENCY PRINTING 2 MONEY_4 
* 70281550 
* FROM CLIP NAME:  QEVL1SCAM412.NEW.01
042  QEVL1SCA V     C        00:00:36:12 00:00:36:22 01:00:27:19 01:00:27:28 
M2   QEVL1SCA       037.5                00:00:36:12 
* GETTY IMAGES__QEVL1SCAM412_HEISTS_BERNIE MADOFF_U.S. CURRENCY PRINTING 2 MONEY_4 
* 70281550 
* FROM CLIP NAME:  QEVL1SCAM412.NEW.01
041  QEVL1SCA V     C        00:00:10:25 00:00:11:04 01:00:27:19 01:00:27:28 
M2   QEVL1SCA       037.5                00:00:10:25 
* GETTY IMAGES__QEVL1SCAM412_HEISTS_BERNIE MADOFF_U.S. CURRENCY PRINTING 2 MONEY_4 
* 70281550 
* FROM CLIP NAME:  QEVL1SCAM412.NEW.01
043  QEVL1SCA V     C        00:00:46:13 00:00:46:24 01:00:27:28 01:00:28:08 
M2   QEVL1SCA       037.5                00:00:46:13 
* GETTY IMAGES__QEVL1SCAM412_HEISTS_BERNIE MADOFF_U.S. CURRENCY PRINTING 2 MONEY_4 
* 70281550 
* FROM CLIP NAME:  QEVL1SCAM412.NEW.01
044  QEVL1SCA V     C        00:01:04:04 00:01:04:16 01:00:28:08 01:00:28:19 
M2   QEVL1SCA       037.5                00:01:04:04 
* GETTY IMAGES__QEVL1SCAM412_HEISTS_BERNIE MADOFF_U.S. CURRENCY PRINTING 2 MONEY_4 
* 70281550 
* FROM CLIP NAME:  QEVL1SCAM412.NEW.01
FCM: NON-DROP FRAME
045  EVL10520 V     C        10:34:50:11 10:34:51:11 01:00:28:19 01:00:29:19 
* FROM CLIP NAME:  EVL1052016B02_275_0056.NEW.01.SUB.01
046  QEVL1HEI V     C        00:08:47:05 00:08:51:02 01:00:29:19 01:00:30:09 
M2   QEVL1HEI       217.5                00:08:47:05 
* GETTY IMAGES__QEVL1HEIS315_HEISTS_SISI JEWEL HEIST_SKYDIVER LEAPING OUT OF PLANE 
* , FREE FALLING AT NIGHT_552130903 
* FROM CLIP NAME:  QEVL1HEIS315.NEW.01
047  QEVL1HEI V     C        00:08:47:24 00:08:48:13 01:00:30:09 01:00:30:14 
M2   QEVL1HEI       197.5                00:08:47:24 
* GETTY IMAGES__QEVL1HEIS314_HEISTS_SISI JEWEL HEIST_SKYDIVER PARACHUTING PAST SUN 
* , AT SUNSET_552130915 
* FROM CLIP NAME:  QEVL1HEIS314.NEW.01
048  EVL1_HEI V     C        00:05:43:02 00:05:43:04 01:00:30:09 01:00:32:16 
M2   EVL1_HEI      -092.8                00:05:43:02 
* FRAMEPOOL_T_QEVL1HEIS302_HEISTS_SISI JEWEL HEIST_PAN AWAY UP TO AERIAL VIEW OF S 
* CHöNBRUNN PALACE AT NIGHT_982-143-883 
* FROM CLIP NAME:  T_QEVL1HEIS302.NEW.01
049  EVL10516 V     C        14:48:27:04 14:48:29:07 01:00:31:24 01:00:33:28 
* BACKPLATE FOR SHANNON SMIS 
* FROM CLIP NAME:  EVL1051616B04_LL0236.NEW.01.SUB.01
050  EVL10602 V     C        15:02:22:18 15:02:24:21 01:00:31:24 01:00:33:28 
* FROM CLIP NAME:  EVL1060216D02_EVL1060216B010007.NEW.01.SUB.01
051  T_SEVL1G V     C        01:00:07:07 01:00:07:08 01:00:33:28 01:00:33:29 
* ALAMY__SEVL1GRND522_UNDERGROUND_EL CHAPO TUNNELA_CHAPO GUZMAN IN BALLCAP_FRDRJ7_ 
* HTTP://WWW.ALAMY.COM/STOCK-PHOTO-AN-UNDATED-PICTURE-MADE-AVAILABLE-ON-21-JANUARY 
* -2012-SHOWS-MEXICAN-100492847.HTML?PV=1&STAMP=2&IMAGEID=5BA2F30E-AD01-442F-8043- 
* 8019678A9CF1&P= 
* FROM CLIP NAME:  T_SEVL1GRND522.TIFF.NEW.01
FCM: DROP FRAME
052  EVL1_GRN V     C        01:32:29:22 01:32:31:25 01:00:33:28 01:00:36:00 
M2   EVL1_GRN       037.5                01:32:29:22 
* AETN__QEVL1GRND108_UNDERGROUND_EL CHAPO TUNNELS_GANG MEMBERS HOLDING GUNS, DRUGL 
* ORD, DRUG TRAFFICKING, GUN ON PILE OF MONEY_120511_GANGSTERS_EP23_013229 
* FROM CLIP NAME:  QEVL1GRND108.NEW.01
FCM: NON-DROP FRAME
053  T_SEVL1G V     C        01:00:07:09 01:00:07:10 01:00:34:00 01:00:34:01 
* ALAMY__SEVL1GRND522_UNDERGROUND_EL CHAPO TUNNELA_CHAPO GUZMAN IN BALLCAP_FRDRJ7_ 
* HTTP://WWW.ALAMY.COM/STOCK-PHOTO-AN-UNDATED-PICTURE-MADE-AVAILABLE-ON-21-JANUARY 
* -2012-SHOWS-MEXICAN-100492847.HTML?PV=1&STAMP=2&IMAGEID=5BA2F30E-AD01-442F-8043- 
* 8019678A9CF1&P= 
* FROM CLIP NAME:  T_SEVL1GRND522.TIFF.NEW.01
054  T_SEVL1G V     C        01:00:07:11 01:00:07:12 01:00:34:03 01:00:34:04 
* ALAMY__SEVL1GRND522_UNDERGROUND_EL CHAPO TUNNELA_CHAPO GUZMAN IN BALLCAP_FRDRJ7_ 
* HTTP://WWW.ALAMY.COM/STOCK-PHOTO-AN-UNDATED-PICTURE-MADE-AVAILABLE-ON-21-JANUARY 
* -2012-SHOWS-MEXICAN-100492847.HTML?PV=1&STAMP=2&IMAGEID=5BA2F30E-AD01-442F-8043- 
* 8019678A9CF1&P= 
* FROM CLIP NAME:  T_SEVL1GRND522.TIFF.NEW.01
055  T_SEVL1G V     C        01:00:07:13 01:00:11:12 01:00:34:05 01:00:38:04 
* ALAMY__SEVL1GRND522_UNDERGROUND_EL CHAPO TUNNELA_CHAPO GUZMAN IN BALLCAP_FRDRJ7_ 
* HTTP://WWW.ALAMY.COM/STOCK-PHOTO-AN-UNDATED-PICTURE-MADE-AVAILABLE-ON-21-JANUARY 
* -2012-SHOWS-MEXICAN-100492847.HTML?PV=1&STAMP=2&IMAGEID=5BA2F30E-AD01-442F-8043- 
* 8019678A9CF1&P= 
* FROM CLIP NAME:  T_SEVL1GRND522.TIFF.NEW.01
056  SEVL1SCA V     C        01:00:08:15 01:00:08:16 01:00:34:20 01:00:34:21 
* AP IMAGES__SEVL1SCAM016_SCAMS_BERNIE MADOFF_METROPOLITAN CORRECTION CENTER BOOKI 
* NG PHOTO RELEASED BY THE US DEPARTMENT OF JUSTICE OF BERNARD MADOFF BERNIE MADOF 
* F_90317153501_HTTP://WWW.APIMAGES.COM/METADATA/INDEX/REX-AP-872713A-METROPOLITAN 
* -CORRECTION-CEN 
* FROM CLIP NAME:  SEVL1SCAM016.TIF.NEW.01
057  SEVL1SCA V     C        01:00:08:17 01:00:08:18 01:00:34:23 01:00:34:24 
* AP IMAGES__SEVL1SCAM016_SCAMS_BERNIE MADOFF_METROPOLITAN CORRECTION CENTER BOOKI 
* NG PHOTO RELEASED BY THE US DEPARTMENT OF JUSTICE OF BERNARD MADOFF BERNIE MADOF 
* F_90317153501_HTTP://WWW.APIMAGES.COM/METADATA/INDEX/REX-AP-872713A-METROPOLITAN 
* -CORRECTION-CEN 
* FROM CLIP NAME:  SEVL1SCAM016.TIF.NEW.01
058  SEVL1SCA V     C        01:00:08:19 01:00:08:20 01:00:34:25 01:00:34:26 
* AP IMAGES__SEVL1SCAM016_SCAMS_BERNIE MADOFF_METROPOLITAN CORRECTION CENTER BOOKI 
* NG PHOTO RELEASED BY THE US DEPARTMENT OF JUSTICE OF BERNARD MADOFF BERNIE MADOF 
* F_90317153501_HTTP://WWW.APIMAGES.COM/METADATA/INDEX/REX-AP-872713A-METROPOLITAN 
* -CORRECTION-CEN 
* FROM CLIP NAME:  SEVL1SCAM016.TIF.NEW.01
059  SEVL1SCA V     C        01:00:08:21 01:00:12:02 01:00:34:28 01:00:38:04 
* AP IMAGES__SEVL1SCAM016_SCAMS_BERNIE MADOFF_METROPOLITAN CORRECTION CENTER BOOKI 
* NG PHOTO RELEASED BY THE US DEPARTMENT OF JUSTICE OF BERNARD MADOFF BERNIE MADOF 
* F_90317153501_HTTP://WWW.APIMAGES.COM/METADATA/INDEX/REX-AP-872713A-METROPOLITAN 
* -CORRECTION-CEN 
* FROM CLIP NAME:  SEVL1SCAM016.TIF.NEW.01
060  T_SEVL1S V     C        01:00:05:21 01:00:05:22 01:00:35:08 01:00:35:09 
* FRANCINE DAVETA_T_SEVL1SCAM267_SCAMS_LOU PEARLMAN_HEAD SHOT OF LOU PEARLMAN OUTS 
* IDE IN FRONT OF HOME  (VENDOR REQUEST MUST USE 10 FROM THIS SET)_DAVETA070124_24 
* 8.JPG_ 
* FROM CLIP NAME:  T_SEVL1SCAM267.TIF.NEW.01
061  T_SEVL1S V     C        01:00:05:23 01:00:06:00 01:00:35:10 01:00:35:11 
* FRANCINE DAVETA_T_SEVL1SCAM267_SCAMS_LOU PEARLMAN_HEAD SHOT OF LOU PEARLMAN OUTS 
* IDE IN FRONT OF HOME  (VENDOR REQUEST MUST USE 10 FROM THIS SET)_DAVETA070124_24 
* 8.JPG_ 
* FROM CLIP NAME:  T_SEVL1SCAM267.TIF.NEW.01
062  T_SEVL1S V     C        01:00:06:01 01:00:06:02 01:00:35:13 01:00:35:14 
* FRANCINE DAVETA_T_SEVL1SCAM267_SCAMS_LOU PEARLMAN_HEAD SHOT OF LOU PEARLMAN OUTS 
* IDE IN FRONT OF HOME  (VENDOR REQUEST MUST USE 10 FROM THIS SET)_DAVETA070124_24 
* 8.JPG_ 
* FROM CLIP NAME:  T_SEVL1SCAM267.TIF.NEW.01
063  T_SEVL1S V     C        01:00:06:03 01:00:08:18 01:00:35:15 01:00:38:04 
* FRANCINE DAVETA_T_SEVL1SCAM267_SCAMS_LOU PEARLMAN_HEAD SHOT OF LOU PEARLMAN OUTS 
* IDE IN FRONT OF HOME  (VENDOR REQUEST MUST USE 10 FROM THIS SET)_DAVETA070124_24 
* 8.JPG_ 
* FROM CLIP NAME:  T_SEVL1SCAM267.TIF.NEW.01
064  EVL10517 V     C        11:01:35:14 11:01:38:11 01:00:37:25 01:00:40:21 
* FROM CLIP NAME:  EVL1051716A02_IP_0260.NEW.01.SUB.01
065  SEVL1SCA V     C        01:00:12:02 01:00:12:09 01:00:38:04 01:00:38:13 
* AP IMAGES__SEVL1SCAM016_SCAMS_BERNIE MADOFF_METROPOLITAN CORRECTION CENTER BOOKI 
* NG PHOTO RELEASED BY THE US DEPARTMENT OF JUSTICE OF BERNARD MADOFF BERNIE MADOF 
* F_90317153501_HTTP://WWW.APIMAGES.COM/METADATA/INDEX/REX-AP-872713A-METROPOLITAN 
* -CORRECTION-CEN 
* FROM CLIP NAME:  SEVL1SCAM016.TIF.NEW.01
067  T_SEVL1S V     C        01:00:08:18 01:00:09:01 01:00:38:04 01:00:38:13 
* FRANCINE DAVETA_T_SEVL1SCAM267_SCAMS_LOU PEARLMAN_HEAD SHOT OF LOU PEARLMAN OUTS 
* IDE IN FRONT OF HOME  (VENDOR REQUEST MUST USE 10 FROM THIS SET)_DAVETA070124_24 
* 8.JPG_ 
* FROM CLIP NAME:  T_SEVL1SCAM267.TIF.NEW.01
066  T_SEVL1G V     C        01:00:11:12 01:00:11:19 01:00:38:04 01:00:38:13 
* ALAMY__SEVL1GRND522_UNDERGROUND_EL CHAPO TUNNELA_CHAPO GUZMAN IN BALLCAP_FRDRJ7_ 
* HTTP://WWW.ALAMY.COM/STOCK-PHOTO-AN-UNDATED-PICTURE-MADE-AVAILABLE-ON-21-JANUARY 
* -2012-SHOWS-MEXICAN-100492847.HTML?PV=1&STAMP=2&IMAGEID=5BA2F30E-AD01-442F-8043- 
* 8019678A9CF1&P= 
* FROM CLIP NAME:  T_SEVL1GRND522.TIFF.NEW.01
FCM: DROP FRAME
068  EVL1_HEI V     C        00:00:14:08 00:00:14:13 01:00:40:21 01:00:40:25 
M2   EVL1_HEI       037.5                00:00:14:08 
* AETN__QEVL1HEIS068_HEISTS_LUFTHANSA HEIST_HANDSHAKE IN A BAR_106549_MOBSTERS_JIM 
* MYTHEGENTBURKE_15 
* FROM CLIP NAME:  QEVL1HEIS068.NEW.01
069  EVL1_HEI V     C        00:00:14:13 00:00:14:17 01:00:40:26 01:00:40:29 
M2   EVL1_HEI       037.5                00:00:14:13 
* AETN__QEVL1HEIS068_HEISTS_LUFTHANSA HEIST_HANDSHAKE IN A BAR_106549_MOBSTERS_JIM 
* MYTHEGENTBURKE_15 
* FROM CLIP NAME:  QEVL1HEIS068.NEW.01
070  EVL1_HEI V     C        00:00:14:17 00:00:14:19 01:00:41:00 01:00:41:01 
M2   EVL1_HEI       037.5                00:00:14:17 
* AETN__QEVL1HEIS068_HEISTS_LUFTHANSA HEIST_HANDSHAKE IN A BAR_106549_MOBSTERS_JIM 
* MYTHEGENTBURKE_15 
* FROM CLIP NAME:  QEVL1HEIS068.NEW.01
071  EVL1_HEI V     C        00:00:14:20 00:00:14:22 01:00:41:03 01:00:41:04 
M2   EVL1_HEI       037.5                00:00:14:20 
* AETN__QEVL1HEIS068_HEISTS_LUFTHANSA HEIST_HANDSHAKE IN A BAR_106549_MOBSTERS_JIM 
* MYTHEGENTBURKE_15 
* FROM CLIP NAME:  QEVL1HEIS068.NEW.01
072  EVL1_HEI V     C        00:00:15:13 00:00:16:10 01:00:41:05 01:00:42:01 
M2   EVL1_HEI       037.5                00:00:15:13 
* AETN__QEVL1HEIS068_HEISTS_LUFTHANSA HEIST_HANDSHAKE IN A BAR_106549_MOBSTERS_JIM 
* MYTHEGENTBURKE_15 
* FROM CLIP NAME:  QEVL1HEIS068.NEW.01
FCM: NON-DROP FRAME
073  EVL1_HEI V     C        00:02:19:17 00:02:20:10 01:00:42:01 01:00:42:19 
* POND5_T_QEVL1HEIS054_HEISTS_ANTHONY CURCIO: CRAIG’S LIST ROBBER_WHITE BRINKS TRU 
* CK IN MOTION, NEXT TO A GUARD SHACK_609692 
* FROM CLIP NAME:  T_QEVL1HEIS054.NEW.01
074  EVL10512 V     C        10:31:31:13 10:31:34:21 01:00:42:01 01:00:45:11 
* FROM CLIP NAME:  EVL1051216A01_IP_0219.NEW.01
075  EVL10519 V     C        14:54:14:03 14:54:14:10 01:00:42:19 01:00:43:01 
M2   EVL10519       019.7                14:54:14:03 
* FROM CLIP NAME:  EVL1051916A02_IP_0284.NEW.01
076  EVL10519 V     C        14:54:14:10 14:54:14:18 01:00:43:01 01:00:43:16 
M2   EVL10519       019.7                14:54:14:10 
* FROM CLIP NAME:  EVL1051916A02_IP_0284.NEW.01
077  EVL10519 V     C        15:28:13:05 15:28:13:15 01:00:43:16 01:00:43:29 
* FROM CLIP NAME:  EVL1051916A02_IP_0298.NEW.01
078  EVL10519 V     C        15:28:13:15 15:28:14:01 01:00:43:29 01:00:44:11 
* FROM CLIP NAME:  EVL1051916A02_IP_0298.NEW.01
079  EVL1_HEI V     C        00:02:40:03 00:02:40:04 01:00:44:11 01:00:44:24 
M2   EVL1_HEI      -030.0                00:02:40:03 
* FROM CLIP NAME:  T_QEVL1HEIS272.NEW.01
080  EVL1_HEI V     C        00:02:39:14 00:02:39:15 01:00:44:24 01:00:45:05 
M2   EVL1_HEI      -030.0                00:02:39:14 
* POND5_T_QEVL1HEIS272_HEISTS_LUFTHANSA HEIST_VAULT OPENS, REVEALING STACKS OF CAS 
* H_32464403 
* FROM CLIP NAME:  T_QEVL1HEIS272.NEW.01
081  EVL1_HEI V     C        00:02:39:01 00:02:39:01 01:00:45:05 01:00:45:05 
081  EVL1_GRN V      006 01:00:01:14 01:00:01:21 01:00:45:05 01:00:45:13 
M2   EVL1_HEI      -030.0                00:02:39:01 
* POND5_T_QEVL1HEIS272_HEISTS_LUFTHANSA HEIST_VAULT OPENS, REVEALING STACKS OF CAS 
* H_32464403 
* FROM CLIP NAME:  T_QEVL1HEIS272.NEW.01 
* TO CLIP NAME:  QEVL1GRND169.NEW.01
082  EVL1_GRN V     C        01:00:01:21 01:00:03:12 01:00:45:13 01:00:46:21 
* GETTY IMAGES__QEVL1GRND169_UNDERGROUND_EL CHAPO TUNNELS_ BUNDLES OF ILLEGAL DRUG 
* S TOSSED INTO TRUNK OF CAR_137817553 
* FROM CLIP NAME:  QEVL1GRND169.NEW.01
083  QEVL1HEI V     C        00:01:35:10 00:01:36:08 01:00:46:21 01:00:47:14 
* GETTY__QEVL1HEIS581_HEISTS_LUFTHANSA HEIST_GUARD WITH RIFLE STANDING IN GUARD TO 
* WER AND PEOPLE OF WEARING ORANGE UNIFORMS IN PRISON YARD_140298663 
* FROM CLIP NAME:  QEVL1HEIS581.NEW.01
084  T_QEVL1H V     C        00:11:54:25 00:11:54:26 01:00:46:21 01:00:47:14 
M2   T_QEVL1H      -176.7                00:11:54:25 
* GETTY_T_QEVL1HEIS577_HEISTS_LUFTHANSA HEIST_CELL DOORS PRISON BARS SHUT, LOW ANG 
* LE_117720686 
* FROM CLIP NAME:  T_QEVL1HEIS577.NEW.01
085  EVL10520 V     C        17:10:09:20 17:10:10:08 01:00:47:14 01:00:47:29 
* FROM CLIP NAME:  EVL1052016A05_IP_0322.NEW.01
FCM: DROP FRAME
086  EVL1_HEI V     C        00:00:38:08 00:00:38:24 01:00:47:14 01:00:47:29 
M2   EVL1_HEI       037.5                00:00:38:08 
* AETN__QEVL1HEIS163_HEISTS_ANTHONY CURCIO: CRAIG’S LIST ROBBER_BUSINESSMAN TALKIN 
* G ON THE PHONE, TYPING ON THE COMPUTER, WINDMILLS, BANK CARDS_49123_MODERNMARVEL 
* S_TOPTEN_01 
* FROM CLIP NAME:  QEVL1HEIS163.NEW.01.COPY.01
087  EVL1_HEI V     C        00:00:39:05 00:00:39:20 01:00:47:14 01:00:47:29 
M2   EVL1_HEI       037.5                00:00:39:05 
* AETN__QEVL1HEIS163_HEISTS_ANTHONY CURCIO: CRAIG’S LIST ROBBER_BUSINESSMAN TALKIN 
* G ON THE PHONE, TYPING ON THE COMPUTER, WINDMILLS, BANK CARDS_49123_MODERNMARVEL 
* S_TOPTEN_01 
* FROM CLIP NAME:  QEVL1HEIS163.NEW.01.COPY.01
FCM: NON-DROP FRAME
088  T_QEVL1G V     C        00:00:00:15 00:00:01:14 01:00:47:29 01:00:48:28 
M2   T_QEVL1G       037.5                00:00:00:15 
* GETTY IMAGES_T_QEVL1GRND423_UNDERGROUND_EL CHAPO TUNNELS_TIME TUNNEL_459917002 
* FROM CLIP NAME:  T_QEVL1GRND423.NEW.01
089  T_QEVL1H V     C        00:13:40:06 00:13:41:04 01:00:48:28 01:00:49:25 
M2   T_QEVL1H       037.5                00:13:40:06 
* POND5_T_QEVL1HEIS836_HEISTS_LUFTHANSA HEIST_HIGH ANGLE VIEW OF CAR EXPLOSION_113 
* 49847 
* FROM CLIP NAME:  T_QEVL1HEIS836.NEW.01
090  T_QEVL1H V     C        00:13:41:03 00:13:41:03 01:00:49:25 01:00:49:25 
FCM: DROP FRAME 
090  EVL1_HEI V      012 00:00:23:01 00:00:23:23 01:00:49:25 01:00:50:10 
M2   T_QEVL1H       037.5                00:13:41:03 
M2   EVL1_HEI       058.0                00:00:23:01 
* POND5_T_QEVL1HEIS836_HEISTS_LUFTHANSA HEIST_HIGH ANGLE VIEW OF CAR EXPLOSION_113 
* 49847 
* FROM CLIP NAME:  T_QEVL1HEIS836.NEW.01 
* TO CLIP NAME:  QEVL1HEIS077.NEW.01
091  EVL1_HEI V     C        00:00:23:24 00:00:31:27 01:00:50:10 01:00:55:16 
M2   EVL1_HEI       058.0                00:00:23:24 
* AETN__QEVL1HEIS077_HEISTS_LUFTHANSA HEIST_GANGSTERS IN BLACK WALK TOWARDS CAMERA 
* _106549_MOBSTERS_JIMMYTHEGENTBURKE_24 
* FROM CLIP NAME:  QEVL1HEIS077.NEW.01
FCM: NON-DROP FRAME
092  EVL10509 V     C        09:57:45:01 09:57:48:10 01:00:55:14 01:00:58:25 
* FROM CLIP NAME:  EVL1050916B01_E0344.NEW.01.SUB.01
093  EVL10509 V     C        09:57:48:10 09:57:48:14 01:00:58:25 01:00:59:00 
* FROM CLIP NAME:  EVL1050916B01_E0344.NEW.01.SUB.01
094  T_QEVL1H V     C        00:05:28:11 00:05:29:19 01:00:59:00 01:01:00:09 
M2   T_QEVL1H       031.3                00:05:28:11 
* POND5_T_QEVL1HEIS267_HEISTS_LUFTHANSA HEIST_TIME LAPSE - CARGO WORKERS AT JFK AI 
* RPORT_34463930 
* FROM CLIP NAME:  T_QEVL1HEIS267.NEW.01
095  T_QEVL1H V     C        00:05:29:18 00:05:29:18 01:01:00:09 01:01:00:09 
095  T_QEVL1H V      004 00:05:03:12 00:05:03:17 01:01:00:09 01:01:00:14 
M2   T_QEVL1H       031.3                00:05:29:18 
M2   T_QEVL1H       031.3                00:05:03:12 
* POND5_T_QEVL1HEIS267_HEISTS_LUFTHANSA HEIST_TIME LAPSE - CARGO WORKERS AT JFK AI 
* RPORT_34463930 
* FROM CLIP NAME:  T_QEVL1HEIS267.NEW.01 
* TO CLIP NAME:  T_QEVL1HEIS047.NEW.01
096  T_QEVL1H V     C        00:05:03:16 00:05:04:08 01:01:00:14 01:01:01:03 
M2   T_QEVL1H       031.3                00:05:03:16 
* POND5_T_QEVL1HEIS047_HEISTS_ANTHONY CURCIO: CRAIG’S LIST ROBBER_CU OF MAN’S EYES 
*  LIT UP BY LAPTOP SCREEN AS HE SURFS WEB_62247017 
* FROM CLIP NAME:  T_QEVL1HEIS047.NEW.01
097  T_QEVL1H V     C        00:05:04:07 00:05:04:07 01:01:01:03 01:01:01:03 
097  EVL10527 V      006 17:15:02:05 17:15:02:12 01:01:01:03 01:01:01:10 
M2   T_QEVL1H       031.3                00:05:04:07 
* POND5_T_QEVL1HEIS047_HEISTS_ANTHONY CURCIO: CRAIG’S LIST ROBBER_CU OF MAN’S EYES 
*  LIT UP BY LAPTOP SCREEN AS HE SURFS WEB_62247017 
* FROM CLIP NAME:  T_QEVL1HEIS047.NEW.01 
* TO CLIP NAME:  EVL1052716A04_IP_ACAM0473.NEW.01
098  EVL10527 V     C        17:15:02:12 17:15:02:16 01:01:01:10 01:01:01:14 
* FROM CLIP NAME:  EVL1052716A04_IP_ACAM0473.NEW.01
099  EVL10527 V     C        17:15:02:16 17:15:02:16 01:01:01:14 01:01:01:14 
099  EVL10527 V      006 17:15:02:16 17:15:02:23 01:01:01:14 01:01:01:21 
* FROM CLIP NAME:  EVL1052716A04_IP_ACAM0473.NEW.01 
* TO CLIP NAME:  EVL1052716A04_IP_ACAM0473.NEW.01
100  EVL10527 V     C        17:15:02:23 17:15:03:18 01:01:01:21 01:01:02:10 
* FROM CLIP NAME:  EVL1052716A04_IP_ACAM0473.NEW.01
101  GFX_HEIS V     C        01:01:46:09 01:01:47:13 01:01:02:10 01:01:03:15 
* FROM CLIP NAME:  GFX_HEIS18_2D.TIF
102  EVL10509 V     C        09:57:53:11 09:57:54:02 01:01:03:09 01:01:03:28 
* FROM CLIP NAME:  EVL1050916B01_E0344.NEW.01.SUB.01
103  GFX_HEIS V     C        01:01:47:13 01:01:47:13 01:01:03:15 01:01:03:15 
103     BL    V      004 00:00:00:00 00:00:00:04 01:01:03:15 01:01:03:20 
* FROM CLIP NAME:  GFX_HEIS18_2D.TIF
104  EVL10509 V     C        09:57:54:02 09:57:54:19 01:01:03:28 01:01:04:19 
* FROM CLIP NAME:  EVL1050916B01_E0344.NEW.01.SUB.01
105  EVL1_GRN V     C        00:01:31:10 00:01:33:19 01:01:04:19 01:01:06:16 
* GETTY IMAGES_T_QEVL1GRND409_UNDERGROUND_HATTON GARDEN_AERIAL BIRD'S EYE VIEW SEC 
* URITY IMAGE W/ TARGETS_114211967 
* FROM CLIP NAME:  T_QEVL1GRND409.NEW.01
106  EVL1_GRN V     C        00:01:45:10 00:01:47:13 01:01:04:19 01:01:06:21 
M2   EVL1_GRN       031.3                00:01:45:10 
* GETTY IMAGES_T_QEVL1GRND416_UNDERGROUND_BRE-X_BLUE JEEP DRIVES THRU JUNGLE_1B012 
* 534_116 
* FROM CLIP NAME:  T_QEVL1GRND416.NEW.01
107  EVL1_GRN V     C        00:01:33:19 00:01:33:19 01:01:06:16 01:01:06:16 
107     BL    V      008 00:00:00:00 00:00:00:08 01:01:06:16 01:01:06:26 
* GETTY IMAGES_T_QEVL1GRND409_UNDERGROUND_HATTON GARDEN_AERIAL BIRD'S EYE VIEW SEC 
* URITY IMAGE W/ TARGETS_114211967 
* FROM CLIP NAME:  T_QEVL1GRND409.NEW.01
108  EVL1_SCA V     C        04:00:10:11 04:00:12:07 01:01:06:21 01:01:08:15 
M2   EVL1_SCA       031.3                04:00:10:11 
* GETTY IMAGES_T_QEVL1SCAM044_SCAMS_BERNIE MADOFF_BERNARD MADOFF EXITING FEDERAL C 
* OURTHOUSE BERNIE MADOFF AT COURT SD ONLY_142432980 
* FROM CLIP NAME:  T_QEVL1SCAM044.NEW.01
109  T_SEVL1G V     C        01:00:09:01 01:00:11:00 01:01:07:25 01:01:09:24 
* REUTERS_T_SEVL1GRND009_UNDERGROUND_EL CHAPO TUNNELS_EL CHAPO ESCORTED BY SOLDIER 
* S CLOSE-UP_GF20000089254_HTTP://PICTURES.REUTERS.COM/PACKAGE/2C0BF1FA1WB1Q#/SEAR 
* CHRESULT&ALID=2C0BF1FA1WB1Q&VBID=2C0BX4S47C08&POPUPPN=3&POPUPIID=2C0BF1FA16IGP 
* FROM CLIP NAME:  T_SEVL1GRND009.TIFF.NEW.01
110     BL    V     C        00:00:00:00 00:00:00:00 01:01:09:05 01:01:09:05 
110  T_QEVL1S V      006 00:00:00:00 00:00:00:08 01:01:09:05 01:01:09:13 
M2   T_QEVL1S       037.5                00:00:00:00 
* TO CLIP NAME:  T_QEVL1SCAM319.NEW.01
111  T_QEVL1S V     C        00:00:00:07 00:00:00:25 01:01:09:13 01:01:10:00 
M2   T_QEVL1S       037.5                00:00:00:07 
* ALL-STOCK/ACTIONSPORTS/MR. FOOTAGE_T_QEVL1SCAM319_SCAMS_LANCE ARMSTRONG_ VARIOUS 
*  CLIPS LANCE ARMSTRONG RACING IN YELLOW, LANCE IN VICTORY, LANCE ARMSTRONG WITH 
* TEAMMATES CYCLING_504742_HTTP://WWW.ACTIONSPORTSSTOCKFOOTAGE.COM/STOCKFOOTAGE_AC 
* TIONSPORTS.PHP? 
* FROM CLIP NAME:  T_QEVL1SCAM319.NEW.01
112  T_QEVL1S V     C        00:00:06:27 00:00:08:12 01:01:10:00 01:01:11:14 
M2   T_QEVL1S       037.5                00:00:06:27 
* ALL-STOCK/ACTIONSPORTS/MR. FOOTAGE_T_QEVL1SCAM319_SCAMS_LANCE ARMSTRONG_ VARIOUS 
*  CLIPS LANCE ARMSTRONG RACING IN YELLOW, LANCE IN VICTORY, LANCE ARMSTRONG WITH 
* TEAMMATES CYCLING_504742_HTTP://WWW.ACTIONSPORTSSTOCKFOOTAGE.COM/STOCKFOOTAGE_AC 
* TIONSPORTS.PHP? 
* FROM CLIP NAME:  T_QEVL1SCAM319.NEW.01
113     BL    V     C        00:00:00:00 00:00:00:00 01:01:11:01 01:01:11:01 
113  SEVL1HEI V      010 01:00:03:12 01:00:03:22 01:01:11:01 01:01:11:14 
* TO CLIP NAME:  SEVL1HEIS612.TIFF.NEW.01
114  SEVL1HEI V     C        01:00:03:22 01:00:04:17 01:01:11:14 01:01:12:08 
* MONROE PD__SEVL1HEIS612_HEISTS_ANTHONY CURCIO: CRAIG’S LIST ROBBER_MEDIUM SHOT O 
* F CURCIO DURING ARREST__ 
* FROM CLIP NAME:  SEVL1HEIS612.TIFF.NEW.01
115  T_QEVL1H V     C        00:07:04:08 00:07:08:00 01:01:12:08 01:01:12:29 
M2   T_QEVL1H       097.5                00:07:04:08 
* POND5_T_QEVL1HEIS784_HEISTS_SISI JEWEL HEIST_SURVEILLANCE CAMERA PAN ACROSS OUT_ 
* 40107216 
* FROM CLIP NAME:  T_QEVL1HEIS784.NEW.01
116  T_SEVL1H V     C        01:00:04:10 01:00:05:01 01:01:12:29 01:01:13:18 
* POND5_T_QEVL1HEIS784_HEISTS_SISI JEWEL HEIST_SURVEILLANCE CAMERA PAN ACROSS OUT_ 
* 40107216 
* FROM CLIP NAME:  T_SEVL1HEIS487.TIF 
* TO CLIP NAME:  T_QEVL1HEIS784.NEW.01
FCM: DROP FRAME
117  EVL1_HEI V     C        00:00:14:15 00:00:15:13 01:01:13:18 01:01:14:15 
M2   EVL1_HEI       037.5                00:00:14:15 
* AETN__QEVL1HEIS063_HEISTS_LUFTHANSA HEIST_SHIPPING TRUCK DRIVES UP /  MEN WITH G 
* UNS LOOKS THREATENING_106549_MOBSTERS_JIMMYTHEGENTBURKE_10 
* FROM CLIP NAME:  QEVL1HEIS063.NEW.01
FCM: NON-DROP FRAME
118  T_SEVL1H V     C        01:00:05:01 01:00:06:00 01:01:13:18 01:01:14:16 
* GETTY IMAGES_T_SEVL1HEIS487_HEISTS_LUFTHANSA HEIST_TWO MEN IN BLACK, ONE HOLDING 
*  THE OTHER HOSTAGE AT GUNPOINT_138368062_HTTP://WWW.GETTYIMAGES.COM/LICENSE/1383 
* 68062 
* FROM CLIP NAME:  T_SEVL1HEIS487.TIF
FCM: DROP FRAME
119  EVL1_HEI V     C        00:00:59:02 00:01:00:02 01:01:14:15 01:01:15:13 
M2   EVL1_HEI       037.5                00:00:59:02 
* AETN__QEVL1HEIS198_HEISTS_LUFTHANSA HEIST_ROBBER WITH MASK HOLDING MONEY, RECRE 
* OF ROBBERY WITH PEOPLE LAYING ON FLOOR GUN POINTED AT THEM_70462_GANGLAND_ARMYOF 
* HATE_010223 
* FROM CLIP NAME:  QEVL1HEIS198.NEW.01
FCM: NON-DROP FRAME
120  EVL1_HEI V     C        00:01:13:07 00:01:14:20 01:01:15:11 01:01:16:19 
* GETTY IMAGES__QEVL1HEIS352_HEISTS_LUFTHANSA HEIST_CU GUN SHOT WITH BLACK BACKGRO 
* UND_145725620 
* FROM CLIP NAME:  QEVL1HEIS352.NEW.01
121  EVL10512 V     C        13:21:15:09 13:21:17:07 01:01:16:04 01:01:18:01 
* FROM CLIP NAME:  EVL1051216B02_E0377.NEW.01.SUB.01
122  RED      V     C        01:00:00:00 01:00:00:01 01:01:17:21 01:01:17:23 
* FROM CLIP NAME:  RED
FCM: DROP FRAME
123  EVL1_HEI V     C        00:00:30:01 00:00:31:20 01:01:17:23 01:01:19:11 
M2   EVL1_HEI       037.5                00:00:30:01 
* AETN__QEVL1HEIS083_HEISTS_LUFTHANSA HEIST_2 DEAD BODIES SLUMPED OVER IN CAR_1065 
* 49_MOBSTERS_JIMMYTHEGENTBURKE_30 
* FROM CLIP NAME:  QEVL1HEIS083.NEW.01.COPY.01
FCM: NON-DROP FRAME
124  EVL10516 V     C        11:24:11:05 11:24:12:06 01:01:19:10 01:01:20:11 
* FROM CLIP NAME:  EVL1051616A02_IP_0245.NEW.01.SUB.01
125  EVL1_HEI V     C        00:11:42:28 00:11:43:12 01:01:19:11 01:01:19:24 
M2   EVL1_HEI       037.5                00:11:42:28 
* AETN__QEVL1HEIS083_HEISTS_LUFTHANSA HEIST_2 DEAD BODIES SLUMPED OVER IN CAR_1065 
* 49_MOBSTERS_JIMMYTHEGENTBURKE_30 
* FROM CLIP NAME:  T_QEVL1HEIS542.NEW.01 
* TO CLIP NAME:  QEVL1HEIS083.NEW.01.COPY.01
126  EVL1_HEI V     C        00:11:43:11 00:11:43:29 01:01:19:24 01:01:20:11 
M2   EVL1_HEI       037.5                00:11:43:11 
* POND5_T_QEVL1HEIS542_HEISTS_LUFTHANSA_LOADING BLOODY BODY INTO TRUNK_11346493 
* FROM CLIP NAME:  T_QEVL1HEIS542.NEW.01
127  EVL1_HEI V     C        00:11:43:28 00:11:43:28 01:01:20:11 01:01:20:11 
127     BL    V      011 00:00:00:00 00:00:00:11 01:01:20:11 01:01:20:25 
M2   EVL1_HEI       037.5                00:11:43:28 
* POND5_T_QEVL1HEIS542_HEISTS_LUFTHANSA_LOADING BLOODY BODY INTO TRUNK_11346493 
* FROM CLIP NAME:  T_QEVL1HEIS542.NEW.01
128  EVL10516 V     C        10:53:40:13 10:53:42:12 01:01:20:11 01:01:22:10 
* FROM CLIP NAME:  EVL1051616B02_LL0229.NEW.01.SUB.01
129  T_QEVL1H V     C        00:00:02:29 00:00:03:02 01:01:22:01 01:01:22:05 
* POND5_T_QEVL1HEIS1378_HEISTS_DINNER SET GANG_POLICE LIGHTS_10871033 
* FROM CLIP NAME:  T_QEVL1HEIS1378.NEW.01
130  T_QEVL1H V     C        00:45:05:12 00:45:07:27 01:01:22:01 01:01:24:15 
M2   T_QEVL1H       037.5                00:45:05:12 
* NBC NEWS_T_QEVL1HEIS494_HEISTS_LUFTHANSA HEIST_NEWS ON LUFTHANSA ROBBERY, COPS P 
* RESS CONFERENCE, LOUIS WERNER ARREST, CARGO BUILDING INTERIOR EXTERIOR, AERIAL, 
* EXAMINE BROKEN FENCE, EMPLOYEE B-ROLL_MN16F8078-001_WO1.MOV 
* FROM CLIP NAME:  T_QEVL1HEIS494.NEW.01
131  EVL10615 V     C        16:48:34:16 16:48:35:12 01:01:23:01 01:01:23:26 
* FROM CLIP NAME:  EVL1061516A04_275_0238.NEW.01.COPY.01
132  EVL10615 V     C        16:48:35:12 16:48:36:03 01:01:23:26 01:01:24:15 
* FROM CLIP NAME:  EVL1061516A04_275_0238.NEW.01.COPY.01
133  EVL1_SCA V     C        02:01:46:12 02:04:52:15 01:01:24:15 01:01:26:15 
M2   EVL1_SCA       4215.6                02:01:46:12 
* AETN__QEVL1SCAM273_SCAMS_BERNIE MADOFF_NEW YORK BUILDINGS_MF6598_LOWEREASTSIDEMI 
* DTOWNCENTRALPARK 
* FROM CLIP NAME:  QEVL1SCAM273.NEW.01
134  SEVL1BOM V     C        01:00:03:08 01:00:06:20 01:01:26:15 01:01:30:00 
* AP IMAGES__SEVL1BOMB043_BOMBS_THE UNABOMBER_1996 FILE PHOTO SHOWS TED KACZYNSKI' 
* S CABIN IN THE WOODS OF LINCOLN, MONT_1604041858536371_HTTP://WWW.APIMAGES.COM/M 
* ETADATA/INDEX/UNABOMBER-ARREST-ANNIVERSARY/8CCAABB96048487687DA37507B19C1E9/6/0 
* FROM CLIP NAME:  SEVL1BOMB043.TIF.NEW.01
135  SEVL1BOM V     C        01:00:00:14 01:00:01:10 01:01:27:03 01:01:27:28 
* FROM CLIP NAME:  SEVL1BOMB030.TIF.NEW.01
136  SEVL1BOM V     C        01:00:01:10 01:00:03:12 01:01:27:28 01:01:30:00 
* GETTY IMAGES__SEVL1BOMB030_BOMBS_THE UNABOMBER_FBI SKETCH OF SERIAL BOMBER KNOWN 
*  AS THE UNABOMBER, BASED ON WITNESS RECOLLECTION AFTER KILLING OF STORE MANAGER 
* HUGH SCRUTTON_50696786_HTTP://WWW.GETTYIMAGES.COM/LICENSE/50696786 
* FROM CLIP NAME:  SEVL1BOMB030.TIF.NEW.01
FCM: DROP FRAME
137  EVL1_GRN V     C        01:30:10:03 01:30:10:18 01:01:29:29 01:01:30:14 
M2   EVL1_GRN       037.5                01:30:10:03 
* AETN__QEVL1GRND085_UNDERGROUND_BRE-X_GOLD MINING, BLOWING UP CLIFF TO FIND GOLD, 
*  SLO-MO OF EXPLOSION_MF11373_GOLDMININGYOSEMITECA 
* FROM CLIP NAME:  QEVL1GRND085.NEW.01
FCM: NON-DROP FRAME
138  T_QEVL1H V     C        00:00:04:05 00:00:05:06 01:01:29:29 01:01:30:29 
M2   T_QEVL1H       031.3                00:00:04:05 
* POND5_T_QEVL1HEIS1403_HEISTS_ALL ACTS_VIETNAM WAR, HELICOPTER SOLDIER DEPLOY_279 
* 20541 
* FROM CLIP NAME:  T_QEVL1HEIS1403.NEW.01
FCM: DROP FRAME
139  EVL1_GRN V     C        01:30:11:12 01:30:18:17 01:01:30:14 01:01:30:29 
M2   EVL1_GRN       535.0                01:30:11:12 
* AETN__QEVL1GRND085_UNDERGROUND_BRE-X_GOLD MINING, BLOWING UP CLIFF TO FIND GOLD, 
*  SLO-MO OF EXPLOSION_MF11373_GOLDMININGYOSEMITECA 
* FROM CLIP NAME:  QEVL1GRND085.NEW.01
140  EVL1_GRN V     C        01:30:18:17 01:30:19:23 01:01:30:29 01:01:32:00 
M2   EVL1_GRN       042.0                01:30:18:17 
* AETN__QEVL1GRND085_UNDERGROUND_BRE-X_GOLD MINING, BLOWING UP CLIFF TO FIND GOLD, 
*  SLO-MO OF EXPLOSION_MF11373_GOLDMININGYOSEMITECA 
* FROM CLIP NAME:  QEVL1GRND085.NEW.01
FCM: NON-DROP FRAME
141  SEVL1GRN V     C        01:00:08:14 01:00:10:12 01:01:31:21 01:01:33:19 
* AP IMAGES__SEVL1GRND389_UNDERGROUND_EL CHAPO TUNNELS_INSIDE OF A DRUG CROSS BORD 
* ER TRAFFICKING TUNNEL WITH RAILS_804312257456_HTTP://WWW.APIMAGES.COM/METADATA/I 
* NDEX/GDA-AP-I-M-XICO-GDRIO-TECATE-B-C-DRUG-TRAFFIC-/37D984D24B3A4C3688262686C8B5 
* 4AEA/262/0 
* FROM CLIP NAME:  SEVL1GRND389.TIF.NEW.01
142  T_SEVL1G V     C        01:00:04:08 01:00:05:14 01:01:32:00 01:01:33:08 
* FROM CLIP NAME:  T_SEVL1GRND422.TIF.NEW.01
143  EVL1_GRO V     C        00:01:08:10 00:01:11:12 01:01:32:00 01:01:33:24 
M2   EVL1_GRO       063.5                00:01:08:10 
* GETTY IMAGES_T_QEVL1GRND309_UNDERGROUND_EL CHAPO TUNNELS_CCTV OF EL CHAPO VANISH 
* ING INTO PRISON HOLE; MEXICO OFFICIAL MAKES ANNOUNCEMENT; B-ROLL GUARDS AT ALTIP 
* LANO PRISON_481444434 
* FROM CLIP NAME:  T_QEVL1GRND239.NEW.01
144  T_SEVL1G V     C        01:00:05:14 01:00:05:23 01:01:33:08 01:01:33:19 
* SHUTTERSTOCK_T_SEVL1GRND422_UNDERGROUND_EL CHAPO TUNNELS_TOTAL STATION WITH TUNN 
* EL BEHIND IT_409192507_HTTP://WWW.SHUTTERSTOCK.COM/PIC-409192507/STOCK-PHOTO-GEO 
* DETIC-DEVICE.HTML?SRC=WL44_GWDQ9FBSCESD__CAG-2-96 
* FROM CLIP NAME:  T_SEVL1GRND422.TIF.NEW.01
146  T_SEVL1G V     C        01:00:05:23 01:00:05:23 01:01:33:19 01:01:33:19 
146     BL    V      008 00:00:00:00 00:00:00:08 01:01:33:19 01:01:33:29 
* SHUTTERSTOCK_T_SEVL1GRND422_UNDERGROUND_EL CHAPO TUNNELS_TOTAL STATION WITH TUNN 
* EL BEHIND IT_409192507_HTTP://WWW.SHUTTERSTOCK.COM/PIC-409192507/STOCK-PHOTO-GEO 
* DETIC-DEVICE.HTML?SRC=WL44_GWDQ9FBSCESD__CAG-2-96 
* FROM CLIP NAME:  T_SEVL1GRND422.TIF.NEW.01
145  SEVL1GRN V     C        01:00:10:12 01:00:10:12 01:01:33:19 01:01:33:19 
145     BL    V      008 00:00:00:00 00:00:00:08 01:01:33:19 01:01:33:29 
* AP IMAGES__SEVL1GRND389_UNDERGROUND_EL CHAPO TUNNELS_INSIDE OF A DRUG CROSS BORD 
* ER TRAFFICKING TUNNEL WITH RAILS_804312257456_HTTP://WWW.APIMAGES.COM/METADATA/I 
* NDEX/GDA-AP-I-M-XICO-GDRIO-TECATE-B-C-DRUG-TRAFFIC-/37D984D24B3A4C3688262686C8B5 
* 4AEA/262/0 
* FROM CLIP NAME:  SEVL1GRND389.TIF.NEW.01
147  T_SEVL1T V     C        01:00:09:14 01:00:10:20 01:01:33:23 01:01:35:00 
* GETTY IMAGES_T_SEVL1TECH027_HIGH TECH CRIMES_AL QAEDA PORN_UNDATED FILE PICTURE 
* OF SAUDI DISSIDENT OSAMA BIN__52010518 
* FROM CLIP NAME:  T_SEVL1TECH027.TIF.NEW.01
148  EVL_GRND V     C        01:00:01:08 01:00:01:14 01:01:35:00 01:01:35:06 
* GETTY IMAGES_T_QEVL1GRND393_UNDERGROUND_EL CHAPO TUNNELS_SUBWAY TUNNEL ZOOM_1045 
* 53773 
* FROM CLIP NAME:  T_QEVL1GRND393.MP4
149  QEVL1HEI V     C        00:00:45:11 00:00:47:01 01:01:35:06 01:01:36:14 
* GETTY IMAGES_T_QEVL1GRND393_UNDERGROUND_EL CHAPO TUNNELS_SUBWAY TUNNEL ZOOM_1045 
* 53773 
* FROM CLIP NAME:  QEVL1HEIS340.NEW.01 
* TO CLIP NAME:  T_QEVL1GRND393.MP4
150  QEVL1HEI V     C        00:00:47:01 00:00:48:00 01:01:36:14 01:01:37:08 
* GETTY IMAGES__QEVL1HEIS340_HEISTS_LUFTHANSA HEIST_CHAIN LINK FENCE AT AIRPORT_99 
* 032024 
* FROM CLIP NAME:  QEVL1HEIS340.NEW.01
151  T_QEVL1H V     C        01:00:03:13 01:00:03:25 01:01:37:08 01:01:37:20 
* POND5_T_QEVL1HEIS1308_HEISTS_DINNER SET GANG_ARCHITECTURE BLUEPRINT, HOUSE PLAN, 
*  GRAPHIC _765394 
* FROM CLIP NAME:  T_QEVL1HEIS1308.MOV
152  EVL10519 V     C        15:26:04:06 15:26:05:12 01:01:37:08 01:01:38:15 
* FROM CLIP NAME:  EVL1051916A02_IP_0296.NEW.01
153  EVL10519 V     C        15:03:35:15 15:03:51:06 01:01:38:15 01:01:39:03 
M2   EVL10519       801.4                15:03:35:15 
* FROM CLIP NAME:  EVL1051916A02_IP_0289.NEW.01
154  EVL10519 V     C        15:24:18:20 15:24:19:05 01:01:39:03 01:01:39:14 
* FROM CLIP NAME:  EVL1051916A02_IP_0295.NEW.01
155  EVL10519 V     C        15:24:19:18 15:24:20:06 01:01:39:14 01:01:39:29 
* FROM CLIP NAME:  EVL1051916A02_IP_0295.NEW.01
156     BL    V     C        00:00:00:00 00:00:00:00 01:01:39:24 01:01:39:24 
156  EVL_TITL V      008 01:00:54:07 01:00:54:15 01:01:39:24 01:01:40:04 
* TO CLIP NAME:  EVL_TITLE_FRAME_05.TIF
157  EVL_TITL V     C        01:00:54:15 01:00:58:17 01:01:40:04 01:01:44:06 
* FROM CLIP NAME:  EVL_TITLE_FRAME_05.TIF
158  EVL1_ARC V     C        00:00:36:14 00:00:51:26 01:01:44:06 01:01:45:15 
M2   EVL1_ARC       357.1                00:00:36:14 
* POND5_T_QEVL1ARCH201_ARCHITECTS_ROBERT MOSES_FLYING BY STATUE OF LIBERTY, BROOKL 
* YN IN THE DISTANCE, NEW YORK, NEW YORK,_60063521 
* FROM CLIP NAME:  T_QEVL1ARCH201.NEW.01
FCM: DROP FRAME
159  QEVL1SCA V     C        12:00:45:06 12:00:48:22 01:01:45:15 01:01:46:28 
M2   QEVL1SCA       092.6                12:00:45:06 
* AETN__QEVL1SCAM260_SCAMS_BERNIE MADOFF_NEW YORK CITY B-ROLL POLICE, TAXI TRAFFIC 
* _MF10321_TIMESSQUAREMIDTOWN_01 
* FROM CLIP NAME:  QEVL1SCAM260.NEW.01
FCM: NON-DROP FRAME
160  EVL1_HEI V     C        00:05:47:20 00:05:59:19 01:01:46:28 01:01:48:15 
M2   EVL1_HEI       235.3                00:05:47:20 
* FRAMEPOOL_T_QEVL1HEIS320_HEISTS_SISI JEWEL HEIST_AIRPLANE TAKING OFF FROM RUNWAY 
* , FLYING OVER CAMERA_966-134-040 
* FROM CLIP NAME:  T_QEVL1HEIS320.NEW.01
161  EVL1_HEI V     C        00:08:44:00 00:08:45:08 01:01:48:15 01:01:49:23 
M2   EVL1_HEI       037.5                00:08:44:00 
* AETN__QEVL1HEIS222_HEISTS_SISI JEWEL HEIST_AIRPORT PEOPLE MILLING AROUND, DARK L 
* IT_MF9749_MVI_5539 
* FROM CLIP NAME:  QEVL1HEIS222.NEW.01
FCM: DROP FRAME
162  EVL1_HEI V     C        00:00:19:01 00:00:20:05 01:01:49:23 01:01:50:26 
M2   EVL1_HEI       037.5                00:00:19:01 
* AETN__QEVL1HEIS066_HEISTS_LUFTHANSA HEIST_HANDSHAKE / STACK OF MONEY / “JFK INTE 
* RNATIONAL” AIRPORT SIGN_106549_MOBSTERS_JIMMYTHEGENTBURKE_13 
* FROM CLIP NAME:  QEVL1HEIS066.NEW.01
FCM: NON-DROP FRAME
163  EVL1_HEI V     C        00:12:31:08 00:12:33:20 01:01:50:26 01:01:53:08 
M2   EVL1_HEI       037.5                00:12:31:08 
* POND5_T_QEVL1HEIS662_HEISTS_LUFTHANSA HEIST_CCTV-SPLIT-SCREEN-AIRPORT-SECURITY-A 
* IRPORT-TRAFFIC-CONTROL VIDEO SURVEILLANCE_41631315 
* FROM CLIP NAME:  T_QEVL1HEIS662.NEW.01
164  EVL1_HEI V     C        00:12:33:20 00:12:33:20 01:01:53:08 01:01:53:08 
164  EVL1_HEI V      012 00:02:29:14 00:02:30:05 01:01:53:08 01:01:53:23 
M2   EVL1_HEI       037.5                00:12:33:20 
* POND5_T_QEVL1HEIS662_HEISTS_LUFTHANSA HEIST_CCTV-SPLIT-SCREEN-AIRPORT-SECURITY-A 
* IRPORT-TRAFFIC-CONTROL VIDEO SURVEILLANCE_41631315 
* FROM CLIP NAME:  T_QEVL1HEIS662.NEW.01 
* TO CLIP NAME:  T_QEVL1HEIS270.NEW.01
165  EVL1_HEI V     C        00:02:30:05 00:02:32:14 01:01:53:23 01:01:55:20 
* POND5_T_QEVL1HEIS270_HEISTS_LUFTHANSA HEIST_LUFTHANSA CARGO PLANE_60242540 
* FROM CLIP NAME:  T_QEVL1HEIS270.NEW.01
166  GFX_HEIS V     C        00:00:04:15 00:00:09:12 01:01:55:20 01:02:00:16 
* FROM CLIP NAME:  GFX_HEIS15_GND_03_V01.MOV
167  LUFTHANS V     C        01:00:00:13 01:00:04:09 01:01:56:00 01:01:59:26 
* FROM CLIP NAME:  LUFTHANSA HEIST
168  GFX_HEIS V     C        00:00:09:12 00:00:09:12 01:02:00:16 01:02:00:16 
168  GFX_HEIS V      012 01:00:02:13 01:00:02:27 01:02:00:16 01:02:01:01 
* FROM CLIP NAME:  GFX_HEIS15_GND_03_V01.MOV 
* TO CLIP NAME:  GFX_HEIS34_MAP_V01.TIF
169  GFX_HEIS V     C        01:00:02:28 01:00:09:06 01:02:01:01 01:02:07:10 
* FROM CLIP NAME:  GFX_HEIS34_MAP_V01.TIF
170  GFX_HEIS V     C        01:00:09:06 01:00:09:06 01:02:07:10 01:02:07:10 
170  T_QEVL1H V      008 00:42:37:09 00:42:37:10 01:02:07:10 01:02:07:20 
M2   T_QEVL1H       000.0                00:42:37:09 
* FROM CLIP NAME:  GFX_HEIS34_MAP_V01.TIF 
* TO CLIP NAME:  T_QEVL1HEIS494.NEW.01
171  T_QEVL1H V     C        00:42:37:09 00:42:37:10 01:02:07:20 01:02:13:28 
M2   T_QEVL1H       000.0                00:42:37:09 
* NBC NEWS_T_QEVL1HEIS494_HEISTS_LUFTHANSA HEIST_NEWS ON LUFTHANSA ROBBERY, COPS P 
* RESS CONFERENCE, LOUIS WERNER ARREST, CARGO BUILDING INTERIOR EXTERIOR, AERIAL, 
* EXAMINE BROKEN FENCE, EMPLOYEE B-ROLL_MN16F8078-001_WO1.MOV 
* FROM CLIP NAME:  T_QEVL1HEIS494.NEW.01 
* * FREEZE FRAME
FCM: DROP FRAME
172  EVL1_HEI V     C        00:00:13:28 00:00:18:06 01:02:13:28 01:02:18:11 
M2   EVL1_HEI       035.6                00:00:13:28 
* AETN__QEVL1HEIS068_HEISTS_LUFTHANSA HEIST_HANDSHAKE IN A BAR_106549_MOBSTERS_JIM 
* MYTHEGENTBURKE_15 
* FROM CLIP NAME:  QEVL1HEIS068.NEW.01
173  EVL1_HEI V     C        00:00:18:06 00:00:18:06 01:02:18:11 01:02:18:11 
173  QEVL1HEI V      010 00:01:27:08 00:01:27:22 01:02:18:11 01:02:18:24 
M2   EVL1_HEI       035.6                00:00:18:06 
M2   QEVL1HEI       037.5                00:01:27:08 
* AETN__QEVL1HEIS068_HEISTS_LUFTHANSA HEIST_HANDSHAKE IN A BAR_106549_MOBSTERS_JIM 
* MYTHEGENTBURKE_15 
* FROM CLIP NAME:  QEVL1HEIS068.NEW.01 
* TO CLIP NAME:  QEVL1HEIS461.NEW.01
174  QEVL1HEI V     C        00:01:27:21 00:01:29:22 01:02:18:24 01:02:20:24 
M2   QEVL1HEI       037.5                00:01:27:21 
* GETTY IMAGES__QEVL1HEIS461_HEISTS_LUFTHANSA HEIST_WORKER LOADING PARCELS ONTO LO 
* ADING VAN, DAYTIME_483675240 
* FROM CLIP NAME:  QEVL1HEIS461.NEW.01
FCM: NON-DROP FRAME
175  T_QEVL1H V     C        00:10:08:08 00:10:10:02 01:02:20:24 01:02:22:16 
M2   T_QEVL1H       037.5                00:10:08:08 
* POND5_T_QEVL1HEIS259_HEISTS_LUFTHANSA HEIST_PAN ACROSS JFK RUNWAY, SEE LUFTHANSA 
*  JET_48595056 
* FROM CLIP NAME:  T_QEVL1HEIS259.NEW.01
176  QEVL1HEI V     C        00:00:46:12 00:00:48:13 01:02:22:16 01:02:24:05 
* GETTY IMAGES__QEVL1HEIS340_HEISTS_LUFTHANSA HEIST_CHAIN LINK FENCE AT AIRPORT_99 
* 032024 
* FROM CLIP NAME:  QEVL1HEIS340.NEW.01
177  EVL1_HEI V     C        00:02:29:20 00:02:33:04 01:02:24:05 01:02:26:25 
* POND5_T_QEVL1HEIS270_HEISTS_LUFTHANSA HEIST_LUFTHANSA CARGO PLANE_60242540 
* FROM CLIP NAME:  T_QEVL1HEIS270.NEW.01
FCM: DROP FRAME
178  EVL1_HEI V     C        00:00:12:06 00:00:15:02 01:02:26:25 01:02:29:20 
M2   EVL1_HEI       037.5                00:00:12:06 
* AETN__QEVL1HEIS064_HEISTS_LUFTHANSA HEIST_MEN WITH BAGS (OF CASH) WALK THROUGH H 
* ALL / ZOOM INTO $20 BILLS_106549_MOBSTERS_JIMMYTHEGENTBURKE_11 
* FROM CLIP NAME:  QEVL1HEIS064.NEW.01
FCM: NON-DROP FRAME
179  EVL10519 V     C        15:03:21:03 15:03:30:18 01:02:29:20 01:02:31:09 
M2   EVL10519       176.9                15:03:21:03 
* FROM CLIP NAME:  EVL1051916A02_IP_0289.NEW.01 
* FROM SOURCE STROBE MOTION UPDATE EVERY 2 FRAMES
180  EVL10519 V     C        14:54:14:06 14:54:15:02 01:02:31:09 01:02:32:04 
* FROM CLIP NAME:  EVL1051916A02_IP_0284.NEW.01
181  EVL10519 V     C        14:54:15:02 14:54:15:03 01:02:32:04 01:02:33:23 
M2   EVL10519       000.0                14:54:15:02 
* FROM CLIP NAME:  EVL1051916A02_IP_0284.NEW.01 
* * FREEZE FRAME
182  LOWER_TH V     C        01:00:20:09 01:00:24:09 01:02:33:23 01:02:37:23 
* FROM CLIP NAME:  LOWER THIRD.01.NEW.01
183  EVL10516 V     C        09:39:59:11 09:40:03:11 01:02:33:23 01:02:37:23 
* FROM CLIP NAME:  EVL1051716A01_IP_0258.NEW.01.SUB.01
184  EVL10517 V     C        09:09:31:16 09:09:33:13 01:02:37:23 01:02:39:19 
* FROM CLIP NAME:  EVL1051716B01_LL0241_1.NEW.01.SUB.01
185  EVL1_HEI V     C        00:07:19:14 00:07:21:14 01:02:39:19 01:02:41:18 
M2   EVL1_HEI       031.3                00:07:19:14 
* POND5_T_QEVL1HEIS883_HEISTS_LUFTHANSA HEIST_CRIMINAL BUSINESS IN PARKING LOT, BR 
* EIFCASE, EXCHANGING MOENY_60667581 
* FROM CLIP NAME:  T_QEVL1HEIS883.NEW.01
186  EVL1_HEI V     C        00:01:05:03 00:01:08:05 01:02:41:18 01:02:44:03 
* POND5_T_QEVL1HEIS883_HEISTS_LUFTHANSA HEIST_CRIMINAL BUSINESS IN PARKING LOT, BR 
* EIFCASE, EXCHANGING MOENY_60667581 
* FROM CLIP NAME:  QEVL1HEIS468.NEW.01 
* TO CLIP NAME:  T_QEVL1HEIS883.NEW.01
187  EVL1_HEI V     C        00:01:08:06 00:01:09:08 01:02:44:03 01:02:44:29 
* GETTY IMAGES__QEVL1HEIS468_HEISTS_LUFTHANSA HEIST_CLOSE UP WOODEN TABLE, BRIEFCA 
* SE SLIDING ACROSS, MAN'S HANDS OPEN CASE, REVEALING BUNDLES OF $20 BILLS_932-49 
* FROM CLIP NAME:  QEVL1HEIS468.NEW.01
188  LOWER_TH V     C        01:00:21:18 01:00:23:24 01:02:44:28 01:02:47:04 
* FROM CLIP NAME:  LOWER THIRD.01.NEW.02
189  EVL10610 V     C        11:57:49:18 11:57:51:21 01:02:44:29 01:02:47:03 
* FROM CLIP NAME:  EVL1061016A02_275_0177.NEW.01.SUB.01
190  EVL1_ARC V     C        03:24:22:13 03:24:23:20 01:02:47:03 01:02:48:09 
M2   EVL1_ARC       037.5                03:24:22:13 
* AETN__QEVL1ARCH274_ARCHITECTS_MIT COUNTERS_CASINO GAMBLING ROULETTE_MF6174_LASVE 
* GASBROLL_13.MOV 
* FROM CLIP NAME:  QEVL1ARCH274.NEW.01
191  EVL1_ARC V     C        03:28:18:12 03:28:19:29 01:02:48:09 01:02:49:25 
M2   EVL1_ARC       037.5                03:28:18:12 
* AETN__QEVL1ARCH277_ARCHITECTS_MIT COUNTERS_CASINO GAMBLING ROULETTE_MF6174_LASVE 
* GASBROLL_16.MOV 
* FROM CLIP NAME:  QEVL1ARCH277.NEW.01
192  EVL10509 V     C        12:21:38:16 12:21:40:22 01:02:49:25 01:02:52:03 
* FROM CLIP NAME:  EVL1050916A02_IP_0161.NEW.01.SUB.01
193  LOWER_TH V     C        01:00:36:16 01:00:38:22 01:02:49:26 01:02:52:03 
* FROM CLIP NAME:  LOWER THIRD.01.NEW.03
FCM: DROP FRAME
194  EVL1_HEI V     C        01:13:30:21 01:13:32:02 01:02:52:03 01:02:53:13 
M2   EVL1_HEI       037.5                01:13:30:21 
* AETN__QEVL1HEIS065_HEISTS_LUFTHANSA HEIST_DRIVING PAST JFK AIRPORT / MONEY GETS 
* STASHED IN COAT_106549_MOBSTERS_JIMMYTHEGENTBURKE_12 
* FROM CLIP NAME:  QEVL1HEIS065.NEW.01
195  EVL1_HEI V     C        01:13:32:01 01:13:33:20 01:02:53:13 01:02:55:01 
M2   EVL1_HEI       037.5                01:13:32:01 
* AETN__QEVL1HEIS065_HEISTS_LUFTHANSA HEIST_DRIVING PAST JFK AIRPORT / MONEY GETS 
* STASHED IN COAT_106549_MOBSTERS_JIMMYTHEGENTBURKE_12 
* FROM CLIP NAME:  QEVL1HEIS065.NEW.01
196  _3D_MODE V     C        01:00:31:00 01:00:39:00 01:02:55:01 01:03:03:01 
* FROM CLIP NAME:   3D MODEL OF LUFTHANSA BLDG
197  EVL1_HEI V     C        00:00:22:18 00:00:31:18 01:03:03:01 01:03:12:13 
M2   EVL1_HEI       035.9                00:00:22:18 
* AETN__QEVL1HEIS077_HEISTS_LUFTHANSA HEIST_GANGSTERS IN BLACK WALK TOWARDS CAMERA 
* _106549_MOBSTERS_JIMMYTHEGENTBURKE_24 
* FROM CLIP NAME:  QEVL1HEIS077.NEW.01
FCM: NON-DROP FRAME
198  EVL10525 V     C        11:34:05:12 11:34:10:02 01:03:12:13 01:03:17:00 
* FROM CLIP NAME:  EVL1052516A02_E020C004_160525MD.NEW.01.SUB.01
199  LOWER_TH V     C        01:00:18:16 01:00:23:04 01:03:12:13 01:03:17:00 
* FROM CLIP NAME:  LOWER THIRD.03.NEW.03
200  EVL10517 V     C        13:01:29:03 13:01:36:12 01:03:12:13 01:03:19:24 
* FROM CLIP NAME:  EVL1051716A02_IP_0263.NEW.01
202  EVL10525 V     C        11:34:10:02 11:34:10:02 01:03:17:00 01:03:17:00 
FCM: DROP FRAME 
202  EVL1_HEI V      008 00:00:09:01 00:00:09:12 01:03:17:00 01:03:17:10 
M2   EVL1_HEI       037.5                00:00:09:01 
* FROM CLIP NAME:  EVL1052516A02_E020C004_160525MD.NEW.01.SUB.01 
* TO CLIP NAME:  QEVL1HEIS062.NEW.01
FCM: NON-DROP FRAME
201  LOWER_TH V     C        01:00:23:04 01:00:23:04 01:03:17:00 01:03:17:00 
201     BL    V      008 00:00:00:00 00:00:00:08 01:03:17:00 01:03:17:10 
* FROM CLIP NAME:  LOWER THIRD.03.NEW.03
FCM: DROP FRAME
203  EVL1_HEI V     C        00:00:09:11 00:00:11:25 01:03:17:10 01:03:19:24 
M2   EVL1_HEI       037.5                00:00:09:11 
* AETN__QEVL1HEIS062_HEISTS_LUFTHANSA HEIST_CASH BEING COUNTED / CASH IN ENVELOPE 
* / ENVELOPE GOES INTO JACKET_106549_MOBSTERS_JIMMYTHEGENTBURKE_09 
* FROM CLIP NAME:  QEVL1HEIS062.NEW.01
204  EVL1_HEI V     C        00:00:06:27 00:00:08:14 01:03:19:24 01:03:21:10 
M2   EVL1_HEI       037.5                00:00:06:27 
* AETN__QEVL1HEIS060_HEISTS_LUFTHANSA HEIST_MAN BEATING MAN UP; MAN WALKS TOWARD C 
* AMERA THREATENINGLY_106549_MOBSTERS_JIMMYTHEGENTBURKE_07 
* FROM CLIP NAME:  QEVL1HEIS060.NEW.01
205  EVL1_HEI V     C        00:00:14:03 00:00:16:07 01:03:21:10 01:03:23:13 
M2   EVL1_HEI       037.5                00:00:14:03 
* AETN__QEVL1HEIS062_HEISTS_LUFTHANSA HEIST_CASH BEING COUNTED / CASH IN ENVELOPE 
* / ENVELOPE GOES INTO JACKET_106549_MOBSTERS_JIMMYTHEGENTBURKE_09 
* FROM CLIP NAME:  QEVL1HEIS062.NEW.01
206  EVL1_HEI V     C        00:00:16:27 00:00:20:25 01:03:23:13 01:03:27:10 
M2   EVL1_HEI       037.5                00:00:16:27 
* AETN__QEVL1HEIS061_HEISTS_LUFTHANSA HEIST_STACKS OF HUNDRED DOLLAR BILLS; HANDSH 
* AKE; MAN THREATENED W/ GUN_106549_MOBSTERS_JIMMYTHEGENTBURKE_08 
* FROM CLIP NAME:  QEVL1HEIS061.NEW.01
207  EVL1_HEI V     C        00:00:11:15 00:00:12:12 01:03:27:10 01:03:28:06 
M2   EVL1_HEI       037.5                00:00:11:15 
* AETN__QEVL1HEIS061_HEISTS_LUFTHANSA HEIST_STACKS OF HUNDRED DOLLAR BILLS; HANDSH 
* AKE; MAN THREATENED W/ GUN_106549_MOBSTERS_JIMMYTHEGENTBURKE_08 
* FROM CLIP NAME:  QEVL1HEIS061.NEW.01
FCM: NON-DROP FRAME
208  MORTISE_ V     C        01:01:50:14 01:01:52:02 01:03:27:10 01:03:28:25 
* FROM CLIP NAME:  MORTISE_V01 WITH ALPHA.TIF
209     AX    V     C        01:00:00:00 01:00:00:04 01:03:28:06 01:03:28:11 
* AETN__QEVL1HEIS061_HEISTS_LUFTHANSA HEIST_STACKS OF HUNDRED DOLLAR BILLS; HANDSH 
* AKE; MAN THREATENED W/ GUN_106549_MOBSTERS_JIMMYTHEGENTBURKE_08 
* TO CLIP NAME:  QEVL1HEIS061.NEW.01
FCM: DROP FRAME
210  EVL1_HEI V     C        00:00:13:04 00:00:13:17 01:03:28:11 01:03:28:16 
M2   EVL1_HEI       022.0                00:00:13:04 
* AETN__QEVL1HEIS061_HEISTS_LUFTHANSA HEIST_STACKS OF HUNDRED DOLLAR BILLS; HANDSH 
* AKE; MAN THREATENED W/ GUN_106549_MOBSTERS_JIMMYTHEGENTBURKE_08 
* FROM CLIP NAME:  QEVL1HEIS061.NEW.01 
* TO CLIP NAME:  QEVL1HEIS061.NEW.01
211  EVL1_HEI V     C        00:00:13:19 00:00:13:25 01:03:28:16 01:03:28:25 
M2   EVL1_HEI       022.0                00:00:13:19 
* AETN__QEVL1HEIS061_HEISTS_LUFTHANSA HEIST_STACKS OF HUNDRED DOLLAR BILLS; HANDSH 
* AKE; MAN THREATENED W/ GUN_106549_MOBSTERS_JIMMYTHEGENTBURKE_08 
* FROM CLIP NAME:  QEVL1HEIS061.NEW.01
FCM: NON-DROP FRAME
213     AX    V     C        01:00:00:00 01:00:00:15 01:03:28:25 01:03:29:14 
* TO CLIP NAME:  MORTISE_V01 WITH ALPHA.TIF
212     AX    V     C        01:00:00:00 01:00:00:15 01:03:28:25 01:03:29:14 
* AETN__QEVL1HEIS061_HEISTS_LUFTHANSA HEIST_STACKS OF HUNDRED DOLLAR BILLS; HANDSH 
* AKE; MAN THREATENED W/ GUN_106549_MOBSTERS_JIMMYTHEGENTBURKE_08 
* TO CLIP NAME:  QEVL1HEIS061.NEW.01
214  EVL10512 V     C        13:42:54:08 13:42:54:23 01:03:29:14 01:03:30:03 
* FROM CLIP NAME:  EVL1051216A02_IP_0225.NEW.01.SUB.01 
* TO CLIP NAME:  EVL1051216A02_IP_0225.NEW.01.SUB.01
215  LOWER_TH V     C        01:00:21:19 01:00:23:25 01:03:29:26 01:03:32:03 
* FROM CLIP NAME:  LOWER THIRD.01.NEW.03
216  EVL10512 V     C        13:42:54:23 13:42:56:23 01:03:30:03 01:03:32:03 
* FROM CLIP NAME:  EVL1051216A02_IP_0225.NEW.01.SUB.01
217  T_QEVL1H V     C        00:05:27:01 00:05:28:05 01:03:32:03 01:03:33:06 
M2   T_QEVL1H       031.3                00:05:27:01 
* POND5_T_QEVL1HEIS264_HEISTS_LUFTHANSA HEIST_DEPARTURE LOUNGE / TERMINAL AT JFK A 
* IRPORT_23853928 
* FROM CLIP NAME:  T_QEVL1HEIS264.NEW.01
218  T_QEVL1H V     C        00:05:28:00 00:05:31:09 01:03:33:06 01:03:36:16 
M2   T_QEVL1H       031.3                00:05:28:00 
* POND5_T_QEVL1HEIS267_HEISTS_LUFTHANSA HEIST_TIME LAPSE - CARGO WORKERS AT JFK AI 
* RPORT_34463930 
* FROM CLIP NAME:  T_QEVL1HEIS267.NEW.01
219  T_QEVL1H V     C        00:10:14:26 00:10:16:28 01:03:36:16 01:03:38:18 
M2   T_QEVL1H       037.5                00:10:14:26 
* POND5_T_QEVL1HEIS274_HEISTS_LUFTHANSA HEIST_UNLOADING OF AIR CARGO, AIRPORT_5722 
* 3401 
* FROM CLIP NAME:  T_QEVL1HEIS274.NEW.01
220  T_QEVL1H V     C        00:05:29:21 00:05:30:23 01:03:38:18 01:03:39:18 
M2   T_QEVL1H       031.3                00:05:29:21 
* POND5_T_QEVL1HEIS260_HEISTS_LUFTHANSA HEIST_AIRPORT APRON AT JFK_23854809 
* FROM CLIP NAME:  T_QEVL1HEIS260.NEW.01
221  T_QEVL1H V     C        00:13:21:11 00:13:24:24 01:03:39:18 01:03:43:00 
M2   T_QEVL1H       037.5                00:13:21:11 
* NBC NEWS_T_QEVL1HEIS494_HEISTS_LUFTHANSA HEIST_NEWS ON LUFTHANSA ROBBERY, COPS P 
* RESS CONFERENCE, LOUIS WERNER ARREST, CARGO BUILDING INTERIOR EXTERIOR, AERIAL, 
* EXAMINE BROKEN FENCE, EMPLOYEE B-ROLL_MN16F8078-001_WO1.MOV 
* FROM CLIP NAME:  T_QEVL1HEIS494.NEW.01
222  T_QEVL1H V     C        00:13:53:02 00:13:59:15 01:03:43:00 01:03:49:13 
M2   T_QEVL1H       037.5                00:13:53:02 
* NBC NEWS_T_QEVL1HEIS494_HEISTS_LUFTHANSA HEIST_NEWS ON LUFTHANSA ROBBERY, COPS P 
* RESS CONFERENCE, LOUIS WERNER ARREST, CARGO BUILDING INTERIOR EXTERIOR, AERIAL, 
* EXAMINE BROKEN FENCE, EMPLOYEE B-ROLL_MN16F8078-001_WO1.MOV 
* FROM CLIP NAME:  T_QEVL1HEIS494.NEW.01
223  EVL1_HEI V     C        00:16:18:00 00:16:31:09 01:03:49:13 01:03:50:23 
M2   EVL1_HEI       373.1                00:16:18:00 
* POND5_T_QEVL1HEIS1135_HEISTS_ALL ACTS_AERIAL SHOT OF SUNSET OVER NEW YORK CITY S 
* KYLINE_40715637 
* FROM CLIP NAME:  T_QEVL1HEIS1135.NEW.01
224  EVL1_ARC V     C        01:34:04:17 01:34:06:12 01:03:50:23 01:03:52:06 
* GETTY IMAGES__QEVL1ARCH193_ARCHITECTS_ROBERT MOSES_TRAFFIC DRIVING ON 3RD AVENUE 
*  IN THE BRONX NEAR I95 LATE IN THE DAY AS PEDESTRIANS CROSS THE STREET NEW YORK 
* TRAFFIC_139642653 
* FROM CLIP NAME:  QEVL1ARCH193.NEW.01
225  EVL10512 V     C        13:35:35:04 13:35:37:04 01:03:52:06 01:03:54:06 
* FROM CLIP NAME:  EVL1051216A02_IP_0225.NEW.01.SUB.01
FCM: DROP FRAME
226  EVL1_HEI V     C        00:00:25:00 00:00:26:24 01:03:54:06 01:03:56:00 
M2   EVL1_HEI       037.5                00:00:25:00 
* AETN__QEVL1HEIS076_HEISTS_LUFTHANSA HEIST_MEN TALKING AROUND TABLE, MAKE DEAL_10 
* 6549_MOBSTERS_JIMMYTHEGENTBURKE_23 
* FROM CLIP NAME:  QEVL1HEIS076.NEW.01
FCM: NON-DROP FRAME
227  EVL10509 V     C        12:22:56:10 12:22:57:21 01:03:56:00 01:03:57:14 
* FROM CLIP NAME:  EVL1050916A02_IP_0161.NEW.01.SUB.01
228  T_QEVL1H V     C        00:10:07:23 00:10:09:02 01:03:57:14 01:03:58:21 
M2   T_QEVL1H       037.5                00:10:07:23 
* POND5_T_QEVL1HEIS261_HEISTS_LUFTHANSA HEIST_CABS/DROP-OFF AREA AT JFK AIRPORT_11 
* 356824 
* FROM CLIP NAME:  T_QEVL1HEIS261.NEW.01
229  T_QEVL1B V     C        00:00:03:00 00:00:05:04 01:03:58:21 01:04:00:25 
M2   T_QEVL1B       037.5                00:00:03:00 
* POND5_T_QEVL1BOMB009_BOMBS_THE UNABOMBER_CHICAGO -OLD FOOTAGE : THE CLASSIC ASTR 
* OJET AIRPLANE AT O'HARE AIRPORT FROM THE TRAVEL_52338642 
* FROM CLIP NAME:  T_QEVL1BOMB009.NEW.01
230  EVL10519 V     C        14:26:18:18 14:26:20:13 01:04:00:25 01:04:02:19 
* FROM CLIP NAME:  EVL1051916B02_275_0041.NEW.01
FCM: DROP FRAME
231  EVL1_HEI V     C        00:00:21:20 00:00:24:02 01:04:02:19 01:04:05:00 
M2   EVL1_HEI       037.5                00:00:21:20 
* AETN__QEVL1HEIS071_HEISTS_LUFTHANSA HEIST_MEN HAVING DISCUSSION AROUND TABLE, GE 
* STURING_106549_MOBSTERS_JIMMYTHEGENTBURKE_18 
* FROM CLIP NAME:  QEVL1HEIS071.NEW.01
FCM: NON-DROP FRAME
232  EVL1_HEI V     C        00:08:59:03 00:08:59:17 01:04:05:00 01:04:05:13 
M2   EVL1_HEI       037.5                00:08:59:03 
* AETN__QEVL1HEIS224_HEISTS_SISI JEWEL HEIST_AIRPORT PEOPLE MILLING AROUND, DARK L 
* IT, BLURRY FOCUS_MF9749_MVI_5541 
* FROM CLIP NAME:  QEVL1HEIS224.NEW.01
233  QEVL1HEI V     C        00:00:45:18 00:00:47:07 01:04:05:13 01:04:06:20 
* AETN__QEVL1HEIS224_HEISTS_SISI JEWEL HEIST_AIRPORT PEOPLE MILLING AROUND, DARK L 
* IT, BLURRY FOCUS_MF9749_MVI_5541 
* FROM CLIP NAME:  QEVL1HEIS339.NEW.01 
* TO CLIP NAME:  QEVL1HEIS224.NEW.01
234  QEVL1HEI V     C        00:00:47:07 00:00:47:09 01:04:06:20 01:04:06:23 
* GETTY IMAGES__QEVL1HEIS339_HEISTS_LUFTHANSA HEIST_CHAIN LINK FENCE AT AIRPORT_10 
* 3268440 
* FROM CLIP NAME:  QEVL1HEIS339.NEW.01
235  EVL1_HEI V     C        00:08:57:13 00:08:59:29 01:04:06:23 01:04:09:08 
M2   EVL1_HEI       037.5                00:08:57:13 
* GETTY IMAGES__QEVL1HEIS339_HEISTS_LUFTHANSA HEIST_CHAIN LINK FENCE AT AIRPORT_10 
* 3268440 
* FROM CLIP NAME:  QEVL1HEIS337.NEW.01 
* TO CLIP NAME:  QEVL1HEIS339.NEW.01
236  EVL10615 V     C        20:13:51:19 20:13:56:04 01:04:08:15 01:04:12:26 
* FROM CLIP NAME:  EVL1061516A05_275_0300.NEW.01.COPY.01
237  EVL1_HEI V     C        00:08:59:28 00:09:00:14 01:04:09:08 01:04:09:23 
M2   EVL1_HEI       037.5                00:08:59:28 
* GETTY IMAGES__QEVL1HEIS337_HEISTS_LUFTHANSA HEIST_CHAIN LINK FENCE AT AIRPORT_46 
* 0718321 
* FROM CLIP NAME:  QEVL1HEIS337.NEW.01
238  EVL10509 V     C        12:23:18:12 12:23:19:23 01:04:12:26 01:04:14:10 
* FROM CLIP NAME:  EVL1050916A02_IP_0161.NEW.01.SUB.01
239  SEVL1HEI V     C        01:00:06:11 01:00:10:15 01:04:14:10 01:04:18:15 
* AP IMAGES__SEVL1HEIS379_HEISTS_LUFTHANSA HEIST_JIMMY THE GENT BURKE CUFFED, LED 
* FROM GOVT VEHICLE_96041601315_HTTP://WWW.APIMAGES.COM/METADATA/INDEX/AP-A-NY-NYR 
* 15-OBIT-FILE-OBIT-BURKE/EBECFC2EC9E0DA11AF9F0014C2589DFB/41/0 
* FROM CLIP NAME:  SEVL1HEIS379.TIFF.NEW.01
240  T_QEVL1H V     C        00:13:57:16 00:13:57:28 01:04:18:15 01:04:18:26 
M2   T_QEVL1H       037.5                00:13:57:16 
* SHUTTERSTOCK_T_QEVL1HEIS852_HEISTS_DINNER SET GANG_MAN WALKING ALONE AT NIGHT IN 
*  THE PARK. SHADOW SILHOUETTE OF PERSON. SPOOKY NIGHT SCENERY BACKGROUND FEET AT 
* NIGHT APPROACHING HOUSE_12548714 
* FROM CLIP NAME:  T_QEVL1HEIS852.NEW.01
241  EVL1_HEI V     C        00:11:02:05 00:11:03:13 01:04:18:26 01:04:20:04 
M2   EVL1_HEI       037.5                00:11:02:05 
* SHUTTERSTOCK_T_QEVL1HEIS852_HEISTS_DINNER SET GANG_MAN WALKING ALONE AT NIGHT IN 
*  THE PARK. SHADOW SILHOUETTE OF PERSON. SPOOKY NIGHT SCENERY BACKGROUND FEET AT 
* NIGHT APPROACHING HOUSE_12548714 
* FROM CLIP NAME:  T_QEVL1HEIS445.NEW.01 
* TO CLIP NAME:  T_QEVL1HEIS852.NEW.01
242  EVL1_HEI V     C        00:11:03:12 00:11:05:07 01:04:20:04 01:04:21:28 
M2   EVL1_HEI       037.5                00:11:03:12 
* POND5_T_QEVL1HEIS445_HEISTS_LUFTHANSA HEIST_LARGE KEY RING WITH MANY KEYS ON BLA 
* CK BACKGROUND_42773033 
* FROM CLIP NAME:  T_QEVL1HEIS445.NEW.01
243  EVL1_HEI V     C        00:11:05:06 00:11:05:06 01:04:21:28 01:04:21:28 
243  EVL1_HEI V      010 00:08:29:01 00:08:29:14 01:04:21:28 01:04:22:10 
M2   EVL1_HEI       037.5                00:11:05:06 
M2   EVL1_HEI       037.5                00:08:29:01 
* POND5_T_QEVL1HEIS445_HEISTS_LUFTHANSA HEIST_LARGE KEY RING WITH MANY KEYS ON BLA 
* CK BACKGROUND_42773033 
* FROM CLIP NAME:  T_QEVL1HEIS445.NEW.01 
* TO CLIP NAME:  QEVL1HEIS160.NEW.01
244  EVL1_HEI V     C        00:08:29:13 00:08:33:19 01:04:22:10 01:04:26:15 
M2   EVL1_HEI       037.5                00:08:29:13 
* GETTY IMAGES__QEVL1HEIS160_HEISTS_LUFTHANSA HEIST_MAN HOLDING ALCOHOL DRINK, SMO 
* KING MARIJUANA CIGARETTE JOINT IN OTHER HAND, CLINKING GLASS_472814865 
* FROM CLIP NAME:  QEVL1HEIS160.NEW.01
245  EVL1_HEI V     C        00:06:07:06 00:06:07:11 01:04:26:15 01:04:26:20 
M2   EVL1_HEI       031.3                00:06:07:06 
* POND5_T_QEVL1HEIS535_HEISTS_LUFTHANSA_CLUB SCENE DISCO BALL_2800788 
* FROM CLIP NAME:  T_QEVL1HEIS535.NEW.01
246  EVL1_HEI V     C        00:06:07:10 00:06:07:17 01:04:26:20 01:04:26:28 
M2   EVL1_HEI       031.3                00:06:07:10 
* POND5_T_QEVL1HEIS535_HEISTS_LUFTHANSA_CLUB SCENE DISCO BALL_2800788 
* FROM CLIP NAME:  T_QEVL1HEIS535.NEW.01
247  EVL1_HEI V     C        00:06:09:23 00:06:10:10 01:04:26:28 01:04:27:11 
M2   EVL1_HEI       031.3                00:06:09:23 
* POND5_T_QEVL1HEIS535_HEISTS_LUFTHANSA_CLUB SCENE DISCO BALL_2800788 
* FROM CLIP NAME:  T_QEVL1HEIS535.NEW.01
248  EVL1_HEI V     C        00:06:12:07 00:06:12:20 01:04:27:11 01:04:27:26 
M2   EVL1_HEI       031.3                00:06:12:07 
* POND5_T_QEVL1HEIS535_HEISTS_LUFTHANSA_CLUB SCENE DISCO BALL_2800788 
* FROM CLIP NAME:  T_QEVL1HEIS535.NEW.01
249  EVL1_HEI V     C        00:06:21:05 00:06:21:18 01:04:27:26 01:04:28:10 
M2   EVL1_HEI       031.3                00:06:21:05 
* POND5_T_QEVL1HEIS535_HEISTS_LUFTHANSA_CLUB SCENE DISCO BALL_2800788 
* FROM CLIP NAME:  T_QEVL1HEIS535.NEW.01
250  EVL10512 V     C        12:57:35:04 12:57:39:09 01:04:28:10 01:04:32:16 
* FROM CLIP NAME:  EVL1051216B02_E0376.NEW.01.SUB.01
251  EVL1_HEI V     C        00:06:28:22 00:06:29:04 01:04:32:16 01:04:32:24 
M2   EVL1_HEI       031.3                00:06:28:22 
* POND5_T_QEVL1HEIS535_HEISTS_LUFTHANSA_CLUB SCENE DISCO BALL_2800788 
* FROM CLIP NAME:  T_QEVL1HEIS535.NEW.01
252  EVL1_HEI V     C        00:06:22:21 00:06:23:02 01:04:32:24 01:04:33:00 
M2   EVL1_HEI       031.3                00:06:22:21 
* POND5_T_QEVL1HEIS535_HEISTS_LUFTHANSA_CLUB SCENE DISCO BALL_2800788 
* FROM CLIP NAME:  T_QEVL1HEIS535.NEW.01
253  EVL1_HEI V     C        00:06:30:05 00:06:30:09 01:04:33:00 01:04:33:04 
M2   EVL1_HEI       031.3                00:06:30:05 
* POND5_T_QEVL1HEIS535_HEISTS_LUFTHANSA_CLUB SCENE DISCO BALL_2800788 
* FROM CLIP NAME:  T_QEVL1HEIS535.NEW.01
254  EVL1_HEI V     C        00:06:25:23 00:06:26:02 01:04:33:04 01:04:33:08 
M2   EVL1_HEI       031.3                00:06:25:23 
* POND5_T_QEVL1HEIS535_HEISTS_LUFTHANSA_CLUB SCENE DISCO BALL_2800788 
* FROM CLIP NAME:  T_QEVL1HEIS535.NEW.01
255  EVL1_HEI V     C        00:06:25:08 00:06:25:21 01:04:33:08 01:04:33:21 
M2   EVL1_HEI       031.3                00:06:25:08 
* POND5_T_QEVL1HEIS535_HEISTS_LUFTHANSA_CLUB SCENE DISCO BALL_2800788 
* FROM CLIP NAME:  T_QEVL1HEIS535.NEW.01
256  EVL10512 V     C        12:57:56:23 12:57:58:17 01:04:33:21 01:04:35:14 
* FROM CLIP NAME:  EVL1051216B02_E0376.NEW.01.SUB.01
257  EVL1_HEI V     C        00:11:36:23 00:11:37:27 01:04:35:14 01:04:36:16 
M2   EVL1_HEI       037.5                00:11:36:23 
* POND5_T_QEVL1HEIS536_HEISTS_LUFTHANSA_SNORTING COKE THROUGH $100_10884385 
* FROM CLIP NAME:  T_QEVL1HEIS536.NEW.01
258  EVL1_HEI V     C        00:04:44:23 00:04:46:17 01:04:36:16 01:04:38:08 
M2   EVL1_HEI       031.3                00:04:44:23 
* GETTY IMAGES__QEVL1HEIS149_HEISTS_LUFTHANSA HEIST_CLOSE UP OF A PERSON ROLLING A 
*  CANNABIS JOINT BEFORE LIGHTING IT AND SMOKING IT, MARIJUANA, AGAINST BLACK BACK 
* ROUND_519539886 
* FROM CLIP NAME:  QEVL1HEIS149.NEW.01
259  EVL10516 V     C        09:58:55:20 09:59:03:15 01:04:38:08 01:04:46:01 
* FROM CLIP NAME:  EVL1051716A01_IP_0258.NEW.01.SUB.01
260  EVL10517 V     C        09:28:41:05 09:28:42:23 01:04:46:01 01:04:47:24 
* FROM CLIP NAME:  EVL1051716B01_LL0241_1.NEW.01.SUB.01
261  EVL1_HEI V     C        00:06:18:20 00:06:19:19 01:04:47:24 01:04:48:21 
M2   EVL1_HEI       031.3                00:06:18:20 
* POND5_T_QEVL1HEIS535_HEISTS_LUFTHANSA_CLUB SCENE DISCO BALL_2800788 
* FROM CLIP NAME:  T_QEVL1HEIS535.NEW.01
262  EVL1_HEI V     C        00:10:56:10 00:10:57:15 01:04:48:21 01:04:49:26 
M2   EVL1_HEI       037.5                00:10:56:10 
* SHUTTERSTOCK_T_QEVL1HEIS358_HEISTS_LUFTHANSA HEIST_SEXY EROTIC FEMALE IN A HOTEL 
*  ROOM WITH OVERLAID ABSTRACT LIGHTING STRIPPERS_2279210 
* FROM CLIP NAME:  T_QEVL1HEIS358.NEW.01
263  EVL1_HEI V     C        00:10:57:15 00:10:57:19 01:04:49:26 01:04:50:00 
M2   EVL1_HEI       037.5                00:10:57:15 
* SHUTTERSTOCK_T_QEVL1HEIS358_HEISTS_LUFTHANSA HEIST_SEXY EROTIC FEMALE IN A HOTEL 
*  ROOM WITH OVERLAID ABSTRACT LIGHTING STRIPPERS_2279210 
* FROM CLIP NAME:  T_QEVL1HEIS358.NEW.01
264  EVL1_HEI V     C        00:10:57:18 00:10:57:23 01:04:50:00 01:04:50:04 
M2   EVL1_HEI       037.5                00:10:57:18 
* SHUTTERSTOCK_T_QEVL1HEIS358_HEISTS_LUFTHANSA HEIST_SEXY EROTIC FEMALE IN A HOTEL 
*  ROOM WITH OVERLAID ABSTRACT LIGHTING STRIPPERS_2279210 
* FROM CLIP NAME:  T_QEVL1HEIS358.NEW.01
265  EVL1_HEI V     C        00:10:58:28 00:10:59:05 01:04:50:04 01:04:50:10 
M2   EVL1_HEI       037.5                00:10:58:28 
* SHUTTERSTOCK_T_QEVL1HEIS358_HEISTS_LUFTHANSA HEIST_SEXY EROTIC FEMALE IN A HOTEL 
*  ROOM WITH OVERLAID ABSTRACT LIGHTING STRIPPERS_2279210 
* FROM CLIP NAME:  T_QEVL1HEIS358.NEW.01
266  EVL1_HEI V     C        00:10:57:28 00:10:58:03 01:04:50:10 01:04:50:14 
M2   EVL1_HEI       037.5                00:10:57:28 
* SHUTTERSTOCK_T_QEVL1HEIS358_HEISTS_LUFTHANSA HEIST_SEXY EROTIC FEMALE IN A HOTEL 
*  ROOM WITH OVERLAID ABSTRACT LIGHTING STRIPPERS_2279210 
* FROM CLIP NAME:  T_QEVL1HEIS358.NEW.01
267  EVL1_HEI V     C        00:10:46:13 00:10:46:22 01:04:50:14 01:04:50:21 
M2   EVL1_HEI       037.5                00:10:46:13 
* SHUTTERSTOCK_T_QEVL1HEIS358_HEISTS_LUFTHANSA HEIST_SEXY EROTIC FEMALE IN A HOTEL 
*  ROOM WITH OVERLAID ABSTRACT LIGHTING STRIPPERS_2279210 
* FROM CLIP NAME:  T_QEVL1HEIS358.NEW.01
268  EVL10509 V     C        12:26:17:01 12:26:18:01 01:04:50:21 01:04:51:21 
* FROM CLIP NAME:  EVL1050916A02_IP_0161.NEW.01.SUB.01
269  GFX_HEIS V     C        00:00:00:00 00:00:04:20 01:04:51:21 01:04:56:16 
* FROM CLIP NAME:  GFX_HEIS09_GND_02_V01.MOV
270  EVL10509 V     C        12:26:35:11 12:26:36:18 01:04:56:16 01:04:57:25 
* FROM CLIP NAME:  EVL1050916A02_IP_0161.NEW.01.SUB.01
271  EVL1_HEI V     C        00:12:52:00 00:12:52:13 01:04:57:25 01:04:58:08 
M2   EVL1_HEI       037.5                00:12:52:00 
* POND5_T_QEVL1HEIS693_HEISTS_LUFTHANSA HEIST_KEYS ON A TABLE_100278 
* FROM CLIP NAME:  T_QEVL1HEIS693.NEW.01
272  EVL1_HEI V     C        00:06:02:02 00:06:06:10 01:04:57:25 01:05:02:04 
M2   EVL1_HEI       031.3                00:06:02:02 
* POND5_T_QEVL1HEIS450_HEISTS_LUFTHANSA HEIST_HANDS MAKING A COPY OF THE KEY ON DU 
* PLICATOR MACHINE_54233020 
* FROM CLIP NAME:  T_QEVL1HEIS450.NEW.01
273  EVL1_HEI V     C        00:06:06:09 00:06:06:09 01:05:02:04 01:05:02:04 
273  EVL1_HEI V      008 00:06:29:11 00:06:29:20 01:05:02:04 01:05:02:14 
M2   EVL1_HEI       031.3                00:06:06:09 
M2   EVL1_HEI       031.3                00:06:29:11 
* POND5_T_QEVL1HEIS450_HEISTS_LUFTHANSA HEIST_HANDS MAKING A COPY OF THE KEY ON DU 
* PLICATOR MACHINE_54233020 
* FROM CLIP NAME:  T_QEVL1HEIS450.NEW.01 
* TO CLIP NAME:  T_QEVL1HEIS670.NEW.01
274  EVL1_HEI V     C        00:06:29:19 00:06:31:03 01:05:02:14 01:05:03:23 
M2   EVL1_HEI       031.3                00:06:29:19 
* POND5_T_QEVL1HEIS670_HEISTS_LUFTHANSA HEIST_DUMBO - NEW YORK - BROOKLYN BRIDGE, 
* MANHATTAN BRIDGE_11463400 
* FROM CLIP NAME:  T_QEVL1HEIS670.NEW.01
275  QEVL1HEI V     C        00:00:39:19 00:00:40:12 01:05:03:23 01:05:04:16 
* GETTY IMAGES__QEVL1HEIS231_HEISTS_DINNER SET GANG_SNOWY STREET IN LONG ISLAND, N 
* EW YORK, TRUCK ONLY CAR ON ROAD_98950716 
* FROM CLIP NAME:  QEVL1HEIS231.NEW.01
276  EVL1_HEI V     C        00:00:36:24 00:00:37:24 01:05:04:16 01:05:05:16 
* GETTY IMAGES__QEVL1HEIS231_HEISTS_DINNER SET GANG_SNOWY STREET IN LONG ISLAND, N 
* EW YORK, TRUCK ONLY CAR ON ROAD_98950716 
* FROM CLIP NAME:  QEVL1HEIS229.NEW.01 
* TO CLIP NAME:  QEVL1HEIS231.NEW.01
277  EVL1_HEI V     C        00:00:37:24 00:00:40:12 01:05:05:16 01:05:08:05 
* GETTY IMAGES__QEVL1HEIS229_HEISTS_DINNER SET GANG_SNOWY STREET IN LONG ISLAND, N 
* EW YORK, WINTER_98950648 
* FROM CLIP NAME:  QEVL1HEIS229.NEW.01
278  EVL1_HEI V     C        00:05:55:15 00:05:57:03 01:05:08:05 01:05:09:19 
M2   EVL1_HEI       031.3                00:05:55:15 
* FRAMEPOOL_T_QEVL1HEIS322_HEISTS_SISI JEWEL HEIST_VIENNA, AUSTRIA AIRPLANE TAKING 
*  OFF IN SNOW, WINTER_934-250-546 
* FROM CLIP NAME:  T_QEVL1HEIS322.NEW.01
279     BL    V     C        00:00:00:00 00:00:00:00 01:05:09:14 01:05:09:14 
279  MORTICE_ V      008 01:02:19:21 01:02:20:05 01:05:09:14 01:05:09:24 
* TO CLIP NAME:  MORTICE_V03 WITH ALPHA_V03.TIF
280  SEVL1HEI V     C        01:00:04:07 01:00:09:17 01:05:09:19 01:05:15:01 
* GETTY IMAGES__SEVL1HEIS059_HEISTS_LUFTHANSA HEIST_JIMMY THE GENT BURKE BY DOORWA 
* Y OF SOUTH SIDE INN_97279721_HTTP://WWW.GETTYIMAGES.COM/LICENSE/97279721 
* FROM CLIP NAME:  SEVL1HEIS059.TIFF.NEW.01
281  MORTICE_ V     C        01:02:20:05 01:02:25:11 01:05:09:24 01:05:15:01 
* FROM CLIP NAME:  MORTICE_V03 WITH ALPHA_V03.TIF
282  EVL1_HEI V     C        00:16:26:06 00:16:28:23 01:05:15:01 01:05:17:18 
M2   EVL1_HEI       037.5                00:16:26:06 
* POND5_T_QEVL1HEIS1148_HEISTS_LUFTHANSA HEIST_CLOSEUP DIALING OLD PHONE_782176 
* FROM CLIP NAME:  T_QEVL1HEIS1148.NEW.01
283  EVL10615 V     C        18:13:49:17 18:13:53:05 01:05:15:01 01:05:18:16 
* FROM CLIP NAME:  EVL1061516A05_275_0261.NEW.01.COPY.01
284  T_QEVL1H V     C        00:02:54:23 00:02:55:11 01:05:17:18 01:05:18:00 
* POND 5 _T_QEVL1HEIS390_HEISTS_LUFTHANSA HEIST_ANSWERING PHONE_25039655 
* FROM CLIP NAME:  T_QEVL1HEIS390.NEW.01
285  EVL10510 V     C        10:36:21:20 10:36:30:02 01:05:18:00 01:05:26:08 
* FROM CLIP NAME:  EVL1051016B01_E0360.NEW.01
286     AX    V     C        01:00:00:00 01:00:00:15 01:05:18:16 01:05:19:05 
* TO CLIP NAME:  EVL1061516A05_275_0261.NEW.01.COPY.01
287  EVL10525 V     C        11:02:23:16 11:02:24:07 01:05:19:05 01:05:19:24 
* FROM CLIP NAME:  EVL1052516A02_E020C002_160525Y3.NEW.01.SUB.01 
* TO CLIP NAME:  EVL1052516A02_E020C002_160525Y3.NEW.01.SUB.01
288  EVL10525 V     C        11:02:24:07 11:02:29:08 01:05:19:24 01:05:24:25 
* FROM CLIP NAME:  EVL1052516A02_E020C002_160525Y3.NEW.01.SUB.01
289  LOWER_TH V     C        01:00:16:01 01:00:20:27 01:05:19:29 01:05:24:25 
* FROM CLIP NAME:  LOWER THIRD.04.NEW.01
290  EVL10525 V     C        11:02:29:08 11:02:30:18 01:05:24:25 01:05:26:08 
* FROM CLIP NAME:  EVL1052516B02_B0050.COPY.01.NEW.01.SUB.01
FCM: DROP FRAME
291  EVL1_HEI V     C        00:00:27:15 00:00:29:24 01:05:26:08 01:05:28:16 
M2   EVL1_HEI       037.5                00:00:27:15 
* AETN__QEVL1HEIS082_HEISTS_LUFTHANSA HEIST_2 GUYS MAKE DEAL IN RESTAURANT OVER ME 
* AL; CIGARETTE; PAY PHONE_106549_MOBSTERS_JIMMYTHEGENTBURKE_29 
* FROM CLIP NAME:  QEVL1HEIS082.NEW.01
FCM: NON-DROP FRAME
292  EVL10512 V     C        13:44:09:06 13:44:12:19 01:05:28:16 01:05:32:03 
* FROM CLIP NAME:  EVL1051216A02_IP_0225.NEW.01.SUB.01
293  EVL10512 V     C        13:14:00:19 13:14:04:00 01:05:32:03 01:05:35:09 
* FROM CLIP NAME:  EVL1051216B02_E0377.NEW.01.SUB.01
294  T_QEVL1A V     C        00:02:16:02 00:02:18:12 01:05:35:09 01:05:37:18 
M2   T_QEVL1A       037.5                00:02:16:02 
* POND5_T_QEVL1ARCH150_ARCHITECTS_ROBERT MOSES_TIMELAPSE OF THE FULL MOON RISING O 
* VER THE EAST RIVER AND THE TRIBOROUGH BRIDGE IN NEW YORK CITY_575006 
* FROM CLIP NAME:  T_QEVL1ARCH150.NEW.01
295  EVL1_HEI V     C        00:12:42:00 00:12:43:00 01:05:37:18 01:05:38:18 
M2   EVL1_HEI       037.5                00:12:42:00 
* POND5_T_QEVL1ARCH150_ARCHITECTS_ROBERT MOSES_TIMELAPSE OF THE FULL MOON RISING O 
* VER THE EAST RIVER AND THE TRIBOROUGH BRIDGE IN NEW YORK CITY_575006 
* FROM CLIP NAME:  T_QEVL1HEIS678.NEW.01 
* TO CLIP NAME:  T_QEVL1ARCH150.NEW.01
296  EVL1_HEI V     C        00:12:43:00 00:12:48:24 01:05:38:18 01:05:44:11 
M2   EVL1_HEI       037.5                00:12:43:00 
* POND5_T_QEVL1HEIS678_HEISTS_LUFTHANSA HEIST_VAN-ARRIVING-STORAGE-UNIT-NEAR-BROOK 
* LYN-BRIDGE-NIGHT_11350595 
* FROM CLIP NAME:  T_QEVL1HEIS678.NEW.01
FCM: DROP FRAME
297  GFX_3D_M V     C        01:00:31:00 01:00:34:14 01:05:44:11 01:05:47:25 
* FROM CLIP NAME:  GFX 3D MODEL FO JFK TRACKING VA.02
298  EVL1_HEI V     C        00:01:12:00 00:01:13:13 01:05:47:25 01:05:49:08 
M2   EVL1_HEI       037.5                00:01:12:00 
* AETN__QEVL1HEIS257_HEISTS_LUFTHANSA HEIST_VAN WYCK EXPRESSWAY-JFK AIRPORT SIGN - 
* - LUFTHANSA CARGO BUILDING_106549_MOBSTERS_JIMMYTHEGENTBURKE_01 
* FROM CLIP NAME:  QEVL1HEIS257.NEW.01
299  EVL1_HEI V     C        00:00:12:17 00:00:14:15 01:05:49:08 01:05:51:05 
M2   EVL1_HEI       037.5                00:00:12:17 
* AETN__QEVL1HEIS060_HEISTS_LUFTHANSA HEIST_MAN BEATING MAN UP; MAN WALKS TOWARD C 
* AMERA THREATENINGLY_106549_MOBSTERS_JIMMYTHEGENTBURKE_07 
* FROM CLIP NAME:  QEVL1HEIS060.NEW.01
300  EVL1_HEI V     C        00:00:15:12 00:00:17:00 01:05:51:05 01:05:52:23 
M2   EVL1_HEI       037.5                00:00:15:12 
* AETN__QEVL1HEIS060_HEISTS_LUFTHANSA HEIST_MAN BEATING MAN UP; MAN WALKS TOWARD C 
* AMERA THREATENINGLY_106549_MOBSTERS_JIMMYTHEGENTBURKE_07 
* FROM CLIP NAME:  QEVL1HEIS060.NEW.01
FCM: NON-DROP FRAME
301  QEVL1HEI V     C        00:01:02:20 00:01:05:16 01:05:52:23 01:05:55:01 
* GETTY IMAGES__QEVL1HEIS441_HEISTS_LUFTHANSA HEIST_PUNCHING IN NUMBERS ON DIGITAL 
*  SAFE VAULT, UNLOCK _MR_00095458 
* FROM CLIP NAME:  QEVL1HEIS441.NEW.01
302  EVL16101 V     C        17:00:33:11 17:00:35:17 01:05:55:01 01:05:57:09 
* FROM CLIP NAME:  EVL161016A05_275_0190.COPY.01.NEW.01
FCM: DROP FRAME
303  EVL1_HEI V     C        00:00:56:08 00:00:58:29 01:05:57:09 01:05:59:29 
M2   EVL1_HEI       037.5                00:00:56:08 
* AETN__QEVL1HEIS198_HEISTS_LUFTHANSA HEIST_ROBBER WITH MASK HOLDING MONEY, RECRE 
* OF ROBBERY WITH PEOPLE LAYING ON FLOOR GUN POINTED AT THEM_70462_GANGLAND_ARMYOF 
* HATE_010223 
* FROM CLIP NAME:  QEVL1HEIS198.NEW.01
FCM: NON-DROP FRAME
304  EVL10509 V     C        12:24:16:23 12:24:20:23 01:05:59:29 01:06:03:29 
* FROM CLIP NAME:  EVL1050916A02_IP_0161.NEW.01.SUB.01
305     AX    V     C        01:00:00:00 01:00:00:15 01:06:03:29 01:06:04:18 
* TO CLIP NAME:  EVL1050916A02_IP_0161.NEW.01.SUB.01
306  EVL10615 V     C        17:40:50:04 17:40:50:19 01:06:04:18 01:06:05:06 
* FROM CLIP NAME:  EVL1061516A05_275_0247.NEW.01.COPY.01 
* TO CLIP NAME:  EVL1061516A05_275_0247.NEW.01.COPY.01
307  EVL10615 V     C        17:40:50:19 17:40:52:23 01:06:05:06 01:06:07:11 
* FROM CLIP NAME:  EVL1061516A05_275_0247.NEW.01.COPY.01
308  T_QEVL1H V     C        00:28:37:13 00:28:39:29 01:06:07:11 01:06:09:26 
M2   T_QEVL1H       037.5                00:28:37:13 
* NBC NEWS_T_QEVL1HEIS494_HEISTS_LUFTHANSA HEIST_NEWS ON LUFTHANSA ROBBERY, COPS P 
* RESS CONFERENCE, LOUIS WERNER ARREST, CARGO BUILDING INTERIOR EXTERIOR, AERIAL, 
* EXAMINE BROKEN FENCE, EMPLOYEE B-ROLL_MN16F8078-001_WO1.MOV 
* FROM CLIP NAME:  T_QEVL1HEIS494.NEW.01
309  T_QEVL1H V     C        00:28:04:11 00:28:08:27 01:06:09:26 01:06:14:11 
M2   T_QEVL1H       037.5                00:28:04:11 
* NBC NEWS_T_QEVL1HEIS494_HEISTS_LUFTHANSA HEIST_NEWS ON LUFTHANSA ROBBERY, COPS P 
* RESS CONFERENCE, LOUIS WERNER ARREST, CARGO BUILDING INTERIOR EXTERIOR, AERIAL, 
* EXAMINE BROKEN FENCE, EMPLOYEE B-ROLL_MN16F8078-001_WO1.MOV 
* FROM CLIP NAME:  T_QEVL1HEIS494.NEW.01
310  T_QEVL1H V     C        00:30:43:06 00:30:45:29 01:06:14:11 01:06:17:04 
M2   T_QEVL1H       037.5                00:30:43:06 
* NBC NEWS_T_QEVL1HEIS494_HEISTS_LUFTHANSA HEIST_NEWS ON LUFTHANSA ROBBERY, COPS P 
* RESS CONFERENCE, LOUIS WERNER ARREST, CARGO BUILDING INTERIOR EXTERIOR, AERIAL, 
* EXAMINE BROKEN FENCE, EMPLOYEE B-ROLL_MN16F8078-001_WO1.MOV 
* FROM CLIP NAME:  T_QEVL1HEIS494.NEW.01
312  EVL_TITL V     C        01:01:54:23 01:02:00:20 01:06:17:04 01:06:23:00 
* FROM CLIP NAME:  EVL_TITLE_FRAME_05.TIF
311  UNTITLED V     C        01:00:27:19 01:00:33:15 01:06:17:04 01:06:23:00 
* FROM CLIP NAME:  UNTITLED.06
313  GFX_HEIS V     C        00:00:09:23 00:00:10:00 01:06:23:00 01:06:27:04 
M2   GFX_HEIS      -029.1                00:00:09:23 
* FROM CLIP NAME:  GFX_HEIS15_GND_03_V01.MOV
314  T_QEVL1H V     C        00:10:41:05 00:10:45:00 01:06:27:04 01:06:30:29 
M2   T_QEVL1H       037.5                00:10:41:05 
* POND 5_T_QEVL1HEIS333_HEISTS_LUFTHANSA HEIST_THIEF GOES THRU FILING CABINET PAPE 
* RS_47762153 
* FROM CLIP NAME:  T_QEVL1HEIS333.NEW.01
FCM: DROP FRAME
315  EVL1_HEI V     C        00:00:23:00 00:00:31:19 01:06:30:29 01:06:39:18 
M2   EVL1_HEI       037.5                00:00:23:00 
* AETN__QEVL1HEIS078_HEISTS_LUFTHANSA HEIST_ROBBER POINTS GUN; CU OF HANDS TIED BE 
* HIND BACK; MAN REACTS TO GUN POINTED AT HIM; BOXES_106549_MOBSTERS_JIMMYTHEGENTB 
* URKE_25 
* FROM CLIP NAME:  QEVL1HEIS078.NEW.01
FCM: NON-DROP FRAME
316  EVL10516 V     C        10:00:52:02 10:00:57:01 01:06:39:18 01:06:44:16 
* FROM CLIP NAME:  EVL1051716A01_IP_0258.NEW.01.SUB.01
317  EVL10516 V     C        10:00:57:01 10:00:57:09 01:06:44:16 01:06:44:26 
* FROM CLIP NAME:  EVL1051716A01_IP_0258.NEW.01.SUB.01
318  EVL1_HEI V     C        00:10:40:01 00:10:44:10 01:06:44:26 01:06:49:05 
M2   EVL1_HEI       037.5                00:10:40:01 
* POND 5_T_QEVL1HEIS334_HEISTS_LUFTHANSA HEIST_GLOVED HANDS WITH GUN AND FLASHLIGH 
* T AIMING_45435029 
* FROM CLIP NAME:  T_QEVL1HEIS334.NEW.01
319  EVL10517 V     C        09:30:29:21 09:30:32:02 01:06:49:05 01:06:51:11 
* FROM CLIP NAME:  EVL1051716B01_LL0241_1.NEW.01.SUB.01
320  EVL1_HEI V     C        00:00:56:11 00:00:58:04 01:06:51:11 01:06:52:23 
* GETTY IMAGES__QEVL1HEIS353_HEISTS_LUFTHANSA HEIST_POV ROBBER HOLDING GUN TO FACE 
* , FOCUS FROM FACE TO GUN_145725619 
* FROM CLIP NAME:  QEVL1HEIS353.NEW.01
FCM: DROP FRAME
321  EVL1_HEI V     C        00:00:11:20 00:00:12:22 01:06:52:23 01:06:54:29 
M2   EVL1_HEI       017.5                00:00:11:20 
* AETN__QEVL1HEIS063_HEISTS_LUFTHANSA HEIST_SHIPPING TRUCK DRIVES UP /  MEN WITH G 
* UNS LOOKS THREATENING_106549_MOBSTERS_JIMMYTHEGENTBURKE_10 
* FROM CLIP NAME:  QEVL1HEIS063.NEW.01
322  EVL1_HEI V     C        00:00:15:00 00:00:16:03 01:06:54:29 01:06:56:01 
M2   EVL1_HEI       037.5                00:00:15:00 
* AETN__QEVL1HEIS063_HEISTS_LUFTHANSA HEIST_SHIPPING TRUCK DRIVES UP /  MEN WITH G 
* UNS LOOKS THREATENING_106549_MOBSTERS_JIMMYTHEGENTBURKE_10 
* FROM CLIP NAME:  QEVL1HEIS063.NEW.01
FCM: NON-DROP FRAME
323  EVL10519 V     C        14:29:58:04 14:30:00:16 01:06:56:01 01:06:58:16 
* FROM CLIP NAME:  EVL1051916B02_275_0042.NEW.01
324  EVL10519 V     C        14:30:00:16 14:30:00:16 01:06:58:16 01:06:58:16 
324  EVL10615 V      008 18:02:44:17 18:02:45:01 01:06:58:16 01:06:58:26 
* FROM CLIP NAME:  EVL1051916B02_275_0042.NEW.01 
* TO CLIP NAME:  EVL1061516A05_275_0254.NEW.01.COPY.01
325  EVL10615 V     C        18:02:45:01 18:02:46:08 01:06:58:26 01:07:00:05 
* FROM CLIP NAME:  EVL1061516A05_275_0254.NEW.01.COPY.01
326  EVL10615 V     C        18:02:49:23 18:02:51:14 01:07:00:05 01:07:01:24 
* FROM CLIP NAME:  EVL1061516A05_275_0254.NEW.01.COPY.01
327  EVL10509 V     C        12:27:54:11 12:27:56:22 01:07:01:24 01:07:04:08 
* FROM CLIP NAME:  EVL1050916A02_IP_0161.NEW.01.SUB.01
328  EVL1_HEI V     C        00:16:28:16 00:16:29:17 01:07:04:08 01:07:05:08 
M2   EVL1_HEI       037.5                00:16:28:16 
* POND5_T_QEVL1HEIS1150_HEISTS_LUFTHANSA HEIST_ROTARY PHONE CLOSE UP DIAL_12274320 
* FROM CLIP NAME:  T_QEVL1HEIS1150.NEW.01
329  EVL1_HEI V     C        00:16:29:16 00:16:29:16 01:07:05:08 01:07:05:08 
329  EVL10519 V      030 14:30:19:02 14:30:20:08 01:07:05:08 01:07:06:15 
M2   EVL1_HEI       037.5                00:16:29:16 
* POND5_T_QEVL1HEIS1150_HEISTS_LUFTHANSA HEIST_ROTARY PHONE CLOSE UP DIAL_12274320 
* FROM CLIP NAME:  T_QEVL1HEIS1150.NEW.01 
* TO CLIP NAME:  EVL1051916B02_275_0042.NEW.01
330  EVL10519 V     C        14:30:20:08 14:30:23:02 01:07:06:15 01:07:09:08 
* FROM CLIP NAME:  EVL1051916B02_275_0042.NEW.01
331  QEVL1HEI V     C        00:00:50:08 00:00:51:20 01:07:09:08 01:07:10:14 
* GETTY IMAGES__QEVL1HEIS347_HEISTS_LUFTHANSA HEIST_CU BLACK GLOVED HAND FIRING A 
* GUN TOWARDS THE GROUND_MR_00082288 
* FROM CLIP NAME:  QEVL1HEIS347.NEW.01
332  EVL10519 V     C        14:54:09:15 14:54:10:11 01:07:10:14 01:07:11:09 
* GETTY IMAGES__QEVL1HEIS347_HEISTS_LUFTHANSA HEIST_CU BLACK GLOVED HAND FIRING A 
* GUN TOWARDS THE GROUND_MR_00082288 
* FROM CLIP NAME:  EVL1051916A02_IP_0284.NEW.01 
* TO CLIP NAME:  QEVL1HEIS347.NEW.01
333  EVL10519 V     C        14:54:10:11 14:54:12:01 01:07:11:09 01:07:12:26 
* FROM CLIP NAME:  EVL1051916A02_IP_0284.NEW.01
334  EVL10519 V     C        15:26:04:12 15:26:06:01 01:07:12:26 01:07:14:13 
* FROM CLIP NAME:  EVL1051916A02_IP_0296.NEW.01
335  EVL10519 V     C        15:24:18:21 15:24:20:19 01:07:14:13 01:07:16:10 
* FROM CLIP NAME:  EVL1051916A02_IP_0295.NEW.01
336  LOWER_TH V     C        01:00:19:29 01:00:22:29 01:07:16:10 01:07:19:10 
* FROM CLIP NAME:  LOWER THIRD.04
337  EVL10509 V     C        09:57:36:03 09:57:39:03 01:07:16:10 01:07:19:10 
* FROM CLIP NAME:  EVL1050916B01_E0344.NEW.01.SUB.01
338  EVL10519 V     C        15:02:05:18 15:02:07:19 01:07:19:10 01:07:21:11 
* FROM CLIP NAME:  EVL1051916B02_275_0047.NEW.01
339  EVL10519 V     C        15:01:47:14 15:01:48:20 01:07:21:11 01:07:22:19 
* FROM CLIP NAME:  EVL1051916B02_275_0047.NEW.01
340  EVL10519 V     C        15:17:54:05 15:17:54:16 01:07:22:19 01:07:23:03 
* FROM CLIP NAME:  EVL1051916A02_IP_0291.NEW.01 
* TO CLIP NAME:  EVL1051916B02_275_0047.NEW.01
341  EVL10519 V     C        15:17:54:16 15:17:56:01 01:07:23:03 01:07:24:14 
* FROM CLIP NAME:  EVL1051916A02_IP_0291.NEW.01
342  EVL10519 V     C        15:27:40:05 15:27:40:06 01:07:24:14 01:07:25:24 
M2   EVL10519      -029.1                15:27:40:05 
* FROM CLIP NAME:  EVL1051916A02_IP_0297.NEW.01
343  EVL10519 V     C        15:28:21:09 15:28:22:09 01:07:25:24 01:07:26:24 
* FROM CLIP NAME:  EVL1051916A02_IP_0298.NEW.01
344  EVL10519 V     C        15:24:20:03 15:24:20:16 01:07:26:24 01:07:27:10 
* FROM CLIP NAME:  EVL1051916A02_IP_0295.NEW.01
345     AX    V     C        01:00:00:00 01:00:00:02 01:07:27:10 01:07:27:13 
* TO CLIP NAME:  EVL1051916A02_IP_0295.NEW.01
346  EVL10519 V     C        15:24:22:09 15:24:22:11 01:07:27:13 01:07:27:15 
* FROM CLIP NAME:  EVL1051916A02_IP_0295.NEW.01 
* TO CLIP NAME:  EVL1051916A02_IP_0295.NEW.01
347  EVL10519 V     C        15:24:22:11 15:24:23:14 01:07:27:15 01:07:28:19 
* FROM CLIP NAME:  EVL1051916A02_IP_0295.NEW.01
349  EVL_TITL V     C        01:01:54:23 01:02:13:23 01:07:28:19 01:07:47:19 
* FROM CLIP NAME:  EVL_TITLE_FRAME_05.TIF
FCM: DROP FRAME
348  DIAGRAM_ V     C        01:00:31:03 01:00:50:02 01:07:28:19 01:07:47:19 
* FROM CLIP NAME:  DIAGRAM OF VAULT.01
FCM: NON-DROP FRAME
351  EVL10510 V     C        08:53:00:16 08:53:08:21 01:07:47:19 01:07:55:25 
* FROM CLIP NAME:  EVL1051016A01_IP_0165.NEW.01
350  EVL10525 V     C        11:49:07:00 11:49:15:05 01:07:47:19 01:07:55:25 
* FROM CLIP NAME:  EVL1052516A02_E020C004_160525MD.NEW.01.SUB.01
FCM: DROP FRAME
352  EVL1_HEI V     C        00:00:02:11 00:00:04:08 01:07:55:25 01:07:57:21 
M2   EVL1_HEI       037.5                00:00:02:11 
* AETN__QEVL1HEIS055_HEISTS_LUFTHANSA HEIST_MAN BEING HELD UP WITH GUN / GATES RAI 
* SE TO SHOW BOXES_106549_MOBSTERS_JIMMYTHEGENTBURKE_02 
* FROM CLIP NAME:  QEVL1HEIS055.NEW.01
353  EVL1_HEI V     C        00:00:37:07 00:00:39:28 01:07:57:21 01:08:00:11 
M2   EVL1_HEI       037.5                00:00:37:07 
* AETN__QEVL1HEIS078_HEISTS_LUFTHANSA HEIST_ROBBER POINTS GUN; CU OF HANDS TIED BE 
* HIND BACK; MAN REACTS TO GUN POINTED AT HIM; BOXES_106549_MOBSTERS_JIMMYTHEGENTB 
* URKE_25 
* FROM CLIP NAME:  QEVL1HEIS078.NEW.01
354  EVL1_HEI V     C        00:00:39:27 00:00:40:08 01:08:00:11 01:08:00:21 
M2   EVL1_HEI       037.5                00:00:39:27 
* AETN__QEVL1HEIS078_HEISTS_LUFTHANSA HEIST_ROBBER POINTS GUN; CU OF HANDS TIED BE 
* HIND BACK; MAN REACTS TO GUN POINTED AT HIM; BOXES_106549_MOBSTERS_JIMMYTHEGENTB 
* URKE_25 
* FROM CLIP NAME:  QEVL1HEIS078.NEW.01
355  EVL1_HEI V     C        00:00:40:07 00:00:40:07 01:08:00:21 01:08:00:21 
FCM: NON-DROP FRAME 
355  T_QEVL1H V      012 00:05:32:23 00:05:33:10 01:08:00:21 01:08:01:06 
M2   EVL1_HEI       037.5                00:00:40:07 
M2   T_QEVL1H       027.3                00:05:32:23 
* AETN__QEVL1HEIS078_HEISTS_LUFTHANSA HEIST_ROBBER POINTS GUN; CU OF HANDS TIED BE 
* HIND BACK; MAN REACTS TO GUN POINTED AT HIM; BOXES_106549_MOBSTERS_JIMMYTHEGENTB 
* URKE_25 
* FROM CLIP NAME:  QEVL1HEIS078.NEW.01 
* TO CLIP NAME:  T_QEVL1HEIS273.NEW.01
356  T_QEVL1H V     C        00:05:33:08 00:05:37:00 01:08:01:06 01:08:05:11 
M2   T_QEVL1H       027.3                00:05:33:08 
* POND5_T_QEVL1HEIS273_HEISTS_LUFTHANSA HEIST_WAREHOUSE BOXES PILED HIGH_21813472 
* FROM CLIP NAME:  T_QEVL1HEIS273.NEW.01
357  EVL10509 V     C        12:29:24:18 12:29:26:16 01:08:05:11 01:08:07:09 
* FROM CLIP NAME:  EVL1050916A02_IP_0161.NEW.01.SUB.01
358  EVL10527 V     C        17:22:44:10 17:22:46:02 01:08:07:09 01:08:08:19 
* FROM CLIP NAME:  EVL1052716A04_IP_ACAM0474.NEW.01
359  EVL10527 V     C        17:22:46:02 17:22:47:02 01:08:08:19 01:08:09:13 
* FROM CLIP NAME:  EVL1052716A04_IP_ACAM0474.NEW.01
360  EVL10527 V     C        17:15:03:08 17:15:05:10 01:08:09:13 01:08:11:03 
* FROM CLIP NAME:  EVL1052716A04_IP_ACAM0473.NEW.01
FCM: DROP FRAME
361  EVL1_HEI V     C        00:00:26:20 00:00:28:23 01:08:11:03 01:08:13:05 
M2   EVL1_HEI       037.5                00:00:26:20 
* AETN__QEVL1HEIS079_HEISTS_LUFTHANSA HEIST_“FREIGHT ONLY” SIGN; MEN PASSING SHIPP 
* ING BOXES TO EACH OTHER_106549_MOBSTERS_JIMMYTHEGENTBURKE_26 
* FROM CLIP NAME:  QEVL1HEIS079.NEW.01
362  EVL1_HEI V     C        00:00:31:15 00:00:33:28 01:08:13:05 01:08:15:18 
M2   EVL1_HEI       037.5                00:00:31:15 
* AETN__QEVL1HEIS079_HEISTS_LUFTHANSA HEIST_“FREIGHT ONLY” SIGN; MEN PASSING SHIPP 
* ING BOXES TO EACH OTHER_106549_MOBSTERS_JIMMYTHEGENTBURKE_26 
* FROM CLIP NAME:  QEVL1HEIS079.NEW.01
363  EVL1_HEI V     C        00:00:31:12 00:00:33:15 01:08:15:18 01:08:17:20 
M2   EVL1_HEI       037.5                00:00:31:12 
* AETN__QEVL1HEIS081_HEISTS_LUFTHANSA HEIST_MEN TAKE STACK OF SHIPPING BOXES_10654 
* 9_MOBSTERS_JIMMYTHEGENTBURKE_28 
* FROM CLIP NAME:  QEVL1HEIS081.NEW.01
364  EVL1_HEI V     C        00:00:04:08 00:00:07:13 01:08:17:20 01:08:20:24 
M2   EVL1_HEI       037.5                00:00:04:08 
* AETN__QEVL1HEIS057_HEISTS_LUFTHANSA HEIST_BOXES BEING LOADED INTO VAN_106549_MOB 
* STERS_JIMMYTHEGENTBURKE_04 
* FROM CLIP NAME:  QEVL1HEIS057.NEW.01
FCM: NON-DROP FRAME
365  EVL16101 V     C        17:02:32:22 17:02:34:09 01:08:20:24 01:08:22:08 
* FROM CLIP NAME:  EVL161016A05_275_0191.COPY.01.NEW.01
366  EVL16101 V     C        17:02:33:17 17:02:33:22 01:08:22:08 01:08:22:14 
* FROM CLIP NAME:  EVL161016A05_275_0191.COPY.01.NEW.01
367  EVL16101 V     C        17:02:33:22 17:02:34:20 01:08:22:14 01:08:23:11 
* FROM CLIP NAME:  EVL161016A05_275_0191.COPY.01.NEW.01
FCM: DROP FRAME
368  EVL1_HEI V     C        00:00:05:11 00:00:07:17 01:08:23:11 01:08:25:16 
M2   EVL1_HEI       037.5                00:00:05:11 
* AETN__QEVL1HEIS058_HEISTS_LUFTHANSA HEIST_POV SHOT AS CAR DRIVES THRU NY / LUFTH 
* ANSA BUILDING_106549_MOBSTERS_JIMMYTHEGENTBURKE_05 
* FROM CLIP NAME:  QEVL1HEIS058.NEW.01
FCM: NON-DROP FRAME
369  EVL1_HEI V     C        00:01:01:06 00:01:06:10 01:08:25:16 01:08:27:14 
M2   EVL1_HEI       063.9                00:01:01:06 
* GETTY IMAGES__QEVL1HEIS395_HEISTS_LUFTHANSA HEIST_CU REAR TIRES OF LARGE TRUCK S 
* PINNING AND MOVING AWAY_99032188 
* FROM CLIP NAME:  QEVL1HEIS395.NEW.01
FCM: DROP FRAME
370  EVL1_HEI V     C        00:00:07:16 00:00:09:27 01:08:27:14 01:08:29:24 
M2   EVL1_HEI       037.5                00:00:07:16 
* AETN__QEVL1HEIS058_HEISTS_LUFTHANSA HEIST_POV SHOT AS CAR DRIVES THRU NY / LUFTH 
* ANSA BUILDING_106549_MOBSTERS_JIMMYTHEGENTBURKE_05 
* FROM CLIP NAME:  QEVL1HEIS058.NEW.01
FCM: NON-DROP FRAME
371  EVL1_HEI V     C        00:03:23:10 00:03:25:05 01:08:29:24 01:08:31:19 
* POND5_T_QEVL1HEIS664_HEISTS_LUFTHANSA HEIST_NEW-YORK-CITY-NIGHT-DRIVE-TIME-LAPSE 
* -BROOKLYN-MANHATTAN-NJ_33007377 
* FROM CLIP NAME:  T_QEVL1HEIS664.NEW.01
372  SEVL1HEI V     C        01:00:02:05 01:00:07:00 01:08:31:19 01:08:36:14 
* JUSTICE DEPT__SEVL1HEIS930_HEISTS_LUFTHANSA HEIST_GASPARE VALENTI__ 
* FROM CLIP NAME:  SEVL1HEIS930.JPG
FCM: DROP FRAME
373  EVL1_GRN V     C        02:02:33:12 02:02:35:00 01:08:36:14 01:08:38:23 
M2   EVL1_GRN       025.6                02:02:33:12 
* AETN__QEVL1GRND044_UNDERGROUND_EL CHAPO TUNNELS_EL CHAPO NEWS REPORT, FINDING MO 
* NEY_76238_COCAINEHISTORYBETWEENTHELINES_63 
* FROM CLIP NAME:  QEVL1GRND044.NEW.01
FCM: NON-DROP FRAME
374  EVL1_HEI V     C        00:08:54:26 00:08:56:22 01:08:38:23 01:08:40:18 
M2   EVL1_HEI       037.5                00:08:54:26 
* GETTY IMAGES__QEVL1HEIS474_HEISTS_LUFTHANSA HEIST_CU BANK MONEY COUNTING MACHINE 
* _456467358 
* FROM CLIP NAME:  QEVL1HEIS474.NEW.01
375  EVL1_HEI V     C        00:11:10:15 00:11:12:08 01:08:40:18 01:08:42:10 
M2   EVL1_HEI       037.5                00:11:10:15 
* POND5_T_QEVL1HEIS477_HEISTS_LUFTHANSA HEIST_SOMEONE GOING THROUGH A STACK OF 100 
* $ BILLS, LOW LIGHT CU_1091733 
* FROM CLIP NAME:  T_QEVL1HEIS477.NEW.01
FCM: DROP FRAME
376  QEVL1HEI V     C        00:01:38:00 00:01:40:08 01:08:42:10 01:08:44:18 
M2   QEVL1HEI       037.5                00:01:38:00 
* GETTY IMAGES__QEVL1HEIS467_HEISTS_LUFTHANSA HEIST_WORKER STRAIGHTENING OUT STACK 
* S OF ONE DOLLAR BILLS BEFORE PLACING ON CONVEYOR BELT_125128678 
* FROM CLIP NAME:  QEVL1HEIS467.NEW.01
FCM: NON-DROP FRAME
377  EVL1_HEI V     C        00:00:22:10 00:00:24:01 01:08:44:18 01:08:45:28 
* AETN__QEVL1HEIS178_HEISTS_DINNER SET GANG_MONTAGE OF JEWELRY, DIAMOND RINGS AND 
* EARRINGS_28309_BLOODDIAMONDS_1080P_010027 
* FROM CLIP NAME:  QEVL1HEIS178.NEW.01
378  SEVL1HEI V     C        01:00:03:12 01:00:04:12 01:08:45:01 01:08:46:01 
* FROM CLIP NAME:  SEVL1HEIS053.TIFF.NEW.01
379  EVL1_HEI V     C        00:00:16:00 00:00:16:08 01:08:45:28 01:08:46:06 
* AETN__QEVL1HEIS178_HEISTS_DINNER SET GANG_MONTAGE OF JEWELRY, DIAMOND RINGS AND 
* EARRINGS_28309_BLOODDIAMONDS_1080P_010027 
* FROM CLIP NAME:  QEVL1HEIS178.NEW.01
380  SEVL1HEI V     C        01:00:04:12 01:00:09:19 01:08:46:01 01:08:51:10 
* GETTY IMAGES__SEVL1HEIS053_HEISTS_LUFTHANSA HEIST_HEADLINE ‘INSIDE JOB SEEN IN $ 
* 5M JFK HEIST’ (NY DAILY NEWS)_452900918_HTTP://WWW.GETTYIMAGES.COM/LICENSE/45290 
* 0918 
* FROM CLIP NAME:  SEVL1HEIS053.TIFF.NEW.01
381  EVL1_HEI V     C        00:00:19:05 00:00:19:23 01:08:46:06 01:08:46:24 
* AETN__QEVL1HEIS178_HEISTS_DINNER SET GANG_MONTAGE OF JEWELRY, DIAMOND RINGS AND 
* EARRINGS_28309_BLOODDIAMONDS_1080P_010027 
* FROM CLIP NAME:  QEVL1HEIS178.NEW.01
382  EVL10602 V     C        11:20:22:01 11:20:24:00 01:08:46:24 01:08:48:23 
* FROM CLIP NAME:  EVL1060216A02_211_0040.NEW.01
383  EVL10602 V     C        11:28:18:16 11:28:21:06 01:08:48:23 01:08:51:10 
* FROM CLIP NAME:  EVL1060216A02_211_0041.NEW.01
384  EVL10610 V     C        11:58:11:04 11:58:13:18 01:08:51:10 01:08:53:28 
* FROM CLIP NAME:  EVL1061016A02_275_0177.NEW.01.SUB.01
385  T_QEVL1H V     C        00:12:51:00 00:12:53:20 01:08:53:28 01:08:56:18 
M2   T_QEVL1H       037.5                00:12:51:00 
* GETTY_T_QEVL1HEIS701_HEISTS_LUFTHANSA HEIST_CLOSE UP OF ONE HUNDRED DOLLAR BILLS 
*  BEING COUNTED IN MACHINE_65-83 
* FROM CLIP NAME:  T_QEVL1HEIS701.NEW.01
386  EVL1_HEI V     C        00:11:10:15 00:11:10:28 01:08:56:18 01:08:57:00 
M2   EVL1_HEI       037.5                00:11:10:15 
* POND5_T_QEVL1HEIS479_HEISTS_LUFTHANSA HEIST_SOMEONE FANNING A STACK OF 100$ BILL 
* S, LOW LIGHT CU_1091714 
* FROM CLIP NAME:  T_QEVL1HEIS479.NEW.01
387  EVL1_HEI V     C        00:11:10:27 00:11:12:29 01:08:57:00 01:08:59:01 
M2   EVL1_HEI       037.5                00:11:10:27 
* POND5_T_QEVL1HEIS479_HEISTS_LUFTHANSA HEIST_SOMEONE FANNING A STACK OF 100$ BILL 
* S, LOW LIGHT CU_1091714 
* FROM CLIP NAME:  T_QEVL1HEIS479.NEW.01
388  EVL10509 V     C        12:35:02:06 12:35:09:03 01:08:59:01 01:09:05:28 
* FROM CLIP NAME:  EVL1050916A02_IP_0161.NEW.01.SUB.01
389     BL    V     C        00:00:00:00 00:00:00:00 01:09:05:23 01:09:05:23 
389  SEVL1HEI V      010 01:00:01:19 01:00:02:05 01:09:05:23 01:09:06:05 
* TO CLIP NAME:  SEVL1HEIS047.TIFF.NEW.01.COPY.01
390  EVL1_HEI V     C        00:01:01:07 00:01:09:00 01:09:05:28 01:09:12:03 
* GETTY IMAGES__QEVL1HEIS395_HEISTS_LUFTHANSA HEIST_CU REAR TIRES OF LARGE TRUCK S 
* PINNING AND MOVING AWAY_99032188 
* FROM CLIP NAME:  QEVL1HEIS395.NEW.01
391  SEVL1HEI V     C        01:00:02:05 01:00:07:17 01:09:06:05 01:09:11:20 
* GETTY IMAGES__SEVL1HEIS047_HEISTS_LUFTHANSA HEIST_NY DAILY NEWS HEADLINE: ‘JFK R 
* OBBERS GET 5M’ (DEC 12, 1978)_452900910_HTTP://WWW.GETTYIMAGES.COM/LICENSE/45290 
* 0910 
* FROM CLIP NAME:  SEVL1HEIS047.TIFF.NEW.01.COPY.01
392  SEVL1HEI V     C        01:00:07:17 01:00:07:17 01:09:11:20 01:09:11:20 
392  EVL1_HEI V      008 00:14:53:17 00:14:53:28 01:09:11:20 01:09:12:00 
M2   EVL1_HEI       037.5                00:14:53:17 
* GETTY IMAGES__SEVL1HEIS047_HEISTS_LUFTHANSA HEIST_NY DAILY NEWS HEADLINE: ‘JFK R 
* OBBERS GET 5M’ (DEC 12, 1978)_452900910_HTTP://WWW.GETTYIMAGES.COM/LICENSE/45290 
* 0910 
* FROM CLIP NAME:  SEVL1HEIS047.TIFF.NEW.01.COPY.01 
* TO CLIP NAME:  T_QEVL1HEIS978.NEW.01
393  EVL1_HEI V     C        00:14:53:27 00:14:57:20 01:09:12:00 01:09:15:23 
M2   EVL1_HEI       037.5                00:14:53:27 
* POND5_T_QEVL1HEIS978_HEISTS_DINNER SET GANG_CLOSE UP OF MAN COUNTING MONEY, HUND 
* RED DOLLAR BILLS_61169578 
* FROM CLIP NAME:  T_QEVL1HEIS978.NEW.01
FCM: DROP FRAME
394  EVL1_HEI V     C        00:01:06:01 00:01:07:07 01:09:15:23 01:09:16:28 
M2   EVL1_HEI       037.5                00:01:06:01 
* NYPD__QEVL1HEIS371_HEISTS_LUFTHANSA HEIST_JIMMY BURKE NYPD PHOTO (STILL WITHIN M 
* OV)_NYPD 
* FROM CLIP NAME:  QEVL1HEIS371.NEW.01
395  EVL1_HEI V     C        00:01:10:00 00:01:12:03 01:09:16:28 01:09:20:08 
M2   EVL1_HEI       023.2                00:01:10:00 
* NYPD__QEVL1HEIS375_HEISTS_LUFTHANSA HEIST_JIMMY BURKE NYPD PHOTO (STILL WITHIN M 
* OV)_NYPD 
* FROM CLIP NAME:  QEVL1HEIS375.NEW.01
FCM: NON-DROP FRAME
396  EVL10512 V     C        13:49:14:17 13:49:16:02 01:09:20:08 01:09:21:19 
* FROM CLIP NAME:  EVL1051216A02_IP_0225.NEW.01.SUB.01
397  EVL10512 V     C        13:19:04:20 13:19:05:12 01:09:21:19 01:09:22:09 
* FROM CLIP NAME:  EVL1051216B02_E0377.NEW.01.SUB.01
398  EVL10512 V     C        13:19:05:12 13:19:05:12 01:09:22:09 01:09:22:09 
398  SEVL1HEI V      008 01:00:04:08 01:00:04:16 01:09:22:09 01:09:22:19 
* FROM CLIP NAME:  EVL1051216B02_E0377.NEW.01.SUB.01 
* TO CLIP NAME:  SEVL1HEIS058.TIFF.NEW.01
399  SEVL1HEI V     C        01:00:04:16 01:00:09:02 01:09:22:19 01:09:27:01 
* GETTY IMAGES__SEVL1HEIS058_HEISTS_LUFTHANSA HEIST_BULLDOZER NEXT TO JIMMY THE GE 
* NT BURKE & LAWYER_97279740_HTTP://WWW.GETTYIMAGES.COM/LICENSE/97279740 
* FROM CLIP NAME:  SEVL1HEIS058.TIFF.NEW.01
400  EVL10512 V     C        13:18:59:18 13:19:01:17 01:09:27:01 01:09:29:00 
* FROM CLIP NAME:  EVL1051216B02_E0377.NEW.01.SUB.01
FCM: DROP FRAME
401  EVL1_HEI V     C        00:00:09:16 00:00:10:05 01:09:29:00 01:09:29:19 
M2   EVL1_HEI       037.5                00:00:09:16 
* AETN__QEVL1HEIS061_HEISTS_LUFTHANSA HEIST_STACKS OF HUNDRED DOLLAR BILLS; HANDSH 
* AKE; MAN THREATENED W/ GUN_106549_MOBSTERS_JIMMYTHEGENTBURKE_08 
* FROM CLIP NAME:  QEVL1HEIS061.NEW.01
402  QEVL1HEI V     C        00:01:38:26 00:01:40:19 01:09:29:19 01:09:31:11 
M2   QEVL1HEI       037.5                00:01:38:26 
* GETTY IMAGES__QEVL1HEIS472_HEISTS_LUFTHANSA HEIST_MAN AT TABLE WITH STACKS OF MO 
* NEY BUNDLED IN FRONT OF HIM_129877588 
* FROM CLIP NAME:  QEVL1HEIS472.NEW.01
403  QEVL1HEI V     C        00:01:40:18 00:01:40:18 01:09:31:11 01:09:31:11 
FCM: NON-DROP FRAME 
403  STILL.29 V      012 01:00:44:25 01:00:45:10 01:09:31:11 01:09:31:26 
M2   QEVL1HEI       037.5                00:01:40:18 
* GETTY IMAGES__QEVL1HEIS472_HEISTS_LUFTHANSA HEIST_MAN AT TABLE WITH STACKS OF MO 
* NEY BUNDLED IN FRONT OF HIM_129877588 
* FROM CLIP NAME:  QEVL1HEIS472.NEW.01 
* TO CLIP NAME:  STILL.29
404  STILL.29 V     C        01:00:45:10 01:00:50:11 01:09:31:26 01:09:36:28 
* FROM CLIP NAME:  STILL.29
405  EVL1_HEI V     C        00:05:51:09 00:06:10:10 01:09:36:29 01:09:37:28 
M2   EVL1_HEI       462.7                00:05:51:09 
* FRAMEPOOL_T_QEVL1HEIS318_HEISTS_SISI JEWEL HEIST_AIRPLANE TAKING OFF FROM RUNWAY 
* , FLYING OVER CAMERA_736-187-574 
* FROM CLIP NAME:  T_QEVL1HEIS318.NEW.01
406  EVL1_HEI V     C        00:06:10:12 00:06:10:12 01:09:37:28 01:09:37:28 
406  EVL1_HEI V      010 00:10:53:22 00:10:54:05 01:09:37:28 01:09:38:10 
M2   EVL1_HEI       462.7                00:06:10:12 
M2   EVL1_HEI       037.5                00:10:53:22 
* FRAMEPOOL_T_QEVL1HEIS318_HEISTS_SISI JEWEL HEIST_AIRPLANE TAKING OFF FROM RUNWAY 
* , FLYING OVER CAMERA_736-187-574 
* FROM CLIP NAME:  T_QEVL1HEIS318.NEW.01 
* TO CLIP NAME:  T_QEVL1HEIS336.NEW.01
407  EVL1_HEI V     C        00:10:54:05 00:10:54:20 01:09:38:10 01:09:38:25 
M2   EVL1_HEI       037.5                00:10:54:05 
* POND 5_T_QEVL1HEIS336_HEISTS_LUFTHANSA HEIST_BREAK AND ENTER CHAIN LINK FENCE GE 
* TS BROKEN INTO _40427311 
* FROM CLIP NAME:  T_QEVL1HEIS336.NEW.01
408  EVL1_HEI V     C        00:02:31:11 00:02:32:12 01:09:38:25 01:09:39:20 
* POND5_T_QEVL1HEIS270_HEISTS_LUFTHANSA HEIST_LUFTHANSA CARGO PLANE_60242540 
* FROM CLIP NAME:  T_QEVL1HEIS270.NEW.01
409     AX    V     C        01:00:00:00 01:00:00:03 01:09:39:20 01:09:39:24 
* POND5_T_QEVL1HEIS270_HEISTS_LUFTHANSA HEIST_LUFTHANSA CARGO PLANE_60242540 
* TO CLIP NAME:  T_QEVL1HEIS270.NEW.01
FCM: DROP FRAME
410  EVL1_HEI V     C        00:00:59:12 00:00:59:17 01:09:39:24 01:09:39:28 
M2   EVL1_HEI       037.5                00:00:59:12 
* AETN__QEVL1HEIS198_HEISTS_LUFTHANSA HEIST_ROBBER WITH MASK HOLDING MONEY, RECRE 
* OF ROBBERY WITH PEOPLE LAYING ON FLOOR GUN POINTED AT THEM_70462_GANGLAND_ARMYOF 
* HATE_010223 
* FROM CLIP NAME:  QEVL1HEIS198.NEW.01 
* TO CLIP NAME:  QEVL1HEIS198.NEW.01
411  EVL1_HEI V     C        00:00:59:16 00:01:00:17 01:09:39:28 01:09:40:26 
M2   EVL1_HEI       037.5                00:00:59:16 
* AETN__QEVL1HEIS198_HEISTS_LUFTHANSA HEIST_ROBBER WITH MASK HOLDING MONEY, RECRE 
* OF ROBBERY WITH PEOPLE LAYING ON FLOOR GUN POINTED AT THEM_70462_GANGLAND_ARMYOF 
* HATE_010223 
* FROM CLIP NAME:  QEVL1HEIS198.NEW.01
412  EVL1_HEI V     C        00:01:18:17 00:01:20:08 01:09:40:23 01:09:42:13 
M2   EVL1_HEI       037.5                00:01:18:17 
* FBI__QEVL1HEIS384_HEISTS_LUFTHANSA HEIST_JIMMY BURKE FBI (STILL WITHIN .MOV)_FBI 
* FROM CLIP NAME:  QEVL1HEIS384.NEW.01
413  EVL1_HEI V     C        00:00:05:06 00:00:07:14 01:09:42:13 01:09:44:20 
M2   EVL1_HEI       037.5                00:00:05:06 
* AETN__QEVL1HEIS056_HEISTS_LUFTHANSA HEIST_MEN WITH GUNS PASS BOXES_106549_MOBSTE 
* RS_JIMMYTHEGENTBURKE_03 
* FROM CLIP NAME:  QEVL1HEIS056.NEW.01
FCM: NON-DROP FRAME
414     AX    V     C        01:00:00:00 01:00:00:03 01:09:44:20 01:09:44:24 
* AETN__QEVL1HEIS056_HEISTS_LUFTHANSA HEIST_MEN WITH GUNS PASS BOXES_106549_MOBSTE 
* RS_JIMMYTHEGENTBURKE_03 
* TO CLIP NAME:  QEVL1HEIS056.NEW.01
FCM: DROP FRAME
415  EVL1_HEI V     C        00:00:58:12 00:00:58:17 01:09:44:24 01:09:44:28 
M2   EVL1_HEI       037.5                00:00:58:12 
* AETN__QEVL1HEIS199_HEISTS_LUFTHANSA HEIST_RECRE OF ROBBERY WITH PEOPLE LAYING ON 
*  FLOOR GUN POINTED AT THEM, ROBBER PUTTING MONEY INTO DUFFEL BAG_70462_GANGLAND_ 
* ARMYOFHATE_010227 
* FROM CLIP NAME:  QEVL1HEIS199.NEW.01 
* TO CLIP NAME:  QEVL1HEIS199.NEW.01
416  EVL1_HEI V     C        00:00:58:16 00:01:00:21 01:09:44:28 01:09:47:00 
M2   EVL1_HEI       037.5                00:00:58:16 
* AETN__QEVL1HEIS199_HEISTS_LUFTHANSA HEIST_RECRE OF ROBBERY WITH PEOPLE LAYING ON 
*  FLOOR GUN POINTED AT THEM, ROBBER PUTTING MONEY INTO DUFFEL BAG_70462_GANGLAND_ 
* ARMYOFHATE_010227 
* FROM CLIP NAME:  QEVL1HEIS199.NEW.01
FCM: NON-DROP FRAME
418     BL    V     C        00:00:00:00 00:00:00:00 01:09:47:00 01:09:47:00 
418  SEVL1HEI V      010 01:00:03:23 01:00:04:09 01:09:47:00 01:09:47:13 
* TO CLIP NAME:  SEVL1HEIS047.TIFF.NEW.01
FCM: DROP FRAME
417  EVL1_HEI V     C        00:01:00:20 00:01:00:20 01:09:47:00 01:09:47:00 
417  EVL1_HEI V      010 00:00:58:07 00:00:58:17 01:09:47:00 01:09:47:13 
M2   EVL1_HEI       037.5                00:01:00:20 
M2   EVL1_HEI       028.0                00:00:58:07 
* AETN__QEVL1HEIS199_HEISTS_LUFTHANSA HEIST_RECRE OF ROBBERY WITH PEOPLE LAYING ON 
*  FLOOR GUN POINTED AT THEM, ROBBER PUTTING MONEY INTO DUFFEL BAG_70462_GANGLAND_ 
* ARMYOFHATE_010227 
* FROM CLIP NAME:  QEVL1HEIS199.NEW.01 
* TO CLIP NAME:  QEVL1HEIS199.NEW.01
420  EVL1_HEI V     C        00:00:58:16 00:00:59:21 01:09:47:13 01:09:48:28 
M2   EVL1_HEI       028.0                00:00:58:16 
* AETN__QEVL1HEIS199_HEISTS_LUFTHANSA HEIST_RECRE OF ROBBERY WITH PEOPLE LAYING ON 
*  FLOOR GUN POINTED AT THEM, ROBBER PUTTING MONEY INTO DUFFEL BAG_70462_GANGLAND_ 
* ARMYOFHATE_010227 
* FROM CLIP NAME:  QEVL1HEIS199.NEW.01
FCM: NON-DROP FRAME
419  SEVL1HEI V     C        01:00:04:09 01:00:05:21 01:09:47:13 01:09:48:28 
* GETTY IMAGES__SEVL1HEIS047_HEISTS_LUFTHANSA HEIST_NY DAILY NEWS HEADLINE: ‘JFK R 
* OBBERS GET 5M’ (DEC 12, 1978)_452900910_HTTP://WWW.GETTYIMAGES.COM/LICENSE/45290 
* 0910 
* FROM CLIP NAME:  SEVL1HEIS047.TIFF.NEW.01
421     BL    V     C        00:00:00:00 00:00:00:00 01:09:48:21 01:09:48:21 
421     BL    V      010 00:00:00:00 00:00:00:10 01:09:48:21 01:09:49:04
423  SEVL1HEI V     C        01:00:05:21 01:00:06:18 01:09:48:28 01:09:49:24 
* GETTY IMAGES__SEVL1HEIS047_HEISTS_LUFTHANSA HEIST_NY DAILY NEWS HEADLINE: ‘JFK R 
* OBBERS GET 5M’ (DEC 12, 1978)_452900910_HTTP://WWW.GETTYIMAGES.COM/LICENSE/45290 
* 0910 
* FROM CLIP NAME:  SEVL1HEIS047.TIFF.NEW.01
FCM: DROP FRAME
422  EVL1_HEI V     C        00:00:59:20 00:01:00:13 01:09:48:28 01:09:49:24 
M2   EVL1_HEI       028.6                00:00:59:20 
* AETN__QEVL1HEIS199_HEISTS_LUFTHANSA HEIST_RECRE OF ROBBERY WITH PEOPLE LAYING ON 
*  FLOOR GUN POINTED AT THEM, ROBBER PUTTING MONEY INTO DUFFEL BAG_70462_GANGLAND_ 
* ARMYOFHATE_010227 
* FROM CLIP NAME:  QEVL1HEIS199.NEW.01
FCM: NON-DROP FRAME
424     BL    V     C        00:00:00:00 00:00:00:00 01:09:49:18 01:09:49:18 
424     BL    V      010 00:00:00:00 00:00:00:10 01:09:49:18 01:09:50:00
425  EVL1_HEI V     C        00:02:33:02 00:02:33:20 01:09:49:24 01:09:50:13 
* POND5_T_QEVL1HEIS272_HEISTS_LUFTHANSA HEIST_VAULT OPENS, REVEALING STACKS OF CAS 
* H_32464403 
* FROM CLIP NAME:  T_QEVL1HEIS272.NEW.01
426  EVL1_HEI V     C        00:02:33:20 00:02:34:08 01:09:50:13 01:09:50:24 
* POND5_T_QEVL1HEIS272_HEISTS_LUFTHANSA HEIST_VAULT OPENS, REVEALING STACKS OF CAS 
* H_32464403 
* FROM CLIP NAME:  T_QEVL1HEIS272.NEW.01
427     AX    V     C        01:00:00:00 01:00:00:03 01:09:50:24 01:09:50:28 
* POND5_T_QEVL1HEIS272_HEISTS_LUFTHANSA HEIST_VAULT OPENS, REVEALING STACKS OF CAS 
* H_32464403 
* TO CLIP NAME:  T_QEVL1HEIS272.NEW.01
428  T_QEVL1H V     C        00:12:51:15 00:12:51:19 01:09:50:28 01:09:51:01 
M2   T_QEVL1H       037.5                00:12:51:15 
* GETTY_T_QEVL1HEIS701_HEISTS_LUFTHANSA HEIST_CLOSE UP OF ONE HUNDRED DOLLAR BILLS 
*  BEING COUNTED IN MACHINE_65-83 
* FROM CLIP NAME:  T_QEVL1HEIS701.NEW.01 
* TO CLIP NAME:  T_QEVL1HEIS701.NEW.01
429  T_QEVL1H V     C        00:12:51:18 00:12:52:28 01:09:51:01 01:09:52:10 
M2   T_QEVL1H       037.5                00:12:51:18 
* GETTY_T_QEVL1HEIS701_HEISTS_LUFTHANSA HEIST_CLOSE UP OF ONE HUNDRED DOLLAR BILLS 
*  BEING COUNTED IN MACHINE_65-83 
* FROM CLIP NAME:  T_QEVL1HEIS701.NEW.01
430  T_QEVL1H V     C        00:12:52:27 00:12:52:27 01:09:52:10 01:09:52:10 
430  EVL1_HEI V      010 00:00:22:03 00:00:22:16 01:09:52:10 01:09:52:23 
M2   T_QEVL1H       037.5                00:12:52:27 
* GETTY_T_QEVL1HEIS701_HEISTS_LUFTHANSA HEIST_CLOSE UP OF ONE HUNDRED DOLLAR BILLS 
*  BEING COUNTED IN MACHINE_65-83 
* FROM CLIP NAME:  T_QEVL1HEIS701.NEW.01 
* TO CLIP NAME:  QEVL1HEIS178.NEW.01
431  EVL1_HEI V     C        00:00:22:16 00:00:23:17 01:09:52:23 01:09:53:18 
* AETN__QEVL1HEIS178_HEISTS_DINNER SET GANG_MONTAGE OF JEWELRY, DIAMOND RINGS AND 
* EARRINGS_28309_BLOODDIAMONDS_1080P_010027 
* FROM CLIP NAME:  QEVL1HEIS178.NEW.01
432  EVL1_HEI V     C        00:06:29:12 00:06:29:23 01:09:53:18 01:09:54:00 
M2   EVL1_HEI       031.3                00:06:29:12 
* AETN__QEVL1HEIS178_HEISTS_DINNER SET GANG_MONTAGE OF JEWELRY, DIAMOND RINGS AND 
* EARRINGS_28309_BLOODDIAMONDS_1080P_010027 
* FROM CLIP NAME:  T_QEVL1HEIS535.NEW.01 
* TO CLIP NAME:  QEVL1HEIS178.NEW.01
433  EVL1_HEI V     C        00:06:29:22 00:06:30:12 01:09:54:00 01:09:54:16 
M2   EVL1_HEI       031.3                00:06:29:22 
* POND5_T_QEVL1HEIS535_HEISTS_LUFTHANSA_CLUB SCENE DISCO BALL_2800788 
* FROM CLIP NAME:  T_QEVL1HEIS535.NEW.01
434  EVL1_HEI V     C        00:06:02:17 00:06:03:00 01:09:54:16 01:09:54:24 
M2   EVL1_HEI       031.3                00:06:02:17 
* POND5_T_QEVL1HEIS490_HEISTS_LUFTHANSA HEIST_PAYING FOR A DRINK AT THE BAR_612473 
* 51 
* FROM CLIP NAME:  T_QEVL1HEIS490.NEW.01
435  T_QEVL1H V     C        00:09:47:08 00:09:47:22 01:09:54:24 01:09:55:06 
M2   T_QEVL1H       037.5                00:09:47:08 
* POND5_T_QEVL1HEIS490_HEISTS_LUFTHANSA HEIST_PAYING FOR A DRINK AT THE BAR_612473 
* 51 
* FROM CLIP NAME:  T_QEVL1HEIS104.NEW.01 
* TO CLIP NAME:  T_QEVL1HEIS490.NEW.01
436  T_QEVL1H V     C        00:09:47:21 00:09:48:08 01:09:55:06 01:09:55:23 
M2   T_QEVL1H       037.5                00:09:47:21 
* POND5_T_QEVL1HEIS104_HEISTS_ANTHONY CURCIO: CRAIG’S LIST ROBBER_YOUNG MEN AT BAR 
*  DRINKING_34005433 
* FROM CLIP NAME:  T_QEVL1HEIS104.NEW.01
437     AX    V     C        01:00:00:00 01:00:00:02 01:09:55:23 01:09:55:25 
* POND5_T_QEVL1HEIS104_HEISTS_ANTHONY CURCIO: CRAIG’S LIST ROBBER_YOUNG MEN AT BAR 
*  DRINKING_34005433 
* TO CLIP NAME:  T_QEVL1HEIS104.NEW.01
438  EVL1_HEI V     C        00:06:17:06 00:06:17:09 01:09:55:25 01:09:55:28 
M2   EVL1_HEI       031.3                00:06:17:06 
* POND5_T_QEVL1HEIS535_HEISTS_LUFTHANSA_CLUB SCENE DISCO BALL_2800788 
* FROM CLIP NAME:  T_QEVL1HEIS535.NEW.01 
* TO CLIP NAME:  T_QEVL1HEIS535.NEW.01
439  EVL1_HEI V     C        00:06:17:08 00:06:18:02 01:09:55:28 01:09:56:19 
M2   EVL1_HEI       031.3                00:06:17:08 
* POND5_T_QEVL1HEIS535_HEISTS_LUFTHANSA_CLUB SCENE DISCO BALL_2800788 
* FROM CLIP NAME:  T_QEVL1HEIS535.NEW.01
440  EVL1_HEI V     C        00:04:36:08 00:04:36:19 01:09:56:19 01:09:57:01 
M2   EVL1_HEI       031.3                00:04:36:08 
* POND5_T_QEVL1HEIS535_HEISTS_LUFTHANSA_CLUB SCENE DISCO BALL_2800788 
* FROM CLIP NAME:  QEVL1HEIS555.NEW.01 
* TO CLIP NAME:  T_QEVL1HEIS535.NEW.01
441  EVL1_HEI V     C        00:04:36:18 00:04:36:21 01:09:57:01 01:09:57:04 
M2   EVL1_HEI       031.3                00:04:36:18 
* GETTY__QEVL1HEIS555_HEISTS_LUFTHANSA HEIST_MIDSECTION OF COUPLE DANCING TOGETHER 
*  IN CLUB_509515124 
* FROM CLIP NAME:  QEVL1HEIS555.NEW.01
442  EVL1_HEI V     C        00:06:14:06 00:06:14:23 01:09:57:04 01:09:57:23 
M2   EVL1_HEI       031.3                00:06:14:06 
* GETTY__QEVL1HEIS555_HEISTS_LUFTHANSA HEIST_MIDSECTION OF COUPLE DANCING TOGETHER 
*  IN CLUB_509515124 
* FROM CLIP NAME:  T_QEVL1HEIS535.NEW.01 
* TO CLIP NAME:  QEVL1HEIS555.NEW.01
443  EVL1_HEI V     C        00:06:14:22 00:06:15:02 01:09:57:23 01:09:57:28 
M2   EVL1_HEI       031.3                00:06:14:22 
* POND5_T_QEVL1HEIS535_HEISTS_LUFTHANSA_CLUB SCENE DISCO BALL_2800788 
* FROM CLIP NAME:  T_QEVL1HEIS535.NEW.01
444  QEVL1HEI V     C        00:01:23:12 00:01:23:19 01:09:57:28 01:09:58:05 
* POND5_T_QEVL1HEIS535_HEISTS_LUFTHANSA_CLUB SCENE DISCO BALL_2800788 
* FROM CLIP NAME:  QEVL1HEIS552.NEW.01 
* TO CLIP NAME:  T_QEVL1HEIS535.NEW.01
445  EVL1_HEI V     C        00:04:45:01 00:04:45:10 01:09:58:05 01:09:58:15 
M2   EVL1_HEI       031.3                00:04:45:01 
* GETTY__QEVL1HEIS552_HEISTS_LUFTHANSA HEIST_COUPLE IN NIGHTCLUB DANCING WITH EACH 
*  OTHER_104116491 
* FROM CLIP NAME:  QEVL1HEIS556.NEW.01 
* TO CLIP NAME:  QEVL1HEIS552.NEW.01
446  EVL1_HEI V     C        00:04:45:09 00:04:45:13 01:09:58:15 01:09:58:19 
M2   EVL1_HEI       031.3                00:04:45:09 
* GETTY__QEVL1HEIS556_HEISTS_LUFTHANSA HEIST_SLOMO HEELS IN CLUB COUPLE DANCING_50 
* 9521530 
* FROM CLIP NAME:  QEVL1HEIS556.NEW.01
447  EVL1_HEI V     C        00:08:31:26 00:08:32:19 01:09:58:19 01:09:59:11 
M2   EVL1_HEI       037.5                00:08:31:26 
* GETTY__QEVL1HEIS556_HEISTS_LUFTHANSA HEIST_SLOMO HEELS IN CLUB COUPLE DANCING_50 
* 9521530 
* FROM CLIP NAME:  QEVL1HEIS158.NEW.01 
* TO CLIP NAME:  QEVL1HEIS556.NEW.01
448  EVL1_HEI V     C        00:08:32:18 00:08:32:22 01:09:59:11 01:09:59:14 
M2   EVL1_HEI       037.5                00:08:32:18 
* GETTY IMAGES__QEVL1HEIS158_HEISTS_LUFTHANSA HEIST_SUPER SLOW MOTION ICE CUBES FA 
* LLING INTO WHISKY GLASS, DRINKING ALCOHOL 
* _473164655" 
* FROM CLIP NAME:  QEVL1HEIS158.NEW.01
449  SEVL1HEI V     C        01:00:02:20 01:00:03:16 01:09:59:14 01:10:00:09 
* GETTY IMAGES__QEVL1HEIS158_HEISTS_LUFTHANSA HEIST_SUPER SLOW MOTION ICE CUBES FA 
* LLING INTO WHISKY GLASS, DRINKING ALCOHOL 
* _473164655" 
* FROM CLIP NAME:  SEVL1HEIS059.TIFF.NEW.01 
* TO CLIP NAME:  QEVL1HEIS158.NEW.01
450  SEVL1HEI V     C        01:00:03:16 01:00:03:20 01:10:00:09 01:10:00:14 
* GETTY IMAGES__SEVL1HEIS059_HEISTS_LUFTHANSA HEIST_JIMMY THE GENT BURKE BY DOORWA 
* Y OF SOUTH SIDE INN_97279721_HTTP://WWW.GETTYIMAGES.COM/LICENSE/97279721 
* FROM CLIP NAME:  SEVL1HEIS059.TIFF.NEW.01
451  SEVL1HEI V     C        01:00:03:20 01:00:03:20 01:10:00:14 01:10:00:14 
451  SEVL1HEI V      015 01:00:03:20 01:00:04:11 01:10:00:14 01:10:01:03 
* GETTY IMAGES__SEVL1HEIS059_HEISTS_LUFTHANSA HEIST_JIMMY THE GENT BURKE BY DOORWA 
* Y OF SOUTH SIDE INN_97279721_HTTP://WWW.GETTYIMAGES.COM/LICENSE/97279721 
* FROM CLIP NAME:  SEVL1HEIS059.TIFF.NEW.01 
* TO CLIP NAME:  SEVL1HEIS059.TIFF.NEW.01
452  SEVL1HEI V     C        01:00:04:11 01:00:06:03 01:10:01:03 01:10:02:23 
* GETTY IMAGES__SEVL1HEIS059_HEISTS_LUFTHANSA HEIST_JIMMY THE GENT BURKE BY DOORWA 
* Y OF SOUTH SIDE INN_97279721_HTTP://WWW.GETTYIMAGES.COM/LICENSE/97279721 
* FROM CLIP NAME:  SEVL1HEIS059.TIFF.NEW.01
453  QEVL1HEI V     C        00:01:41:06 00:01:42:19 01:10:02:23 01:10:04:00 
* GETTY IMAGES__SEVL1HEIS059_HEISTS_LUFTHANSA HEIST_JIMMY THE GENT BURKE BY DOORWA 
* Y OF SOUTH SIDE INN_97279721_HTTP://WWW.GETTYIMAGES.COM/LICENSE/97279721 
* FROM CLIP NAME:  QEVL1HEIS699.NEW.01 
* TO CLIP NAME:  SEVL1HEIS059.TIFF.NEW.01
454  QEVL1HEI V     C        00:01:42:20 00:01:43:19 01:10:04:00 01:10:04:24 
* GETTY__QEVL1HEIS699_HEISTS_LUFTHANSA HEIST_MAN PUTTING AMERICAN DOLLAR BILLS INT 
* O CASH COUNTING MACHINE, CLOSE-UP OF HAND_80550847 
* FROM CLIP NAME:  QEVL1HEIS699.NEW.01
FCM: DROP FRAME
455  QEVL1HEI V     C        00:01:29:03 00:01:31:10 01:10:04:24 01:10:07:00 
M2   QEVL1HEI       037.5                00:01:29:03 
* GETTY IMAGES__QEVL1HEIS473_HEISTS_LUFTHANSA HEIST_CASH MONEY COUNTING MACHINE, H 
* UNDRED DOLLAR BILLS_151812519 
* FROM CLIP NAME:  QEVL1HEIS473.NEW.01
FCM: NON-DROP FRAME
456  SEVL1HEI V     C        01:00:03:17 01:00:06:19 01:10:07:00 01:10:10:03 
* GETTY IMAGES__SEVL1HEIS058_HEISTS_LUFTHANSA HEIST_BULLDOZER NEXT TO JIMMY THE GE 
* NT BURKE & LAWYER_97279740_HTTP://WWW.GETTYIMAGES.COM/LICENSE/97279740 
* FROM CLIP NAME:  SEVL1HEIS058.TIFF.NEW.01
457     BL    V     C        00:00:00:00 00:00:00:00 01:10:09:23 01:10:09:23 
FCM: DROP FRAME 
457  QEVL1HEI V      010 00:01:38:28 00:01:39:12 01:10:09:23 01:10:10:05 
M2   QEVL1HEI       037.5                00:01:38:28 
* TO CLIP NAME:  QEVL1HEIS940.NEW.01
458  QEVL1HEI V     C        00:01:39:11 00:01:39:19 01:10:10:05 01:10:10:13 
M2   QEVL1HEI       037.5                00:01:39:11 
* GETTY IMAGES__QEVL1HEIS940_HEISTS_LUFTHANSA HEIST_LIVE GIRLS STRIP CLUB NEON SIG 
* N, STRIPPER SILHOUETTE_482853853 
* FROM CLIP NAME:  QEVL1HEIS940.NEW.01
FCM: NON-DROP FRAME
459     BL    V     C        00:00:00:00 00:00:00:00 01:10:10:06 01:10:10:06 
FCM: DROP FRAME 
459  QEVL1HEI V      010 00:01:39:17 00:01:40:00 01:10:10:06 01:10:10:19 
M2   QEVL1HEI       037.5                00:01:39:17 
* TO CLIP NAME:  QEVL1HEIS940.NEW.01
FCM: NON-DROP FRAME
460  EVL1_HEI V     C        00:11:54:15 00:11:55:29 01:10:10:13 01:10:11:26 
M2   EVL1_HEI       037.5                00:11:54:15 
* POND5_T_QEVL1HEIS539_HEISTS_LUFTHANSA_BLURRY MAN WOMAN DANCING IN CLUB_27348610 
* FROM CLIP NAME:  T_QEVL1HEIS539.NEW.01
FCM: DROP FRAME
461  QEVL1HEI V     C        00:01:40:00 00:01:40:04 01:10:10:19 01:10:10:23 
M2   QEVL1HEI       037.5                00:01:40:00 
* GETTY IMAGES__QEVL1HEIS940_HEISTS_LUFTHANSA HEIST_LIVE GIRLS STRIP CLUB NEON SIG 
* N, STRIPPER SILHOUETTE_482853853 
* FROM CLIP NAME:  QEVL1HEIS940.NEW.01
FCM: NON-DROP FRAME
462  EVL1_HEI V     C        00:11:55:28 00:11:55:28 01:10:11:26 01:10:11:26 
462     BL    V      010 00:00:00:00 00:00:00:10 01:10:11:26 01:10:12:09 
M2   EVL1_HEI       037.5                00:11:55:28 
* POND5_T_QEVL1HEIS539_HEISTS_LUFTHANSA_BLURRY MAN WOMAN DANCING IN CLUB_27348610 
* FROM CLIP NAME:  T_QEVL1HEIS539.NEW.01
463  EVL1_HEI V     C        00:09:06:02 00:09:07:13 01:10:12:03 01:10:13:13 
M2   EVL1_HEI       037.5                00:09:06:02 
* GETTY IMAGES__QEVL1HEIS485_HEISTS_LUFTHANSA HEIST_MAN PAYING WITH CASH AT BAR CO 
* UNTER_181209848 
* FROM CLIP NAME:  QEVL1HEIS485.NEW.01
464  EVL1_HEI V     C        00:09:07:12 00:09:08:02 01:10:13:13 01:10:14:01 
M2   EVL1_HEI       037.5                00:09:07:12 
* GETTY IMAGES__QEVL1HEIS485_HEISTS_LUFTHANSA HEIST_MAN PAYING WITH CASH AT BAR CO 
* UNTER_181209848 
* FROM CLIP NAME:  QEVL1HEIS485.NEW.01
465  EVL10525 V     C        12:03:23:15 12:03:27:05 01:10:14:01 01:10:17:19 
* FROM CLIP NAME:  EVL1052516A02_E020C004_160525MD.NEW.01.SUB.01
466  EVL10615 V     C        13:32:19:16 13:32:23:06 01:10:14:01 01:10:17:19 
* FROM CLIP NAME:  EVL1061516A03_275_0225.NEW.01.COPY.01
467  LOWER_TH V     C        01:00:00:00 01:00:02:26 01:10:14:08 01:10:17:04 
* FROM CLIP NAME:  LOWER THIRD.03.NEW.01
468  EVL1_GRN V     C        01:03:12:11 01:03:13:14 01:10:17:19 01:10:18:16 
* AETN__QEVL1GRND071_UNDERGROUND_HATTON GARDEN_OPENING SAFETY DEPOSIT BOXES, HANDL 
* ING GOLD COINS_112358_THEUNEXPLAINED_EP11_010312 
* FROM CLIP NAME:  QEVL1GRND071.NEW.01
469  EVL1_GRN V     C        01:03:13:14 01:03:13:14 01:10:18:16 01:10:18:16 
469  EVL1_HEI V      010 00:01:15:18 00:01:16:00 01:10:18:16 01:10:18:29 
* AETN__QEVL1GRND071_UNDERGROUND_HATTON GARDEN_OPENING SAFETY DEPOSIT BOXES, HANDL 
* ING GOLD COINS_112358_THEUNEXPLAINED_EP11_010312 
* FROM CLIP NAME:  QEVL1GRND071.NEW.01 
* TO CLIP NAME:  QEVL1HEIS486.NEW.01
470  EVL1_HEI V     C        00:01:16:00 00:01:17:02 01:10:18:29 01:10:20:01 
* GETTY IMAGES__QEVL1HEIS486_HEISTS_LUFTHANSA HEIST_MAN COUNTING MONEY HUNDRED DOL 
* LAR BILLS, HANDING OFF MONEY, GENERIC BACKGROUND_481297565 
* FROM CLIP NAME:  QEVL1HEIS486.NEW.01
471  T_QEVL1H V     C        00:03:00:03 00:03:00:27 01:10:20:01 01:10:20:26 
* GETTY IMAGES__QEVL1HEIS486_HEISTS_LUFTHANSA HEIST_MAN COUNTING MONEY HUNDRED DOL 
* LAR BILLS, HANDING OFF MONEY, GENERIC BACKGROUND_481297565 
* FROM CLIP NAME:  T_QEVL1HEIS480.NEW.01 
* TO CLIP NAME:  QEVL1HEIS486.NEW.01
472  T_QEVL1H V     C        00:03:00:28 00:03:01:02 01:10:20:26 01:10:21:01 
* POND5_T_QEVL1HEIS480_HEISTS_LUFTHANSA HEIST_DRUG DEAL HANDING OFF MONEY, TWO ANG 
* LES_37621281 
* FROM CLIP NAME:  T_QEVL1HEIS480.NEW.01
473  EVL1_HEI V     C        00:01:13:16 00:01:14:16 01:10:21:01 01:10:21:26 
* POND5_T_QEVL1HEIS480_HEISTS_LUFTHANSA HEIST_DRUG DEAL HANDING OFF MONEY, TWO ANG 
* LES_37621281 
* FROM CLIP NAME:  QEVL1HEIS471.NEW.01 
* TO CLIP NAME:  T_QEVL1HEIS480.NEW.01
474  EVL1_HEI V     C        00:01:14:17 00:01:15:08 01:10:21:26 01:10:22:13 
* GETTY IMAGES__QEVL1HEIS471_HEISTS_LUFTHANSA HEIST_BACK OF MAN IN SUIT, HAND SLOW 
* LY PASSING BUNDLE OF MONEY TO ANOTHER MAN_932-45 
* FROM CLIP NAME:  QEVL1HEIS471.NEW.01
475     AX    V     C        01:00:00:00 01:00:00:03 01:10:22:13 01:10:22:16 
* GETTY IMAGES__QEVL1HEIS471_HEISTS_LUFTHANSA HEIST_BACK OF MAN IN SUIT, HAND SLOW 
* LY PASSING BUNDLE OF MONEY TO ANOTHER MAN_932-45 
* TO CLIP NAME:  QEVL1HEIS471.NEW.01
476  EVL1_HEI V     C        00:08:53:01 00:08:53:05 01:10:22:16 01:10:22:20 
M2   EVL1_HEI       037.5                00:08:53:01 
* GETTY IMAGES__QEVL1HEIS398_HEISTS_LUFTHANSA HEIST_VIEW OF WHEELS OF CAR DRIVING 
* AROUND CITY AT NIGHT_483624836 
* FROM CLIP NAME:  QEVL1HEIS398.NEW.01 
* TO CLIP NAME:  QEVL1HEIS398.NEW.01
477  EVL1_HEI V     C        00:08:53:05 00:08:54:17 01:10:22:20 01:10:24:01 
M2   EVL1_HEI       037.5                00:08:53:05 
* GETTY IMAGES__QEVL1HEIS398_HEISTS_LUFTHANSA HEIST_VIEW OF WHEELS OF CAR DRIVING 
* AROUND CITY AT NIGHT_483624836 
* FROM CLIP NAME:  QEVL1HEIS398.NEW.01
FCM: DROP FRAME
478  EVL1_HEI V     C        00:01:05:27 00:01:07:02 01:10:24:01 01:10:25:05 
M2   EVL1_HEI       037.5                00:01:05:27 
* AETN__QEVL1HEIS257_HEISTS_LUFTHANSA HEIST_VAN WYCK EXPRESSWAY-JFK AIRPORT SIGN - 
* - LUFTHANSA CARGO BUILDING_106549_MOBSTERS_JIMMYTHEGENTBURKE_01 
* FROM CLIP NAME:  QEVL1HEIS257.NEW.01
FCM: NON-DROP FRAME
479  EVL1_HEI V     C        00:00:34:20 00:00:35:09 01:10:25:05 01:10:25:18 
* AETN__QEVL1HEIS205_HEISTS_LUFTHANSA HEIST_DRIVING ON ROAD TOWARD JFK AIRPORT, HI 
* GHWAY SIGN FOR KENNEDY AIRPORT, TERMINAL SIGNS_MF11828_ACAM7943_01 
* FROM CLIP NAME:  QEVL1HEIS205.NEW.01
480  EVL1_HEI V     C        00:12:38:13 00:12:39:09 01:10:25:18 01:10:26:13 
M2   EVL1_HEI       037.5                00:12:38:13 
* AETN__QEVL1HEIS205_HEISTS_LUFTHANSA HEIST_DRIVING ON ROAD TOWARD JFK AIRPORT, HI 
* GHWAY SIGN FOR KENNEDY AIRPORT, TERMINAL SIGNS_MF11828_ACAM7943_01 
* FROM CLIP NAME:  T_QEVL1HEIS675.NEW.01 
* TO CLIP NAME:  QEVL1HEIS205.NEW.01
481  EVL1_HEI V     C        00:12:39:08 00:12:39:28 01:10:26:13 01:10:27:01 
M2   EVL1_HEI       037.5                00:12:39:08 
* POND5_T_QEVL1HEIS675_HEISTS_LUFTHANSA HEIST_CLOSE-CAR-HEADLIGHTS-COMING-STOP_113 
* 54163 
* FROM CLIP NAME:  T_QEVL1HEIS675.NEW.01
482  EVL1_HEI V     C        00:12:39:27 00:12:39:27 01:10:27:01 01:10:27:01 
482  EVL1_HEI V      010 00:16:57:08 00:16:57:22 01:10:27:01 01:10:27:14 
M2   EVL1_HEI       037.5                00:12:39:27 
M2   EVL1_HEI       037.5                00:16:57:08 
* POND5_T_QEVL1HEIS675_HEISTS_LUFTHANSA HEIST_CLOSE-CAR-HEADLIGHTS-COMING-STOP_113 
* 54163 
* FROM CLIP NAME:  T_QEVL1HEIS675.NEW.01 
* TO CLIP NAME:  T_QEVL1HEIS1193.NEW.01
483  EVL1_HEI V     C        00:16:57:21 00:16:59:22 01:10:27:14 01:10:29:14 
M2   EVL1_HEI       037.5                00:16:57:21 
* POND5_T_QEVL1HEIS1193_HEISTS_LUFTHANSA HEIST_A MAN DRIVES A CAR. REFLECTION FACE 
*  IN THE REAR VIEW MIRROR OF THE CAR. SUNSET_48224631 
* FROM CLIP NAME:  T_QEVL1HEIS1193.NEW.01
484  EVL10509 V     C        12:32:29:05 12:32:32:14 01:10:29:13 01:10:32:24 
* FROM CLIP NAME:  EVL1050916A02_IP_0161.NEW.01.SUB.01
485  LOWER_TH V     C        01:00:10:26 01:00:13:24 01:10:29:20 01:10:32:18 
* FROM CLIP NAME:  LOWER THIRD.01.NEW.01
486  EVL1_HEI V     C        00:12:44:22 00:12:47:03 01:10:32:24 01:10:35:04 
M2   EVL1_HEI       037.5                00:12:44:22 
* POND5_T_QEVL1HEIS678_HEISTS_LUFTHANSA HEIST_VAN-ARRIVING-STORAGE-UNIT-NEAR-BROOK 
* LYN-BRIDGE-NIGHT_11350595 
* FROM CLIP NAME:  T_QEVL1HEIS678.NEW.01
FCM: DROP FRAME
487  EVL1_HEI V     C        00:00:05:00 00:00:05:01 01:10:35:04 01:10:35:16 
M2   EVL1_HEI      -028.1                00:00:05:00 
* AETN__QEVL1HEIS057_HEISTS_LUFTHANSA HEIST_BOXES BEING LOADED INTO VAN_106549_MOB 
* STERS_JIMMYTHEGENTBURKE_04 
* FROM CLIP NAME:  QEVL1HEIS057.NEW.01
FCM: NON-DROP FRAME
488     AX    V     C        01:00:00:00 01:00:00:03 01:10:35:16 01:10:35:20 
* AETN__QEVL1HEIS057_HEISTS_LUFTHANSA HEIST_BOXES BEING LOADED INTO VAN_106549_MOB 
* STERS_JIMMYTHEGENTBURKE_04 
* TO CLIP NAME:  QEVL1HEIS057.NEW.01
489  SEVL1HEI V     C        01:00:02:13 01:00:02:16 01:10:35:20 01:10:35:24 
* GETTY IMAGES__SEVL1HEIS214_HEISTS_LUFTHANSA HEIST_BACK VIEW OF HEIST GETAWAY VAN 
*  W/ SIGN “CRIME SCENE, NO ENTRY”_97281770_HTTP://WWW.GETTYIMAGES.COM/LICENSE/972 
* 81770 
* FROM CLIP NAME:  SEVL1HEIS214.TIFF.NEW.01 
* TO CLIP NAME:  SEVL1HEIS214.TIFF.NEW.01
490  SEVL1HEI V     C        01:00:02:16 01:00:03:17 01:10:35:24 01:10:36:25 
* GETTY IMAGES__SEVL1HEIS214_HEISTS_LUFTHANSA HEIST_BACK VIEW OF HEIST GETAWAY VAN 
*  W/ SIGN “CRIME SCENE, NO ENTRY”_97281770_HTTP://WWW.GETTYIMAGES.COM/LICENSE/972 
* 81770 
* FROM CLIP NAME:  SEVL1HEIS214.TIFF.NEW.01
491  SEVL1HEI V     C        01:00:03:17 01:00:03:17 01:10:36:25 01:10:36:25 
491  SEVL1HEI V      010 01:00:03:17 01:00:04:03 01:10:36:25 01:10:37:08 
* GETTY IMAGES__SEVL1HEIS214_HEISTS_LUFTHANSA HEIST_BACK VIEW OF HEIST GETAWAY VAN 
*  W/ SIGN “CRIME SCENE, NO ENTRY”_97281770_HTTP://WWW.GETTYIMAGES.COM/LICENSE/972 
* 81770 
* FROM CLIP NAME:  SEVL1HEIS214.TIFF.NEW.01 
* TO CLIP NAME:  SEVL1HEIS214.TIFF.NEW.01
492  SEVL1HEI V     C        01:00:04:03 01:00:05:00 01:10:37:08 01:10:38:04 
* GETTY IMAGES__SEVL1HEIS214_HEISTS_LUFTHANSA HEIST_BACK VIEW OF HEIST GETAWAY VAN 
*  W/ SIGN “CRIME SCENE, NO ENTRY”_97281770_HTTP://WWW.GETTYIMAGES.COM/LICENSE/972 
* 81770 
* FROM CLIP NAME:  SEVL1HEIS214.TIFF.NEW.01
493  EVL10509 V     C        12:32:40:23 12:32:42:08 01:10:38:04 01:10:39:15 
* FROM CLIP NAME:  EVL1050916A02_IP_0161.NEW.01.SUB.01
494  EVL1_HEI V     C        00:12:50:02 00:12:53:04 01:10:39:15 01:10:42:16 
M2   EVL1_HEI       037.5                00:12:50:02 
* POND5_T_QEVL1HEIS678_HEISTS_LUFTHANSA HEIST_VAN-ARRIVING-STORAGE-UNIT-NEAR-BROOK 
* LYN-BRIDGE-NIGHT_11350595 
* FROM CLIP NAME:  T_QEVL1HEIS678.NEW.01
495  EVL1_HEI V     C        00:12:53:03 00:12:53:03 01:10:42:16 01:10:42:16 
FCM: DROP FRAME 
495  EVL1_HEI V      010 00:01:16:06 00:01:16:19 01:10:42:16 01:10:42:29 
M2   EVL1_HEI       037.5                00:12:53:03 
M2   EVL1_HEI       037.5                00:01:16:06 
* POND5_T_QEVL1HEIS678_HEISTS_LUFTHANSA HEIST_VAN-ARRIVING-STORAGE-UNIT-NEAR-BROOK 
* LYN-BRIDGE-NIGHT_11350595 
* FROM CLIP NAME:  T_QEVL1HEIS678.NEW.01 
* TO CLIP NAME:  QEVL1HEIS381.NEW.01
496  EVL1_HEI V     C        00:01:16:18 00:01:18:14 01:10:42:29 01:10:44:24 
M2   EVL1_HEI       037.5                00:01:16:18 
* NYPD__QEVL1HEIS381_HEISTS_LUFTHANSA HEIST_PARNELL "STACKS" EDWARDS (STILL WITHIN 
*  MOV)_NYPD-STACKS EDWARDS 
* FROM CLIP NAME:  QEVL1HEIS381.NEW.01
497  EVL1_HEI V     C        00:01:18:13 00:01:21:15 01:10:44:24 01:10:47:25 
M2   EVL1_HEI       037.5                00:01:18:13 
* NYPD__QEVL1HEIS381_HEISTS_LUFTHANSA HEIST_PARNELL "STACKS" EDWARDS (STILL WITHIN 
*  MOV)_NYPD-STACKS EDWARDS 
* FROM CLIP NAME:  QEVL1HEIS381.NEW.01
498  EVL1_HEI V     C        00:00:07:17 00:00:10:09 01:10:47:25 01:10:50:16 
M2   EVL1_HEI       037.5                00:00:07:17 
* AETN__QEVL1HEIS058_HEISTS_LUFTHANSA HEIST_POV SHOT AS CAR DRIVES THRU NY / LUFTH 
* ANSA BUILDING_106549_MOBSTERS_JIMMYTHEGENTBURKE_05 
* FROM CLIP NAME:  QEVL1HEIS058.NEW.01
FCM: NON-DROP FRAME
499     AX    V     C        01:00:00:00 01:00:00:03 01:10:50:16 01:10:50:20 
* AETN__QEVL1HEIS058_HEISTS_LUFTHANSA HEIST_POV SHOT AS CAR DRIVES THRU NY / LUFTH 
* ANSA BUILDING_106549_MOBSTERS_JIMMYTHEGENTBURKE_05 
* TO CLIP NAME:  QEVL1HEIS058.NEW.01
500  EVL1_HEI V     C        00:06:20:08 00:06:20:12 01:10:50:20 01:10:50:24 
M2   EVL1_HEI       031.3                00:06:20:08 
* POND5_T_QEVL1HEIS535_HEISTS_LUFTHANSA_CLUB SCENE DISCO BALL_2800788 
* FROM CLIP NAME:  T_QEVL1HEIS535.NEW.01 
* TO CLIP NAME:  T_QEVL1HEIS535.NEW.01
501  EVL1_HEI V     C        00:06:20:11 00:06:21:07 01:10:50:24 01:10:51:18 
M2   EVL1_HEI       031.3                00:06:20:11 
* POND5_T_QEVL1HEIS535_HEISTS_LUFTHANSA_CLUB SCENE DISCO BALL_2800788 
* FROM CLIP NAME:  T_QEVL1HEIS535.NEW.01
502  T_QEVL1H V     C        00:11:14:23 00:11:15:13 01:10:51:18 01:10:52:06 
M2   T_QEVL1H       037.5                00:11:14:23 
* POND5_T_QEVL1HEIS535_HEISTS_LUFTHANSA_CLUB SCENE DISCO BALL_2800788 
* FROM CLIP NAME:  T_QEVL1HEIS491.NEW.01 
* TO CLIP NAME:  T_QEVL1HEIS535.NEW.01
503  T_QEVL1H V     C        00:11:15:12 00:11:16:07 01:10:52:06 01:10:53:00 
M2   T_QEVL1H       037.5                00:11:15:12 
* POND5_T_QEVL1HEIS491_HEISTS_LUFTHANSA HEIST_BARTENDER HANDS POURING DRINK, SERVI 
* NG CLIENTS_49736884 
* FROM CLIP NAME:  T_QEVL1HEIS491.NEW.01
504  EVL1_HEI V     C        00:00:11:01 00:00:12:02 01:10:53:00 01:10:53:25 
* GETTY IMAGES__QEVL1HEIS159_HEISTS_LUFTHANSA HEIST_SLOW MO ICE CUBE FALLING INTO 
* GLASS OF WHISKEY, DRINKING ALCOHOL, DRINK ON TABLE_456044546 
* FROM CLIP NAME:  QEVL1HEIS159.NEW.01
505  EVL1_HEI V     C        00:01:48:07 00:01:49:01 01:10:53:25 01:10:54:14 
* GETTY IMAGES__QEVL1HEIS159_HEISTS_LUFTHANSA HEIST_SLOW MO ICE CUBE FALLING INTO 
* GLASS OF WHISKEY, DRINKING ALCOHOL, DRINK ON TABLE_456044546 
* FROM CLIP NAME:  QEVL1HEIS554.NEW.01 
* TO CLIP NAME:  QEVL1HEIS159.NEW.01
506  EVL1_HEI V     C        00:01:49:02 00:01:51:20 01:10:54:14 01:10:56:20 
* GETTY__QEVL1HEIS554_HEISTS_LUFTHANSA HEIST_PEOPLE IN NIGHT CLUB DANCING WITH THE 
* IR ARMS UP_104116501 
* FROM CLIP NAME:  QEVL1HEIS554.NEW.01
507  EVL10512 V     C        15:22:02:00 15:22:07:06 01:10:56:20 01:11:01:28 
* FROM CLIP NAME:  EVL1051216A03_IP_0226.NEW.01.SUB.01
508  FRANK_CA V     C        01:00:00:00 01:00:03:05 01:10:56:24 01:10:59:29 
* FROM CLIP NAME:  FRANK CALABRESE.02
509  EVL1_HEI V     C        00:12:23:06 00:12:23:22 01:11:01:28 01:11:02:13 
M2   EVL1_HEI       037.5                00:12:23:06 
* POND5_T_QEVL1HEIS642_HEISTS_DINNER SET GANG_POLICE CAR LIGHTS GOING OFF AT NIGHT 
*  CU ON TOP OF CAR_936518 
* FROM CLIP NAME:  T_QEVL1HEIS642.NEW.01
510     BL    V     C        00:00:00:00 00:00:00:00 01:11:02:03 01:11:02:03 
510  GFX_HEIS V      008 00:00:00:00 00:00:00:08 01:11:02:03 01:11:02:13 
* TO CLIP NAME:  GFX_HEIS05_GND_01_V01.MOV
511  GFX_HEIS V     C        00:00:00:08 00:00:05:09 01:11:02:13 01:11:07:14 
* FROM CLIP NAME:  GFX_HEIS05_GND_01_V01.MOV
512  GFX_HEIS V     C        00:00:05:09 00:00:05:09 01:11:07:14 01:11:07:14 
512  GFX_HEIS V      008 01:00:00:09 01:00:00:19 01:11:07:14 01:11:07:24 
* FROM CLIP NAME:  GFX_HEIS05_GND_01_V01.MOV 
* TO CLIP NAME:  GFX_HEIS04_MAP_01.TIF
513  GFX_HEIS V     C        01:00:00:19 01:00:05:20 01:11:07:24 01:11:12:25 
* FROM CLIP NAME:  GFX_HEIS04_MAP_01.TIF
514  SEVL1HEI V     C        01:00:02:19 01:00:06:02 01:11:12:25 01:11:16:04 
* GETTY IMAGES__SEVL1HEIS213_HEISTS_LUFTHANSA HEIST_HIEST GETAWAY VAN WITH SIGN “C 
* RIME SCENE, NO ENTRY”_9281779_HTTP://WWW.GETTYIMAGES.COM/LICENSE/97281779 
* FROM CLIP NAME:  SEVL1HEIS213.TIFF.NEW.01
515  EVL1_HEI V     C        00:12:25:23 00:12:29:09 01:11:12:25 01:11:16:10 
M2   EVL1_HEI       037.5                00:12:25:23 
* POND5_T_QEVL1HEIS642_HEISTS_DINNER SET GANG_POLICE CAR LIGHTS GOING OFF AT NIGHT 
*  CU ON TOP OF CAR_936518 
* FROM CLIP NAME:  T_QEVL1HEIS642.NEW.01
516  SEVL1HEI V     C        01:00:06:02 01:00:06:02 01:11:16:04 01:11:16:04 
516  MORTICE_ V      010 01:02:12:05 01:02:12:15 01:11:16:04 01:11:16:16 
* GETTY IMAGES__SEVL1HEIS213_HEISTS_LUFTHANSA HEIST_HIEST GETAWAY VAN WITH SIGN “C 
* RIME SCENE, NO ENTRY”_9281779_HTTP://WWW.GETTYIMAGES.COM/LICENSE/97281779 
* FROM CLIP NAME:  SEVL1HEIS213.TIFF.NEW.01 
* TO CLIP NAME:  MORTICE_02 WITH ALPHA_V03.TIF
FCM: DROP FRAME
517  EVL1_HEI V     C        00:01:17:05 00:01:19:27 01:11:16:10 01:11:20:23 
M2   EVL1_HEI       022.9                00:01:17:05 
* NYPD__QEVL1HEIS382_HEISTS_LUFTHANSA HEIST_PARNELL "STACKS" EDWARDS (STILL WITHIN 
*  MOV)_NYPD-STACKS EDWARDS 
* FROM CLIP NAME:  QEVL1HEIS382.NEW.01
FCM: NON-DROP FRAME
518  MORTICE_ V     C        01:02:12:15 01:02:16:15 01:11:16:16 01:11:20:16 
* FROM CLIP NAME:  MORTICE_02 WITH ALPHA_V03.TIF
519  MORTICE_ V     C        01:02:16:15 01:02:16:15 01:11:20:16 01:11:20:16 
519     BL    V      010 00:00:00:00 00:00:00:10 01:11:20:16 01:11:20:29 
* FROM CLIP NAME:  MORTICE_02 WITH ALPHA_V03.TIF
520  EVL1_HEI V     C        00:02:49:04 00:02:49:10 01:11:20:23 01:11:20:29 
* POND5_T_QEVL1HEIS455_HEISTS_LUFTHANSA HEIST_POLICE CAR WITH FLASHING LIGHTS PORT 
*  AUTHROITY_60679840 
* FROM CLIP NAME:  T_QEVL1HEIS455.NEW.01
521  EVL1_HEI V     C        00:02:49:10 00:02:50:05 01:11:20:29 01:11:21:24 
* POND5_T_QEVL1HEIS455_HEISTS_LUFTHANSA HEIST_POLICE CAR WITH FLASHING LIGHTS PORT 
*  AUTHROITY_60679840 
* FROM CLIP NAME:  T_QEVL1HEIS455.NEW.01 
* TO CLIP NAME:  T_QEVL1HEIS455.NEW.01
522  EVL1_HEI V     C        00:02:50:05 00:02:50:27 01:11:21:24 01:11:22:16 
* POND5_T_QEVL1HEIS455_HEISTS_LUFTHANSA HEIST_POLICE CAR WITH FLASHING LIGHTS PORT 
*  AUTHROITY_60679840 
* FROM CLIP NAME:  T_QEVL1HEIS455.NEW.01
523  EVL1_HEI V     C        00:02:50:28 00:02:50:28 01:11:22:16 01:11:22:16 
523  T_QEVL1H V      010 00:43:50:15 00:43:50:28 01:11:22:16 01:11:22:29 
M2   T_QEVL1H       037.5                00:43:50:15 
* POND5_T_QEVL1HEIS455_HEISTS_LUFTHANSA HEIST_POLICE CAR WITH FLASHING LIGHTS PORT 
*  AUTHROITY_60679840 
* FROM CLIP NAME:  T_QEVL1HEIS455.NEW.01 
* TO CLIP NAME:  T_QEVL1HEIS494.NEW.01
524  T_QEVL1H V     C        00:43:50:27 00:43:52:02 01:11:22:29 01:11:24:03 
M2   T_QEVL1H       037.5                00:43:50:27 
* NBC NEWS_T_QEVL1HEIS494_HEISTS_LUFTHANSA HEIST_NEWS ON LUFTHANSA ROBBERY, COPS P 
* RESS CONFERENCE, LOUIS WERNER ARREST, CARGO BUILDING INTERIOR EXTERIOR, AERIAL, 
* EXAMINE BROKEN FENCE, EMPLOYEE B-ROLL_MN16F8078-001_WO1.MOV 
* FROM CLIP NAME:  T_QEVL1HEIS494.NEW.01
525  EVL1_HEI V     C        00:11:10:08 00:11:10:28 01:11:24:03 01:11:24:21 
M2   EVL1_HEI       037.5                00:11:10:08 
* POND5_T_QEVL1HEIS463_HEISTS_LUFTHANSA HEIST_POLICE LIGHTS VINTAGE SUPER 8_428151 
* 33 
* FROM CLIP NAME:  T_QEVL1HEIS463.NEW.01
526  SEVL1HEI V     C        01:00:05:00 01:00:06:06 01:11:24:21 01:11:25:29 
* POND5_T_QEVL1HEIS463_HEISTS_LUFTHANSA HEIST_POLICE LIGHTS VINTAGE SUPER 8_428151 
* 33 
* FROM CLIP NAME:  SEVL1HEIS060.TIFF.NEW.01 
* TO CLIP NAME:  T_QEVL1HEIS463.NEW.01
527  SEVL1HEI V     C        01:00:06:06 01:00:08:00 01:11:25:29 01:11:27:21 
* GETTY IMAGES__SEVL1HEIS060_HEISTS_LUFTHANSA HEIST_JIMMY THE GENT BURKE BEING ARR 
* ESTED_97279698_HTTP://WWW.GETTYIMAGES.COM/LICENSE/97279698 
* FROM CLIP NAME:  SEVL1HEIS060.TIFF.NEW.01
528  EVL1_HEI V     C        00:10:47:21 00:10:48:17 01:11:27:21 01:11:28:16 
M2   EVL1_HEI       037.5                00:10:47:21 
* GETTY IMAGES__SEVL1HEIS060_HEISTS_LUFTHANSA HEIST_JIMMY THE GENT BURKE BEING ARR 
* ESTED_97279698_HTTP://WWW.GETTYIMAGES.COM/LICENSE/97279698 
* FROM CLIP NAME:  T_QEVL1HEIS346.NEW.01 
* TO CLIP NAME:  SEVL1HEIS060.TIFF.NEW.01
529  EVL1_HEI V     C        00:10:48:16 00:10:49:29 01:11:28:16 01:11:29:29 
M2   EVL1_HEI       037.5                00:10:48:16 
* POND5_T_QEVL1HEIS346_HEISTS_LUFTHANSA HEIST_GLOVED HAND PICKING UP HAND GUN_5883 
* 1232 
* FROM CLIP NAME:  T_QEVL1HEIS346.NEW.01
530  QEVL1HEI V     C        00:08:52:11 00:08:53:00 01:11:29:06 01:11:29:25 
M2   QEVL1HEI       037.5                00:08:52:11 
* FROM CLIP NAME:  QEVL1HEIS469.NEW.01
531  QEVL1HEI V     C        00:08:53:00 00:08:54:20 01:11:29:25 01:11:31:15 
M2   QEVL1HEI       037.5                00:08:53:00 
* GETTY IMAGES__QEVL1HEIS469_HEISTS_LUFTHANSA HEIST_SLOW MOTION WIDE SHOT MEN RUNN 
* ING THROUGH THE HALLS SD ONLY_644-12 
* FROM CLIP NAME:  QEVL1HEIS469.NEW.01
FCM: DROP FRAME
532  EVL1_HEI V     C        00:00:32:10 00:00:34:00 01:11:31:10 01:11:33:00 
M2   EVL1_HEI       037.5                00:00:32:10 
* AETN__QEVL1HEIS078_HEISTS_LUFTHANSA HEIST_ROBBER POINTS GUN; CU OF HANDS TIED BE 
* HIND BACK; MAN REACTS TO GUN POINTED AT HIM; BOXES_106549_MOBSTERS_JIMMYTHEGENTB 
* URKE_25 
* FROM CLIP NAME:  QEVL1HEIS078.NEW.01
533  EVL1_HEI V     C        00:00:12:17 00:00:13:25 01:11:33:00 01:11:34:08 
M2   EVL1_HEI       037.5                00:00:12:17 
* AETN__QEVL1HEIS078_HEISTS_LUFTHANSA HEIST_ROBBER POINTS GUN; CU OF HANDS TIED BE 
* HIND BACK; MAN REACTS TO GUN POINTED AT HIM; BOXES_106549_MOBSTERS_JIMMYTHEGENTB 
* URKE_25 
* FROM CLIP NAME:  QEVL1HEIS060.NEW.01 
* TO CLIP NAME:  QEVL1HEIS078.NEW.01
534  EVL1_HEI V     C        00:00:13:25 00:00:14:09 01:11:34:08 01:11:34:21 
M2   EVL1_HEI       037.5                00:00:13:25 
* AETN__QEVL1HEIS060_HEISTS_LUFTHANSA HEIST_MAN BEATING MAN UP; MAN WALKS TOWARD C 
* AMERA THREATENINGLY_106549_MOBSTERS_JIMMYTHEGENTBURKE_07 
* FROM CLIP NAME:  QEVL1HEIS060.NEW.01
FCM: NON-DROP FRAME
535     AX    V     C        01:00:00:00 01:00:00:03 01:11:34:21 01:11:34:25 
* AETN__QEVL1HEIS060_HEISTS_LUFTHANSA HEIST_MAN BEATING MAN UP; MAN WALKS TOWARD C 
* AMERA THREATENINGLY_106549_MOBSTERS_JIMMYTHEGENTBURKE_07 
* TO CLIP NAME:  QEVL1HEIS060.NEW.01
536  EVL10509 V     C        11:14:12:09 11:14:27:19 01:11:34:25 01:11:50:08 
* FROM CLIP NAME:  EVL1050916A01_IP_0159.NEW.01.SUB.02
537  LOWER_TH V     C        01:00:10:09 01:00:13:29 01:11:35:14 01:11:39:04 
* FROM CLIP NAME:  LOWER THIRD.04
