TITLE:   12_16 TL01 MUSIC 
FCM: DROP FRAME
001  BFD_CHIL A9    C        01:00:00:20 01:00:01:05 01:00:11:04 01:00:11:19 
* FROM CLIP NAME:  BFD_CHILI.MP3
002  BFD_CHIL A10   C        01:00:00:20 01:00:01:05 01:00:11:04 01:00:11:19 
* FROM CLIP NAME:  BFD_CHILI.MP3
003  BFD_CHIL A9    C        01:00:01:05 01:00:02:05 01:00:11:19 01:00:12:19 
* FROM CLIP NAME:  BFD_CHILI.MP3 
* TO CLIP NAME:  BFD_CHILI.MP3
004  BFD_CHIL A10   C        01:00:01:05 01:00:02:05 01:00:11:19 01:00:12:19 
* FROM CLIP NAME:  BFD_CHILI.MP3 
* TO CLIP NAME:  BFD_CHILI.MP3
005  BFD_CHIL A9    C        01:00:02:05 01:00:12:01 01:00:12:19 01:00:22:15 
* FROM CLIP NAME:  BFD_CHILI.MP3
006  BFD_CHIL A10   C        01:00:02:05 01:00:12:01 01:00:12:19 01:00:22:15 
* FROM CLIP NAME:  BFD_CHILI.MP3
007  BFD_CHIL A9    C        01:01:16:24 01:01:16:29 01:00:22:15 01:00:22:20 
* FROM CLIP NAME:  BFD_CHILI.MP3 
* TO CLIP NAME:  BFD_CHILI.MP3
008  BFD_CHIL A10   C        01:01:16:24 01:01:16:29 01:00:22:15 01:00:22:20 
* FROM CLIP NAME:  BFD_CHILI.MP3 
* TO CLIP NAME:  BFD_CHILI.MP3
009  BFD_CHIL A9    C        01:01:16:29 01:01:19:24 01:00:22:20 01:00:25:15 
* FROM CLIP NAME:  BFD_CHILI.MP3
010  BFD_CHIL A10   C        01:01:16:29 01:01:19:24 01:00:22:20 01:00:25:15 
* FROM CLIP NAME:  BFD_CHILI.MP3
011  BFD_COUN A7    C        01:00:00:00 01:00:17:20 01:00:24:14 01:00:42:04 
* FROM CLIP NAME:  BFD_COUNTER SUIT.MP3
012  BFD_COUN A8    C        01:00:00:00 01:00:17:20 01:00:24:14 01:00:42:04 
* FROM CLIP NAME:  BFD_COUNTER SUIT.MP3
013  BFD_COUN A7    C        01:01:41:01 01:01:43:08 01:00:42:04 01:00:44:11 
* FROM CLIP NAME:  BFD_COUNTER SUIT.MP3
014  BFD_COUN A8    C        01:01:41:01 01:01:43:08 01:00:42:04 01:00:44:11 
* FROM CLIP NAME:  BFD_COUNTER SUIT.MP3
015  BENJAMIN A9    C        01:00:00:06 01:00:17:02 01:00:43:05 01:01:00:03 
* FROM CLIP NAME:  BENJAMINDAVIS_SHOCKER.MP3
016  BENJAMIN A10   C        01:00:00:06 01:00:17:02 01:00:43:05 01:01:00:03 
* FROM CLIP NAME:  BENJAMINDAVIS_SHOCKER.MP3
017  BENJAMIN A9    C        01:00:43:11 01:00:45:16 01:01:00:03 01:01:02:08 
* FROM CLIP NAME:  BENJAMINDAVIS_SHOCKER.MP3
018  BENJAMIN A10   C        01:00:43:11 01:00:45:16 01:01:00:03 01:01:02:08 
* FROM CLIP NAME:  BENJAMINDAVIS_SHOCKER.MP3
019  BFD_BUST A7    C        01:00:00:00 01:00:21:11 01:01:02:10 01:01:23:21 
* FROM CLIP NAME:  BFD_BUSTER.MP3
020  BFD_BUST A8    C        01:00:00:00 01:00:21:11 01:01:02:10 01:01:23:21 
* FROM CLIP NAME:  BFD_BUSTER.MP3
021  BFD_BUST A7    C        01:00:56:29 01:01:01:24 01:01:23:21 01:01:28:14 
* FROM CLIP NAME:  BFD_BUSTER.MP3
022  BFD_BUST A8    C        01:00:56:29 01:01:01:24 01:01:23:21 01:01:28:14 
* FROM CLIP NAME:  BFD_BUSTER.MP3
023  BENJAMIN A9    C        01:00:29:18 01:00:54:06 01:01:26:00 01:01:50:18 
* FROM CLIP NAME:  BENJAMINDAVIS_GET ON TOP.MP3
024  BENJAMIN A10   C        01:00:29:18 01:00:54:06 01:01:26:00 01:01:50:18 
* FROM CLIP NAME:  BENJAMINDAVIS_GET ON TOP.MP3
025  PSM_BAD_ A7    C        01:00:00:00 01:00:03:11 01:02:13:28 01:02:17:09 
* FROM CLIP NAME:  PSM_BAD BOY DNB_FB.MP3
026  PSM_BAD_ A8    C        01:00:00:00 01:00:03:11 01:02:13:28 01:02:17:09 
* FROM CLIP NAME:  PSM_BAD BOY DNB_FB.MP3
027  PSM_BAD_ A7    C        01:00:03:11 01:00:03:26 01:02:17:09 01:02:17:24 
* FROM CLIP NAME:  PSM_BAD BOY DNB_FB.MP3 
* TO CLIP NAME:  PSM_BAD BOY DNB_FB.MP3
028  PSM_BAD_ A8    C        01:00:03:11 01:00:03:26 01:02:17:09 01:02:17:24 
* FROM CLIP NAME:  PSM_BAD BOY DNB_FB.MP3 
* TO CLIP NAME:  PSM_BAD BOY DNB_FB.MP3
029  PSM_BAD_ A7    C        01:00:03:26 01:00:10:29 01:02:17:24 01:02:24:27 
* FROM CLIP NAME:  PSM_BAD BOY DNB_FB.MP3
030  PSM_BAD_ A8    C        01:00:03:26 01:00:10:29 01:02:17:24 01:02:24:27 
* FROM CLIP NAME:  PSM_BAD BOY DNB_FB.MP3
031  PSM_BAD_ A7    C        01:00:10:29 01:00:11:05 01:02:24:27 01:02:25:03 
* FROM CLIP NAME:  PSM_BAD BOY DNB_FB.MP3 
* TO CLIP NAME:  PSM_BAD BOY DNB_FB.MP3
032  PSM_BAD_ A8    C        01:00:10:29 01:00:11:05 01:02:24:27 01:02:25:03 
* FROM CLIP NAME:  PSM_BAD BOY DNB_FB.MP3 
* TO CLIP NAME:  PSM_BAD BOY DNB_FB.MP3
033  PSM_BAD_ A7    C        01:00:11:05 01:00:36:24 01:02:25:03 01:02:50:22 
* FROM CLIP NAME:  PSM_BAD BOY DNB_FB.MP3
034  PSM_BAD_ A8    C        01:00:11:05 01:00:36:24 01:02:25:03 01:02:50:22 
* FROM CLIP NAME:  PSM_BAD BOY DNB_FB.MP3
035  PSM_BAD_ A7    C        01:01:42:10 01:01:48:13 01:02:50:22 01:02:56:25 
* FROM CLIP NAME:  PSM_BAD BOY DNB_FB.MP3
036  PSM_BAD_ A8    C        01:01:42:10 01:01:48:13 01:02:50:22 01:02:56:25 
* FROM CLIP NAME:  PSM_BAD BOY DNB_FB.MP3
037  PJP_URBA A9    C        01:00:00:00 01:00:10:27 01:02:51:23 01:03:02:22 
* FROM CLIP NAME:  PJP_URBAN RETRO_MB_BED.AIF
038  PJP_URBA A10   C        01:00:00:00 01:00:10:27 01:02:51:23 01:03:02:22 
* FROM CLIP NAME:  PJP_URBAN RETRO_MB_BED.AIF
039  PJP_URBA A9    C        01:01:59:26 01:02:05:10 01:03:02:22 01:03:08:06 
* FROM CLIP NAME:  PJP_URBAN RETRO_MB_BED.AIF
040  PJP_URBA A10   C        01:01:59:26 01:02:05:10 01:03:02:22 01:03:08:06 
* FROM CLIP NAME:  PJP_URBAN RETRO_MB_BED.AIF
041  BENJAMIN A7    C        01:00:01:11 01:00:24:17 01:03:05:00 01:03:28:06 
* FROM CLIP NAME:  BENJAMINDAVIS_DECISIONS 02 ALTMIX.MP3
042  BENJAMIN A8    C        01:00:01:11 01:00:24:17 01:03:05:00 01:03:28:06 
* FROM CLIP NAME:  BENJAMINDAVIS_DECISIONS 02 ALTMIX.MP3
043  BENJAMIN A7    C        01:01:34:09 01:01:37:20 01:03:28:06 01:03:31:17 
* FROM CLIP NAME:  BENJAMINDAVIS_DECISIONS 007.MP3
044  BENJAMIN A8    C        01:01:34:09 01:01:37:20 01:03:28:06 01:03:31:17 
* FROM CLIP NAME:  BENJAMINDAVIS_DECISIONS 007.MP3
045  27_SFP_G A9    C        01:00:00:00 01:00:00:14 01:03:29:17 01:03:30:01 
* FROM CLIP NAME:  27 SFP GO GET EM (BED).MP3
046  27_SFP_G A10   C        01:00:00:00 01:00:00:14 01:03:29:17 01:03:30:01 
* FROM CLIP NAME:  27 SFP GO GET EM (BED).MP3
047  27_SFP_G A9    C        01:00:00:14 01:00:00:20 01:03:30:01 01:03:30:07 
* FROM CLIP NAME:  27 SFP GO GET EM (BED).MP3 
* TO CLIP NAME:  27 SFP GO GET EM (BED).MP3
048  27_SFP_G A10   C        01:00:00:14 01:00:00:20 01:03:30:01 01:03:30:07 
* FROM CLIP NAME:  27 SFP GO GET EM (BED).MP3 
* TO CLIP NAME:  27 SFP GO GET EM (BED).MP3
049  27_SFP_G A9    C        01:00:00:20 01:00:33:10 01:03:30:07 01:04:02:29 
* FROM CLIP NAME:  27 SFP GO GET EM (BED).MP3
050  27_SFP_G A10   C        01:00:00:20 01:00:33:10 01:03:30:07 01:04:02:29 
* FROM CLIP NAME:  27 SFP GO GET EM (BED).MP3
051  27_SFP_G A9    C        01:01:55:11 01:01:59:00 01:04:02:29 01:04:06:18 
* FROM CLIP NAME:  27 SFP GO GET EM (BED).MP3
052  27_SFP_G A10   C        01:01:55:11 01:01:59:00 01:04:02:29 01:04:06:18 
* FROM CLIP NAME:  27 SFP GO GET EM (BED).MP3
053  PSM_CHAS A7    C        01:00:16:23 01:00:26:13 01:04:04:17 01:04:14:07 
* FROM CLIP NAME:  PSM_CHASE BLAZE NO MELODY_FB.MP3
054  PSM_CHAS A8    C        01:00:16:23 01:00:26:13 01:04:04:17 01:04:14:07 
* FROM CLIP NAME:  PSM_CHASE BLAZE NO MELODY_FB.MP3
055  PSM_CHAS A7    C        01:00:26:13 01:00:26:19 01:04:14:07 01:04:14:13 
* FROM CLIP NAME:  PSM_CHASE BLAZE NO MELODY_FB.MP3 
* TO CLIP NAME:  PSM_CHASE BLAZE NO MELODY_FB.MP3
056  PSM_CHAS A8    C        01:00:26:13 01:00:26:19 01:04:14:07 01:04:14:13 
* FROM CLIP NAME:  PSM_CHASE BLAZE NO MELODY_FB.MP3 
* TO CLIP NAME:  PSM_CHASE BLAZE NO MELODY_FB.MP3
057  PSM_CHAS A7    C        01:00:26:19 01:00:29:15 01:04:14:13 01:04:17:09 
* FROM CLIP NAME:  PSM_CHASE BLAZE NO MELODY_FB.MP3
058  PSM_CHAS A8    C        01:00:26:19 01:00:29:15 01:04:14:13 01:04:17:09 
* FROM CLIP NAME:  PSM_CHASE BLAZE NO MELODY_FB.MP3
059  PSM_CHAS A7    C        01:01:21:19 01:01:26:20 01:04:17:09 01:04:22:10 
* FROM CLIP NAME:  PSM_CHASE BLAZE NO MELODY_FB.MP3
060  PSM_CHAS A8    C        01:01:21:19 01:01:26:20 01:04:17:09 01:04:22:10 
* FROM CLIP NAME:  PSM_CHASE BLAZE NO MELODY_FB.MP3
061  BENJAMIN A9    C        01:00:00:00 01:00:41:16 01:04:19:29 01:05:01:17 
* FROM CLIP NAME:  BENJAMINDAVIS_YO, PICK ME.MP3
062  BENJAMIN A10   C        01:00:00:00 01:00:41:16 01:04:19:29 01:05:01:17 
* FROM CLIP NAME:  BENJAMINDAVIS_YO, PICK ME.MP3
063  BENJAMIN A9    C        01:01:28:12 01:01:34:00 01:05:01:17 01:05:07:05 
* FROM CLIP NAME:  BENJAMINDAVIS_YO, PICK ME.MP3
064  BENJAMIN A10   C        01:01:28:12 01:01:34:00 01:05:01:17 01:05:07:05 
* FROM CLIP NAME:  BENJAMINDAVIS_YO, PICK ME.MP3
065  PJP_SEVE A7    C        01:00:00:00 01:00:01:06 01:05:03:04 01:05:04:10 
* FROM CLIP NAME:  PJP_SEVEN DAYS_MB_BED.AIF
066  PJP_SEVE A8    C        01:00:00:00 01:00:01:06 01:05:03:04 01:05:04:10 
* FROM CLIP NAME:  PJP_SEVEN DAYS_MB_BED.AIF
067  PJP_SEVE A7    C        01:00:01:06 01:00:01:26 01:05:04:10 01:05:05:00 
* FROM CLIP NAME:  PJP_SEVEN DAYS_MB_BED.AIF 
* TO CLIP NAME:  PJP_SEVEN DAYS_MB_BED.AIF
068  PJP_SEVE A8    C        01:00:01:06 01:00:01:26 01:05:04:10 01:05:05:00 
* FROM CLIP NAME:  PJP_SEVEN DAYS_MB_BED.AIF 
* TO CLIP NAME:  PJP_SEVEN DAYS_MB_BED.AIF
069  PJP_SEVE A7    C        01:00:01:26 01:00:20:14 01:05:05:00 01:05:23:18 
* FROM CLIP NAME:  PJP_SEVEN DAYS_MB_BED.AIF
070  PJP_SEVE A8    C        01:00:01:26 01:00:20:14 01:05:05:00 01:05:23:18 
* FROM CLIP NAME:  PJP_SEVEN DAYS_MB_BED.AIF
071  PJP_SEVE A7    C        01:02:20:10 01:02:27:20 01:05:23:18 01:05:30:28 
* FROM CLIP NAME:  PJP_SEVEN DAYS_MB_BED.AIF
072  PJP_SEVE A8    C        01:02:20:10 01:02:27:20 01:05:23:18 01:05:30:28 
* FROM CLIP NAME:  PJP_SEVEN DAYS_MB_BED.AIF
073  21_SFP_S A9    C        01:00:00:00 01:00:22:24 01:06:16:05 01:06:38:29 
* FROM CLIP NAME:  21 SFP SAFE LANDING.MP3.SUB.01
074  21_SFP_S A10   C        01:00:00:00 01:00:22:24 01:06:16:05 01:06:38:29 
* FROM CLIP NAME:  21 SFP SAFE LANDING.MP3.SUB.01
075  21_SFP_S A9    C        01:01:46:01 01:01:48:01 01:06:38:29 01:06:40:29 
* FROM CLIP NAME:  21 SFP SAFE LANDING.MP3.SUB.01 
* TO CLIP NAME:  21 SFP SAFE LANDING.MP3.SUB.01
076  21_SFP_S A10   C        01:01:46:01 01:01:48:01 01:06:38:29 01:06:40:29 
* FROM CLIP NAME:  21 SFP SAFE LANDING.MP3.SUB.01 
* TO CLIP NAME:  21 SFP SAFE LANDING.MP3.SUB.01
077  21_SFP_S A9    C        01:01:48:01 01:02:01:28 01:06:40:29 01:06:54:26 
* FROM CLIP NAME:  21 SFP SAFE LANDING.MP3.SUB.01
078  21_SFP_S A10   C        01:01:48:01 01:02:01:28 01:06:40:29 01:06:54:26 
* FROM CLIP NAME:  21 SFP SAFE LANDING.MP3.SUB.01
079  XCD249_0 A7    C        01:00:00:00 01:00:01:08 01:06:59:01 01:07:00:11 
* FROM CLIP NAME:  XCD249_06 BITTER TREAT.AIF.SUB.01
080  XCD249_0 A8    C        01:00:00:00 01:00:01:08 01:06:59:01 01:07:00:11 
* FROM CLIP NAME:  XCD249_06 BITTER TREAT.AIF.SUB.01
081  XCD249_0 A7    C        01:00:01:08 01:00:01:14 01:07:00:11 01:07:00:17 
* FROM CLIP NAME:  XCD249_06 BITTER TREAT.AIF.SUB.01 
* TO CLIP NAME:  XCD249_06 BITTER TREAT.AIF.SUB.01
082  XCD249_0 A8    C        01:00:01:08 01:00:01:14 01:07:00:11 01:07:00:17 
* FROM CLIP NAME:  XCD249_06 BITTER TREAT.AIF.SUB.01 
* TO CLIP NAME:  XCD249_06 BITTER TREAT.AIF.SUB.01
083  XCD249_0 A7    C        01:00:01:14 01:00:34:07 01:07:00:17 01:07:33:10 
* FROM CLIP NAME:  XCD249_06 BITTER TREAT.AIF.SUB.01
084  XCD249_0 A8    C        01:00:01:14 01:00:34:07 01:07:00:17 01:07:33:10 
* FROM CLIP NAME:  XCD249_06 BITTER TREAT.AIF.SUB.01
085  XCD249_0 A7    C        01:00:20:16 01:00:30:25 01:07:33:10 01:07:43:19 
* FROM CLIP NAME:  XCD249_06 BITTER TREAT.AIF.SUB.01
086  XCD249_0 A8    C        01:00:20:16 01:00:30:25 01:07:33:10 01:07:43:19 
* FROM CLIP NAME:  XCD249_06 BITTER TREAT.AIF.SUB.01
087  XCD249_0 A7    C        01:02:23:25 01:02:27:09 01:07:43:19 01:07:47:03 
* FROM CLIP NAME:  XCD249_06 BITTER TREAT.AIF.SUB.01
088  XCD249_0 A8    C        01:02:23:25 01:02:27:09 01:07:43:19 01:07:47:03 
* FROM CLIP NAME:  XCD249_06 BITTER TREAT.AIF.SUB.01
089  XCD249_0 A7    C        01:02:27:09 01:02:28:23 01:07:47:03 01:07:48:17 
* FROM CLIP NAME:  XCD249_06 BITTER TREAT.AIF.SUB.01
090  XCD249_0 A8    C        01:02:27:09 01:02:28:23 01:07:47:03 01:07:48:17 
* FROM CLIP NAME:  XCD249_06 BITTER TREAT.AIF.SUB.01
091  XCD249_0 A7    C        01:02:28:23 01:02:29:03 01:07:48:17 01:07:48:27 
* FROM CLIP NAME:  XCD249_06 BITTER TREAT.AIF.SUB.01 
* TO CLIP NAME:  XCD249_06 BITTER TREAT.AIF.SUB.01
092  XCD249_0 A8    C        01:02:28:23 01:02:29:03 01:07:48:17 01:07:48:27 
* FROM CLIP NAME:  XCD249_06 BITTER TREAT.AIF.SUB.01 
* TO CLIP NAME:  XCD249_06 BITTER TREAT.AIF.SUB.01
093  XCD249_0 A7    C        01:02:29:03 01:02:31:11 01:07:48:27 01:07:51:05 
* FROM CLIP NAME:  XCD249_06 BITTER TREAT.AIF.SUB.01
094  XCD249_0 A8    C        01:02:29:03 01:02:31:11 01:07:48:27 01:07:51:05 
* FROM CLIP NAME:  XCD249_06 BITTER TREAT.AIF.SUB.01
095  07_SFP_M A9    C        01:00:00:00 01:00:06:24 01:07:51:10 01:07:58:04 
* FROM CLIP NAME:  07 SFP MY SHADOW AND ME (BED).MP3.COPY.01
096  07_SFP_M A10   C        01:00:00:00 01:00:06:24 01:07:51:10 01:07:58:04 
* FROM CLIP NAME:  07 SFP MY SHADOW AND ME (BED).MP3.COPY.01
097  07_SFP_M A9    C        01:00:06:24 01:00:07:04 01:07:58:04 01:07:58:14 
* FROM CLIP NAME:  07 SFP MY SHADOW AND ME (BED).MP3.COPY.01 
* TO CLIP NAME:  07 SFP MY SHADOW AND ME (BED).MP3.COPY.01
098  07_SFP_M A10   C        01:00:06:24 01:00:07:04 01:07:58:04 01:07:58:14 
* FROM CLIP NAME:  07 SFP MY SHADOW AND ME (BED).MP3.COPY.01 
* TO CLIP NAME:  07 SFP MY SHADOW AND ME (BED).MP3.COPY.01
099  07_SFP_M A9    C        01:00:07:04 01:00:16:10 01:07:58:14 01:08:07:22 
* FROM CLIP NAME:  07 SFP MY SHADOW AND ME (BED).MP3.COPY.01
100  07_SFP_M A10   C        01:00:07:04 01:00:16:10 01:07:58:14 01:08:07:22 
* FROM CLIP NAME:  07 SFP MY SHADOW AND ME (BED).MP3.COPY.01
101  07_SFP_M A7    C        01:00:25:18 01:00:26:04 01:08:07:22 01:08:08:08 
* FROM CLIP NAME:  07 SFP MY SHADOW AND ME (BED).MP3.COPY.01
102  07_SFP_M A8    C        01:00:25:18 01:00:26:04 01:08:07:22 01:08:08:08 
* FROM CLIP NAME:  07 SFP MY SHADOW AND ME (BED).MP3.COPY.01
103  07_SFP_M A9    C        01:00:00:00 01:00:11:05 01:08:08:09 01:08:19:14 
* FROM CLIP NAME:  07 SFP MY SHADOW AND ME (BED).MP3.COPY.01
104  07_SFP_M A10   C        01:00:00:00 01:00:11:05 01:08:08:09 01:08:19:14 
* FROM CLIP NAME:  07 SFP MY SHADOW AND ME (BED).MP3.COPY.01
105  07_SFP_M A9    C        01:00:50:12 01:00:52:09 01:08:19:14 01:08:21:11 
* FROM CLIP NAME:  07 SFP MY SHADOW AND ME (BED).MP3.COPY.01
106  07_SFP_M A10   C        01:00:50:12 01:00:52:09 01:08:19:14 01:08:21:11 
* FROM CLIP NAME:  07 SFP MY SHADOW AND ME (BED).MP3.COPY.01
107  10_SFP_M A9    C        01:02:17:10 01:02:23:27 01:08:21:11 01:08:27:28 
* FROM CLIP NAME:  10 SFP MY SHADOW AND ME (BED NO DRUMS NO MANDOLIN).MP3.COPY.01
108  10_SFP_M A10   C        01:02:17:10 01:02:23:27 01:08:21:11 01:08:27:28 
* FROM CLIP NAME:  10 SFP MY SHADOW AND ME (BED NO DRUMS NO MANDOLIN).MP3.COPY.01
109  05_SFP_P A7    C        01:00:00:00 01:00:02:28 01:08:26:11 01:08:29:09 
* FROM CLIP NAME:  05 SFP PILOT LIGHTS.MP3.COPY.01
110  05_SFP_P A8    C        01:00:00:00 01:00:02:28 01:08:26:11 01:08:29:09 
* FROM CLIP NAME:  05 SFP PILOT LIGHTS.MP3.COPY.01
111  05_SFP_P A7    C        01:00:19:05 01:00:35:17 01:08:29:09 01:08:45:21 
* FROM CLIP NAME:  05 SFP PILOT LIGHTS.MP3.COPY.01
112  05_SFP_P A8    C        01:00:19:05 01:00:35:17 01:08:29:09 01:08:45:21 
* FROM CLIP NAME:  05 SFP PILOT LIGHTS.MP3.COPY.01
113  05_SFP_P A7    C        01:02:34:13 01:02:37:24 01:08:45:21 01:08:49:02 
* FROM CLIP NAME:  05 SFP PILOT LIGHTS.MP3.COPY.01
114  05_SFP_P A8    C        01:02:34:13 01:02:37:24 01:08:45:21 01:08:49:02 
* FROM CLIP NAME:  05 SFP PILOT LIGHTS.MP3.COPY.01
115  AUTOMATI A9    C        01:00:00:09 01:00:03:13 01:08:48:28 01:08:52:02 
* FROM CLIP NAME:  AUTOMATICEMPIRE_ALL MY PROBLEMS.MP3
116  AUTOMATI A10   C        01:00:00:09 01:00:03:13 01:08:48:28 01:08:52:02 
* FROM CLIP NAME:  AUTOMATICEMPIRE_ALL MY PROBLEMS.MP3
117  AUTOMATI A9    C        01:00:03:13 01:00:03:19 01:08:52:02 01:08:52:08 
* FROM CLIP NAME:  AUTOMATICEMPIRE_ALL MY PROBLEMS.MP3 
* TO CLIP NAME:  AUTOMATICEMPIRE_ALL MY PROBLEMS.MP3
118  AUTOMATI A10   C        01:00:03:13 01:00:03:19 01:08:52:02 01:08:52:08 
* FROM CLIP NAME:  AUTOMATICEMPIRE_ALL MY PROBLEMS.MP3 
* TO CLIP NAME:  AUTOMATICEMPIRE_ALL MY PROBLEMS.MP3
119  AUTOMATI A9    C        01:00:03:19 01:00:31:14 01:08:52:08 01:09:20:05 
* FROM CLIP NAME:  AUTOMATICEMPIRE_ALL MY PROBLEMS.MP3
120  AUTOMATI A10   C        01:00:03:19 01:00:31:14 01:08:52:08 01:09:20:05 
* FROM CLIP NAME:  AUTOMATICEMPIRE_ALL MY PROBLEMS.MP3
121  AUTOMATI A9    C        01:00:31:14 01:00:31:29 01:09:20:05 01:09:20:20 
* FROM CLIP NAME:  AUTOMATICEMPIRE_ALL MY PROBLEMS.MP3 
* TO CLIP NAME:  AUTOMATICEMPIRE_ALL MY PROBLEMS.MP3
122  AUTOMATI A10   C        01:00:31:14 01:00:31:29 01:09:20:05 01:09:20:20 
* FROM CLIP NAME:  AUTOMATICEMPIRE_ALL MY PROBLEMS.MP3 
* TO CLIP NAME:  AUTOMATICEMPIRE_ALL MY PROBLEMS.MP3
123  AUTOMATI A9    C        01:00:31:29 01:00:58:01 01:09:20:20 01:09:46:22 
* FROM CLIP NAME:  AUTOMATICEMPIRE_ALL MY PROBLEMS.MP3
124  AUTOMATI A10   C        01:00:31:29 01:00:58:01 01:09:20:20 01:09:46:22 
* FROM CLIP NAME:  AUTOMATICEMPIRE_ALL MY PROBLEMS.MP3
125  AUTOMATI A9    C        01:01:23:13 01:01:34:09 01:09:46:22 01:09:57:18 
* FROM CLIP NAME:  AUTOMATICEMPIRE_ALL MY PROBLEMS.MP3
126  AUTOMATI A10   C        01:01:23:13 01:01:34:09 01:09:46:22 01:09:57:18 
* FROM CLIP NAME:  AUTOMATICEMPIRE_ALL MY PROBLEMS.MP3
127  04_SFP_P A7    C        01:00:00:00 01:00:01:20 01:09:49:14 01:09:51:04 
* FROM CLIP NAME:  04 SFP PENNY FOR YOUR DREAMS (BED NO DRUMS).MP3
128  04_SFP_P A8    C        01:00:00:00 01:00:01:20 01:09:49:14 01:09:51:04 
* FROM CLIP NAME:  04 SFP PENNY FOR YOUR DREAMS (BED NO DRUMS).MP3
129  04_SFP_P A7    C        01:00:01:20 01:00:01:26 01:09:51:04 01:09:51:10 
* FROM CLIP NAME:  04 SFP PENNY FOR YOUR DREAMS (BED NO DRUMS).MP3 
* TO CLIP NAME:  04 SFP PENNY FOR YOUR DREAMS (BED NO DRUMS).MP3
130  04_SFP_P A8    C        01:00:01:20 01:00:01:26 01:09:51:04 01:09:51:10 
* FROM CLIP NAME:  04 SFP PENNY FOR YOUR DREAMS (BED NO DRUMS).MP3 
* TO CLIP NAME:  04 SFP PENNY FOR YOUR DREAMS (BED NO DRUMS).MP3
131  04_SFP_P A7    C        01:00:01:26 01:00:21:09 01:09:51:10 01:10:10:23 
* FROM CLIP NAME:  04 SFP PENNY FOR YOUR DREAMS (BED NO DRUMS).MP3
132  04_SFP_P A8    C        01:00:01:26 01:00:21:09 01:09:51:10 01:10:10:23 
* FROM CLIP NAME:  04 SFP PENNY FOR YOUR DREAMS (BED NO DRUMS).MP3
133  04_SFP_P A7    C        01:00:21:09 01:00:21:15 01:10:10:23 01:10:10:29 
* FROM CLIP NAME:  04 SFP PENNY FOR YOUR DREAMS (BED NO DRUMS).MP3 
* TO CLIP NAME:  04 SFP PENNY FOR YOUR DREAMS (BED NO DRUMS).MP3
134  04_SFP_P A8    C        01:00:21:09 01:00:21:15 01:10:10:23 01:10:10:29 
* FROM CLIP NAME:  04 SFP PENNY FOR YOUR DREAMS (BED NO DRUMS).MP3 
* TO CLIP NAME:  04 SFP PENNY FOR YOUR DREAMS (BED NO DRUMS).MP3
135  04_SFP_P A7    C        01:00:21:15 01:00:29:22 01:10:10:29 01:10:19:06 
* FROM CLIP NAME:  04 SFP PENNY FOR YOUR DREAMS (BED NO DRUMS).MP3
136  04_SFP_P A8    C        01:00:21:15 01:00:29:22 01:10:10:29 01:10:19:06 
* FROM CLIP NAME:  04 SFP PENNY FOR YOUR DREAMS (BED NO DRUMS).MP3
137  04_SFP_P A7    C        01:00:29:22 01:00:29:28 01:10:19:06 01:10:19:12 
* FROM CLIP NAME:  04 SFP PENNY FOR YOUR DREAMS (BED NO DRUMS).MP3 
* TO CLIP NAME:  04 SFP PENNY FOR YOUR DREAMS (BED NO DRUMS).MP3
138  04_SFP_P A8    C        01:00:29:22 01:00:29:28 01:10:19:06 01:10:19:12 
* FROM CLIP NAME:  04 SFP PENNY FOR YOUR DREAMS (BED NO DRUMS).MP3 
* TO CLIP NAME:  04 SFP PENNY FOR YOUR DREAMS (BED NO DRUMS).MP3
139  04_SFP_P A7    C        01:00:29:28 01:00:41:02 01:10:19:12 01:10:30:16 
* FROM CLIP NAME:  04 SFP PENNY FOR YOUR DREAMS (BED NO DRUMS).MP3
140  04_SFP_P A8    C        01:00:29:28 01:00:41:02 01:10:19:12 01:10:30:16 
* FROM CLIP NAME:  04 SFP PENNY FOR YOUR DREAMS (BED NO DRUMS).MP3
141  04_SFP_P A7    C        01:00:41:02 01:00:41:08 01:10:30:16 01:10:30:22 
* FROM CLIP NAME:  04 SFP PENNY FOR YOUR DREAMS (BED NO DRUMS).MP3 
* TO CLIP NAME:  04 SFP PENNY FOR YOUR DREAMS (BED NO DRUMS).MP3
142  04_SFP_P A8    C        01:00:41:02 01:00:41:08 01:10:30:16 01:10:30:22 
* FROM CLIP NAME:  04 SFP PENNY FOR YOUR DREAMS (BED NO DRUMS).MP3 
* TO CLIP NAME:  04 SFP PENNY FOR YOUR DREAMS (BED NO DRUMS).MP3
143  04_SFP_P A7    C        01:00:41:08 01:01:08:19 01:10:30:22 01:10:58:03 
* FROM CLIP NAME:  04 SFP PENNY FOR YOUR DREAMS (BED NO DRUMS).MP3
144  04_SFP_P A8    C        01:00:41:08 01:01:08:19 01:10:30:22 01:10:58:03 
* FROM CLIP NAME:  04 SFP PENNY FOR YOUR DREAMS (BED NO DRUMS).MP3
145  04_SFP_P A7    C        01:02:36:28 01:02:43:13 01:10:58:03 01:11:04:20 
* FROM CLIP NAME:  04 SFP PENNY FOR YOUR DREAMS (BED NO DRUMS).MP3
146  04_SFP_P A8    C        01:02:36:28 01:02:43:13 01:10:58:03 01:11:04:20 
* FROM CLIP NAME:  04 SFP PENNY FOR YOUR DREAMS (BED NO DRUMS).MP3
147  10_SFP_F A7    C        01:00:00:00 01:00:02:13 01:11:09:09 01:11:11:22 
* FROM CLIP NAME:  10 SFP FLIGHT OF THE BLUE SUN.MP3.SUB.01
148  10_SFP_F A8    C        01:00:00:00 01:00:02:13 01:11:09:09 01:11:11:22 
* FROM CLIP NAME:  10 SFP FLIGHT OF THE BLUE SUN.MP3.SUB.01
149  10_SFP_F A7    C        01:00:02:13 01:00:02:19 01:11:11:22 01:11:11:28 
* FROM CLIP NAME:  10 SFP FLIGHT OF THE BLUE SUN.MP3.SUB.01 
* TO CLIP NAME:  10 SFP FLIGHT OF THE BLUE SUN.MP3.SUB.01
150  10_SFP_F A8    C        01:00:02:13 01:00:02:19 01:11:11:22 01:11:11:28 
* FROM CLIP NAME:  10 SFP FLIGHT OF THE BLUE SUN.MP3.SUB.01 
* TO CLIP NAME:  10 SFP FLIGHT OF THE BLUE SUN.MP3.SUB.01
151  10_SFP_F A7    C        01:00:02:19 01:00:43:16 01:11:11:28 01:11:52:25 
* FROM CLIP NAME:  10 SFP FLIGHT OF THE BLUE SUN.MP3.SUB.01
152  10_SFP_F A8    C        01:00:02:19 01:00:43:16 01:11:11:28 01:11:52:25 
* FROM CLIP NAME:  10 SFP FLIGHT OF THE BLUE SUN.MP3.SUB.01
153  10_SFP_F A7    C        01:02:13:13 01:02:18:23 01:11:52:25 01:11:58:05 
* FROM CLIP NAME:  10 SFP FLIGHT OF THE BLUE SUN.MP3.SUB.01
154  10_SFP_F A8    C        01:02:13:13 01:02:18:23 01:11:52:25 01:11:58:05 
* FROM CLIP NAME:  10 SFP FLIGHT OF THE BLUE SUN.MP3.SUB.01
155  TL01GFX_ A9    C        00:00:00:00 00:00:02:05 01:11:57:09 01:11:59:14 
* FROM CLIP NAME:  TL01GFX_006_COMING_UP HD.MOV
156  TL01GFX_ A10   C        00:00:00:00 00:00:02:05 01:11:57:09 01:11:59:14 
* FROM CLIP NAME:  TL01GFX_006_COMING_UP HD.MOV
157  TL01GFX_ A9    C        00:00:03:19 00:00:07:02 01:11:59:14 01:12:02:29 
* FROM CLIP NAME:  TL01GFX_006_COMING_UP HD.MOV
158  TL01GFX_ A10   C        00:00:03:19 00:00:07:02 01:11:59:14 01:12:02:29 
* FROM CLIP NAME:  TL01GFX_006_COMING_UP HD.MOV
159  TL01GFX_ A9    C        00:00:07:01 00:00:07:02 01:12:02:29 01:12:03:00 
* FROM CLIP NAME:  TL01GFX_006_COMING_UP HD.MOV
160  TL01GFX_ A10   C        00:00:07:01 00:00:07:02 01:12:02:29 01:12:03:00 
* FROM CLIP NAME:  TL01GFX_006_COMING_UP HD.MOV
161  PJP_SHE_ A9    C        01:00:00:00 01:00:01:17 01:12:38:24 01:12:40:11 
* FROM CLIP NAME:  PJP_SHE KNOWS_MB_BED.AIF
162  PJP_SHE_ A10   C        01:00:00:00 01:00:01:17 01:12:38:24 01:12:40:11 
* FROM CLIP NAME:  PJP_SHE KNOWS_MB_BED.AIF
163  PJP_SHE_ A9    C        01:00:01:17 01:00:15:28 01:12:40:11 01:12:54:22 
* FROM CLIP NAME:  PJP_SHE KNOWS_MB_BED.AIF
164  PJP_SHE_ A10   C        01:00:01:17 01:00:15:28 01:12:40:11 01:12:54:22 
* FROM CLIP NAME:  PJP_SHE KNOWS_MB_BED.AIF
165  PJP_SHE_ A9    C        01:00:15:28 01:00:16:04 01:12:54:22 01:12:54:28 
* FROM CLIP NAME:  PJP_SHE KNOWS_MB_BED.AIF 
* TO CLIP NAME:  PJP_SHE KNOWS_MB_BED.AIF
166  PJP_SHE_ A10   C        01:00:15:28 01:00:16:04 01:12:54:22 01:12:54:28 
* FROM CLIP NAME:  PJP_SHE KNOWS_MB_BED.AIF 
* TO CLIP NAME:  PJP_SHE KNOWS_MB_BED.AIF
167  PJP_SHE_ A9    C        01:00:16:04 01:00:46:21 01:12:54:28 01:13:25:17 
* FROM CLIP NAME:  PJP_SHE KNOWS_MB_BED.AIF
168  PJP_SHE_ A10   C        01:00:16:04 01:00:46:21 01:12:54:28 01:13:25:17 
* FROM CLIP NAME:  PJP_SHE KNOWS_MB_BED.AIF
169  PJP_SHE_ A9    C        01:02:29:13 01:02:36:14 01:13:25:17 01:13:32:18 
* FROM CLIP NAME:  PJP_SHE KNOWS_MB_BED.AIF
170  PJP_SHE_ A10   C        01:02:29:13 01:02:36:14 01:13:25:17 01:13:32:18 
* FROM CLIP NAME:  PJP_SHE KNOWS_MB_BED.AIF
171  33_SFP_G A9    C        01:00:00:00 01:00:08:19 01:13:55:08 01:14:03:29 
* FROM CLIP NAME:  33 SFP GRAVITY CIRCUIT (BED NO DRUMS).MP3
172  33_SFP_G A10   C        01:00:00:00 01:00:08:19 01:13:55:08 01:14:03:29 
* FROM CLIP NAME:  33 SFP GRAVITY CIRCUIT (BED NO DRUMS).MP3
173  33_SFP_G A9    C        01:01:25:25 01:01:38:13 01:14:03:29 01:14:16:17 
* FROM CLIP NAME:  33 SFP GRAVITY CIRCUIT (BED NO DRUMS).MP3
174  33_SFP_G A10   C        01:01:25:25 01:01:38:13 01:14:03:29 01:14:16:17 
* FROM CLIP NAME:  33 SFP GRAVITY CIRCUIT (BED NO DRUMS).MP3
175  SFP_CD69 A7    C        01:00:00:00 01:00:12:22 01:14:11:21 01:14:24:13 
* FROM CLIP NAME:  SFP CD697 AMBIENT INDIE POST ROCK SOUNDTRACK 08 SFP LAND BRIDGE 
* .MP3
176  SFP_CD69 A8    C        01:00:00:00 01:00:12:22 01:14:11:21 01:14:24:13 
* FROM CLIP NAME:  SFP CD697 AMBIENT INDIE POST ROCK SOUNDTRACK 08 SFP LAND BRIDGE 
* .MP3
177  SFP_CD69 A7    C        01:00:12:22 01:00:17:20 01:14:24:13 01:14:29:11 
* FROM CLIP NAME:  SFP CD697 AMBIENT INDIE POST ROCK SOUNDTRACK 08 SFP LAND BRIDGE 
* .MP3
178  SFP_CD69 A8    C        01:00:12:22 01:00:17:20 01:14:24:13 01:14:29:11 
* FROM CLIP NAME:  SFP CD697 AMBIENT INDIE POST ROCK SOUNDTRACK 08 SFP LAND BRIDGE 
* .MP3
179  SFP_CD69 A7    C        01:03:12:01 01:03:19:18 01:14:29:11 01:14:36:28 
* FROM CLIP NAME:  SFP CD697 AMBIENT INDIE POST ROCK SOUNDTRACK 08 SFP LAND BRIDGE 
* .MP3
180  SFP_CD69 A8    C        01:03:12:01 01:03:19:18 01:14:29:11 01:14:36:28 
* FROM CLIP NAME:  SFP CD697 AMBIENT INDIE POST ROCK SOUNDTRACK 08 SFP LAND BRIDGE 
* .MP3
181  08_SFP_T A9    C        01:00:00:15 01:00:11:22 01:14:35:12 01:14:46:19 
* FROM CLIP NAME:  08 SFP THE END OF NIGHT.MP3
182  08_SFP_T A10   C        01:00:00:15 01:00:11:22 01:14:35:12 01:14:46:19 
* FROM CLIP NAME:  08 SFP THE END OF NIGHT.MP3
183  08_SFP_T A9    C        01:00:19:07 01:00:44:23 01:14:46:19 01:15:12:07 
* FROM CLIP NAME:  08 SFP THE END OF NIGHT.MP3
184  08_SFP_T A10   C        01:00:19:07 01:00:44:23 01:14:46:19 01:15:12:07 
* FROM CLIP NAME:  08 SFP THE END OF NIGHT.MP3
185  08_SFP_T A7    C        01:01:29:01 01:01:29:04 01:15:12:07 01:15:12:10 
* FROM CLIP NAME:  08 SFP THE END OF NIGHT.MP3
186  08_SFP_T A8    C        01:01:29:01 01:01:29:04 01:15:12:07 01:15:12:10 
* FROM CLIP NAME:  08 SFP THE END OF NIGHT.MP3
187  13_SFP_S A9    C        01:00:00:00 01:00:05:27 01:15:16:04 01:15:22:01 
* FROM CLIP NAME:  13 SFP SCHOOL YARDS.MP3
188  13_SFP_S A10   C        01:00:00:00 01:00:05:27 01:15:16:04 01:15:22:01 
* FROM CLIP NAME:  13 SFP SCHOOL YARDS.MP3
189  13_SFP_S A9    C        01:00:05:27 01:00:06:03 01:15:22:01 01:15:22:07 
* FROM CLIP NAME:  13 SFP SCHOOL YARDS.MP3 
* TO CLIP NAME:  13 SFP SCHOOL YARDS.MP3
190  13_SFP_S A10   C        01:00:05:27 01:00:06:03 01:15:22:01 01:15:22:07 
* FROM CLIP NAME:  13 SFP SCHOOL YARDS.MP3 
* TO CLIP NAME:  13 SFP SCHOOL YARDS.MP3
191  13_SFP_S A9    C        01:00:06:03 01:00:28:28 01:15:22:07 01:15:45:02 
* FROM CLIP NAME:  13 SFP SCHOOL YARDS.MP3
192  13_SFP_S A10   C        01:00:06:03 01:00:28:28 01:15:22:07 01:15:45:02 
* FROM CLIP NAME:  13 SFP SCHOOL YARDS.MP3
193  13_SFP_S A9    C        01:03:36:21 01:03:53:18 01:15:45:02 01:16:02:01 
* FROM CLIP NAME:  13 SFP SCHOOL YARDS.MP3
194  13_SFP_S A10   C        01:03:36:21 01:03:53:18 01:15:45:02 01:16:02:01 
* FROM CLIP NAME:  13 SFP SCHOOL YARDS.MP3
195  04_SFP_W A9    C        01:00:00:00 01:00:17:02 01:16:11:26 01:16:28:28 
* FROM CLIP NAME:  04 SFP WHATEVER YOU SAY.MP3
196  04_SFP_W A10   C        01:00:00:00 01:00:17:02 01:16:11:26 01:16:28:28 
* FROM CLIP NAME:  04 SFP WHATEVER YOU SAY.MP3
197  04_SFP_W A9    C        01:00:17:02 01:00:17:08 01:16:28:28 01:16:29:04 
* FROM CLIP NAME:  04 SFP WHATEVER YOU SAY.MP3 
* TO CLIP NAME:  04 SFP WHATEVER YOU SAY.MP3
198  04_SFP_W A10   C        01:00:17:02 01:00:17:08 01:16:28:28 01:16:29:04 
* FROM CLIP NAME:  04 SFP WHATEVER YOU SAY.MP3 
* TO CLIP NAME:  04 SFP WHATEVER YOU SAY.MP3
199  04_SFP_W A9    C        01:00:17:08 01:00:47:29 01:16:29:04 01:16:59:25 
* FROM CLIP NAME:  04 SFP WHATEVER YOU SAY.MP3
200  04_SFP_W A10   C        01:00:17:08 01:00:47:29 01:16:29:04 01:16:59:25 
* FROM CLIP NAME:  04 SFP WHATEVER YOU SAY.MP3
201  04_SFP_W A7    C        01:00:00:01 01:00:03:10 01:16:59:25 01:17:03:06 
* FROM CLIP NAME:  04 SFP WHATEVER YOU SAY.MP3
202  04_SFP_W A8    C        01:00:00:01 01:00:03:10 01:16:59:25 01:17:03:06 
* FROM CLIP NAME:  04 SFP WHATEVER YOU SAY.MP3
203  TLMG_TEN A9    C        01:00:00:00 01:00:02:06 01:17:03:11 01:17:05:17 
* FROM CLIP NAME:  ZZ_TENSIONED_OMINOUS MAN.MP3
204  TLMG_TEN A10   C        01:00:00:00 01:00:02:06 01:17:03:11 01:17:05:17 
* FROM CLIP NAME:  ZZ_TENSIONED_OMINOUS MAN.MP3
205  TLMG_TEN A9    C        01:00:02:06 01:00:02:26 01:17:05:17 01:17:06:07 
* FROM CLIP NAME:  ZZ_TENSIONED_OMINOUS MAN.MP3 
* TO CLIP NAME:  ZZ_TENSIONED_OMINOUS MAN.MP3
206  TLMG_TEN A10   C        01:00:02:06 01:00:02:26 01:17:05:17 01:17:06:07 
* FROM CLIP NAME:  ZZ_TENSIONED_OMINOUS MAN.MP3 
* TO CLIP NAME:  ZZ_TENSIONED_OMINOUS MAN.MP3
207  TLMG_TEN A9    C        01:00:02:26 01:00:08:11 01:17:06:07 01:17:11:22 
* FROM CLIP NAME:  ZZ_TENSIONED_OMINOUS MAN.MP3
208  TLMG_TEN A10   C        01:00:02:26 01:00:08:11 01:17:06:07 01:17:11:22 
* FROM CLIP NAME:  ZZ_TENSIONED_OMINOUS MAN.MP3
209  TLMG_TEN A9    C        01:00:08:11 01:00:08:17 01:17:11:22 01:17:11:28 
* FROM CLIP NAME:  ZZ_TENSIONED_OMINOUS MAN.MP3 
* TO CLIP NAME:  ZZ_TENSIONED_OMINOUS MAN.MP3
210  TLMG_TEN A10   C        01:00:08:11 01:00:08:17 01:17:11:22 01:17:11:28 
* FROM CLIP NAME:  ZZ_TENSIONED_OMINOUS MAN.MP3 
* TO CLIP NAME:  ZZ_TENSIONED_OMINOUS MAN.MP3
211  TLMG_TEN A9    C        01:00:08:17 01:00:39:28 01:17:11:28 01:17:43:09 
* FROM CLIP NAME:  ZZ_TENSIONED_OMINOUS MAN.MP3
212  TLMG_TEN A10   C        01:00:08:17 01:00:39:28 01:17:11:28 01:17:43:09 
* FROM CLIP NAME:  ZZ_TENSIONED_OMINOUS MAN.MP3
213  TLMG_TEN A9    C        01:01:06:26 01:01:07:16 01:17:43:09 01:17:43:29 
* FROM CLIP NAME:  ZZ_TENSIONED_OMINOUS MAN.MP3 
* TO CLIP NAME:  ZZ_TENSIONED_OMINOUS MAN.MP3
214  TLMG_TEN A10   C        01:01:06:26 01:01:07:16 01:17:43:09 01:17:43:29 
* FROM CLIP NAME:  ZZ_TENSIONED_OMINOUS MAN.MP3 
* TO CLIP NAME:  ZZ_TENSIONED_OMINOUS MAN.MP3
215  TLMG_TEN A9    C        01:01:07:16 01:01:16:14 01:17:43:29 01:17:52:27 
* FROM CLIP NAME:  ZZ_TENSIONED_OMINOUS MAN.MP3
216  TLMG_TEN A10   C        01:01:07:16 01:01:16:14 01:17:43:29 01:17:52:27 
* FROM CLIP NAME:  ZZ_TENSIONED_OMINOUS MAN.MP3
217  16_SFP_S A9    C        01:00:00:00 01:00:00:13 01:17:52:27 01:17:53:10 
* FROM CLIP NAME:  16 SFP SEPTEMBERS (NO GUITARS).MP3
218  16_SFP_S A10   C        01:00:00:00 01:00:00:13 01:17:52:27 01:17:53:10 
* FROM CLIP NAME:  16 SFP SEPTEMBERS (NO GUITARS).MP3
219  16_SFP_S A9    C        01:00:00:13 01:00:01:03 01:17:53:10 01:17:54:00 
* FROM CLIP NAME:  16 SFP SEPTEMBERS (NO GUITARS).MP3 
* TO CLIP NAME:  16 SFP SEPTEMBERS (NO GUITARS).MP3
220  16_SFP_S A10   C        01:00:00:13 01:00:01:03 01:17:53:10 01:17:54:00 
* FROM CLIP NAME:  16 SFP SEPTEMBERS (NO GUITARS).MP3 
* TO CLIP NAME:  16 SFP SEPTEMBERS (NO GUITARS).MP3
221  16_SFP_S A9    C        01:00:01:03 01:00:04:21 01:17:54:00 01:17:57:18 
* FROM CLIP NAME:  16 SFP SEPTEMBERS (NO GUITARS).MP3
222  16_SFP_S A10   C        01:00:01:03 01:00:04:21 01:17:54:00 01:17:57:18 
* FROM CLIP NAME:  16 SFP SEPTEMBERS (NO GUITARS).MP3
223  17_SFP_S A9    C        01:00:04:22 01:00:06:22 01:17:57:18 01:17:59:18 
* FROM CLIP NAME:  17 SFP SEPTEMBERS (NO PIANO).MP3 
* TO CLIP NAME:  16 SFP SEPTEMBERS (NO GUITARS).MP3
224  17_SFP_S A10   C        01:00:04:22 01:00:06:22 01:17:57:18 01:17:59:18 
* FROM CLIP NAME:  17 SFP SEPTEMBERS (NO PIANO).MP3 
* TO CLIP NAME:  16 SFP SEPTEMBERS (NO GUITARS).MP3
225  17_SFP_S A9    C        01:00:06:22 01:00:18:02 01:17:59:18 01:18:11:00 
* FROM CLIP NAME:  17 SFP SEPTEMBERS (NO PIANO).MP3
226  17_SFP_S A10   C        01:00:06:22 01:00:18:02 01:17:59:18 01:18:11:00 
* FROM CLIP NAME:  17 SFP SEPTEMBERS (NO PIANO).MP3
227  17_SFP_S A9    C        01:00:18:02 01:00:18:08 01:18:11:00 01:18:11:06 
* FROM CLIP NAME:  17 SFP SEPTEMBERS (NO PIANO).MP3 
* TO CLIP NAME:  17 SFP SEPTEMBERS (NO PIANO).MP3
228  17_SFP_S A10   C        01:00:18:02 01:00:18:08 01:18:11:00 01:18:11:06 
* FROM CLIP NAME:  17 SFP SEPTEMBERS (NO PIANO).MP3 
* TO CLIP NAME:  17 SFP SEPTEMBERS (NO PIANO).MP3
229  17_SFP_S A9    C        01:00:18:08 01:00:25:15 01:18:11:06 01:18:18:13 
* FROM CLIP NAME:  17 SFP SEPTEMBERS (NO PIANO).MP3
230  17_SFP_S A10   C        01:00:18:08 01:00:25:15 01:18:11:06 01:18:18:13 
* FROM CLIP NAME:  17 SFP SEPTEMBERS (NO PIANO).MP3
231  17_SFP_S A9    C        01:00:55:28 01:00:58:28 01:18:18:13 01:18:21:13 
* FROM CLIP NAME:  17 SFP SEPTEMBERS (NO PIANO).MP3 
* TO CLIP NAME:  17 SFP SEPTEMBERS (NO PIANO).MP3
232  17_SFP_S A10   C        01:00:55:28 01:00:58:28 01:18:18:13 01:18:21:13 
* FROM CLIP NAME:  17 SFP SEPTEMBERS (NO PIANO).MP3 
* TO CLIP NAME:  17 SFP SEPTEMBERS (NO PIANO).MP3
233  17_SFP_S A9    C        01:00:58:28 01:01:01:21 01:18:21:13 01:18:24:06 
* FROM CLIP NAME:  17 SFP SEPTEMBERS (NO PIANO).MP3
234  17_SFP_S A10   C        01:00:58:28 01:01:01:21 01:18:21:13 01:18:24:06 
* FROM CLIP NAME:  17 SFP SEPTEMBERS (NO PIANO).MP3
235  17_SFP_S A9    C        01:01:01:21 01:01:03:14 01:18:24:06 01:18:25:29 
* FROM CLIP NAME:  17 SFP SEPTEMBERS (NO PIANO).MP3
236  17_SFP_S A10   C        01:01:01:21 01:01:03:14 01:18:24:06 01:18:25:29 
* FROM CLIP NAME:  17 SFP SEPTEMBERS (NO PIANO).MP3
237  SFP_CD29 A9    C        01:00:00:00 01:00:17:19 01:19:10:24 01:19:28:13 
* FROM CLIP NAME:  SFP CD297 ELIMINATION CHALLENGE TENSION 2 16 SFP CHOPPING BLOCK 
* .MP3
238  SFP_CD29 A10   C        01:00:00:00 01:00:17:19 01:19:10:24 01:19:28:13 
* FROM CLIP NAME:  SFP CD297 ELIMINATION CHALLENGE TENSION 2 16 SFP CHOPPING BLOCK 
* .MP3
239  SFP_CD29 A9    C        01:01:56:26 01:01:57:16 01:19:28:13 01:19:29:03 
* FROM CLIP NAME:  SFP CD297 ELIMINATION CHALLENGE TENSION 2 16 SFP CHOPPING BLOCK 
* .MP3 
* TO CLIP NAME:  SFP CD297 ELIMINATION CHALLENGE TENSION 2 16 SFP CHOPPING BLOCK.M 
* P3
240  SFP_CD29 A10   C        01:01:56:26 01:01:57:16 01:19:28:13 01:19:29:03 
* FROM CLIP NAME:  SFP CD297 ELIMINATION CHALLENGE TENSION 2 16 SFP CHOPPING BLOCK 
* .MP3 
* TO CLIP NAME:  SFP CD297 ELIMINATION CHALLENGE TENSION 2 16 SFP CHOPPING BLOCK.M 
* P3
241  SFP_CD29 A9    C        01:01:57:16 01:02:05:17 01:19:29:03 01:19:37:04 
* FROM CLIP NAME:  SFP CD297 ELIMINATION CHALLENGE TENSION 2 16 SFP CHOPPING BLOCK 
* .MP3
242  SFP_CD29 A10   C        01:01:57:16 01:02:05:17 01:19:29:03 01:19:37:04 
* FROM CLIP NAME:  SFP CD297 ELIMINATION CHALLENGE TENSION 2 16 SFP CHOPPING BLOCK 
* .MP3
243  14_SFP_D A7    C        01:00:00:14 01:00:06:10 01:19:37:15 01:19:43:11 
* FROM CLIP NAME:  14 SFP DON'T FOLLOW ME.MP3
244  14_SFP_D A8    C        01:00:00:14 01:00:06:10 01:19:37:15 01:19:43:11 
* FROM CLIP NAME:  14 SFP DON'T FOLLOW ME.MP3
245  14_SFP_D A7    C        01:00:06:10 01:00:06:16 01:19:43:11 01:19:43:17 
* FROM CLIP NAME:  14 SFP DON'T FOLLOW ME.MP3 
* TO CLIP NAME:  14 SFP DON'T FOLLOW ME.MP3
246  14_SFP_D A8    C        01:00:06:10 01:00:06:16 01:19:43:11 01:19:43:17 
* FROM CLIP NAME:  14 SFP DON'T FOLLOW ME.MP3 
* TO CLIP NAME:  14 SFP DON'T FOLLOW ME.MP3
247  14_SFP_D A7    C        01:00:06:16 01:00:16:15 01:19:43:17 01:19:53:16 
* FROM CLIP NAME:  14 SFP DON'T FOLLOW ME.MP3
248  14_SFP_D A8    C        01:00:06:16 01:00:16:15 01:19:43:17 01:19:53:16 
* FROM CLIP NAME:  14 SFP DON'T FOLLOW ME.MP3
249  14_SFP_D A7    C        01:00:16:15 01:00:16:21 01:19:53:16 01:19:53:22 
* FROM CLIP NAME:  14 SFP DON'T FOLLOW ME.MP3 
* TO CLIP NAME:  14 SFP DON'T FOLLOW ME.MP3
250  14_SFP_D A8    C        01:00:16:15 01:00:16:21 01:19:53:16 01:19:53:22 
* FROM CLIP NAME:  14 SFP DON'T FOLLOW ME.MP3 
* TO CLIP NAME:  14 SFP DON'T FOLLOW ME.MP3
251  14_SFP_D A7    C        01:00:16:21 01:00:23:02 01:19:53:22 01:20:00:03 
* FROM CLIP NAME:  14 SFP DON'T FOLLOW ME.MP3
252  14_SFP_D A8    C        01:00:16:21 01:00:23:02 01:19:53:22 01:20:00:03 
* FROM CLIP NAME:  14 SFP DON'T FOLLOW ME.MP3
253  14_SFP_D A7    C        01:00:23:02 01:00:23:08 01:20:00:03 01:20:00:09 
* FROM CLIP NAME:  14 SFP DON'T FOLLOW ME.MP3 
* TO CLIP NAME:  14 SFP DON'T FOLLOW ME.MP3
254  14_SFP_D A8    C        01:00:23:02 01:00:23:08 01:20:00:03 01:20:00:09 
* FROM CLIP NAME:  14 SFP DON'T FOLLOW ME.MP3 
* TO CLIP NAME:  14 SFP DON'T FOLLOW ME.MP3
255  14_SFP_D A7    C        01:00:23:08 01:00:37:27 01:20:00:09 01:20:14:28 
* FROM CLIP NAME:  14 SFP DON'T FOLLOW ME.MP3
256  14_SFP_D A8    C        01:00:23:08 01:00:37:27 01:20:00:09 01:20:14:28 
* FROM CLIP NAME:  14 SFP DON'T FOLLOW ME.MP3
257  14_SFP_D A7    C        01:00:55:05 01:01:01:24 01:20:14:28 01:20:21:17 
* FROM CLIP NAME:  14 SFP DON'T FOLLOW ME.MP3
258  14_SFP_D A8    C        01:00:55:05 01:01:01:24 01:20:14:28 01:20:21:17 
* FROM CLIP NAME:  14 SFP DON'T FOLLOW ME.MP3
259  14_SFP_D A7    C        01:01:01:24 01:01:04:12 01:20:21:19 01:20:24:07 
* FROM CLIP NAME:  14 SFP DON'T FOLLOW ME.MP3
260  14_SFP_D A8    C        01:01:01:24 01:01:04:12 01:20:21:19 01:20:24:07 
* FROM CLIP NAME:  14 SFP DON'T FOLLOW ME.MP3
261  SFP_CD34 A9    C        01:00:00:08 01:00:21:01 01:20:21:19 01:20:42:12 
* FROM CLIP NAME:  SFP CD341 CONTEMPORARY INDIE ROCK SOUNDTRACK 08 SFP LIGHT FOR M 
* E.MP3
262  SFP_CD34 A10   C        01:00:00:08 01:00:21:01 01:20:21:19 01:20:42:12 
* FROM CLIP NAME:  SFP CD341 CONTEMPORARY INDIE ROCK SOUNDTRACK 08 SFP LIGHT FOR M 
* E.MP3
263  SFP_CD34 A9    C        01:01:42:26 01:01:54:18 01:20:42:12 01:20:54:04 
* FROM CLIP NAME:  SFP CD341 CONTEMPORARY INDIE ROCK SOUNDTRACK 08 SFP LIGHT FOR M 
* E.MP3
264  SFP_CD34 A10   C        01:01:42:26 01:01:54:18 01:20:42:12 01:20:54:04 
* FROM CLIP NAME:  SFP CD341 CONTEMPORARY INDIE ROCK SOUNDTRACK 08 SFP LIGHT FOR M 
* E.MP3
265  15_SFP_S A7    C        01:00:00:00 01:00:22:17 01:20:49:01 01:21:11:20 
* FROM CLIP NAME:  15 SFP STARTING OVER AGAIN (BED).MP3.COPY.01
266  15_SFP_S A8    C        01:00:00:00 01:00:22:17 01:20:49:01 01:21:11:20 
* FROM CLIP NAME:  15 SFP STARTING OVER AGAIN (BED).MP3.COPY.01
267  15_SFP_S A7    C        01:02:38:00 01:02:47:08 01:21:11:20 01:21:20:28 
* FROM CLIP NAME:  15 SFP STARTING OVER AGAIN (BED).MP3.COPY.01
268  15_SFP_S A8    C        01:02:38:00 01:02:47:08 01:21:11:20 01:21:20:28 
* FROM CLIP NAME:  15 SFP STARTING OVER AGAIN (BED).MP3.COPY.01
269  23_SFP_C A9    C        01:00:00:00 01:00:00:29 01:21:31:14 01:21:32:13 
* FROM CLIP NAME:  23 SFP COME BACK AGAIN (BED).MP3.COPY.01
270  23_SFP_C A10   C        01:00:00:00 01:00:00:29 01:21:31:14 01:21:32:13 
* FROM CLIP NAME:  23 SFP COME BACK AGAIN (BED).MP3.COPY.01
271  23_SFP_C A9    C        01:00:05:04 01:00:07:04 01:21:32:13 01:21:34:13 
* FROM CLIP NAME:  23 SFP COME BACK AGAIN (BED).MP3.COPY.01 
* TO CLIP NAME:  23 SFP COME BACK AGAIN (BED).MP3.COPY.01
272  23_SFP_C A10   C        01:00:05:04 01:00:07:04 01:21:32:13 01:21:34:13 
* FROM CLIP NAME:  23 SFP COME BACK AGAIN (BED).MP3.COPY.01 
* TO CLIP NAME:  23 SFP COME BACK AGAIN (BED).MP3.COPY.01
273  23_SFP_C A9    C        01:00:07:04 01:00:11:00 01:21:34:13 01:21:38:09 
* FROM CLIP NAME:  23 SFP COME BACK AGAIN (BED).MP3.COPY.01
274  23_SFP_C A10   C        01:00:07:04 01:00:11:00 01:21:34:13 01:21:38:09 
* FROM CLIP NAME:  23 SFP COME BACK AGAIN (BED).MP3.COPY.01
275  23_SFP_C A9    C        01:00:12:04 01:00:27:09 01:21:38:09 01:21:53:14 
* FROM CLIP NAME:  23 SFP COME BACK AGAIN (BED).MP3.COPY.01
276  23_SFP_C A10   C        01:00:12:04 01:00:27:09 01:21:38:09 01:21:53:14 
* FROM CLIP NAME:  23 SFP COME BACK AGAIN (BED).MP3.COPY.01
277  23_SFP_C A7    C        01:02:25:20 01:02:28:19 01:21:53:14 01:21:56:13 
* FROM CLIP NAME:  23 SFP COME BACK AGAIN (BED).MP3.COPY.01
278  23_SFP_C A8    C        01:02:25:20 01:02:28:19 01:21:53:14 01:21:56:13 
* FROM CLIP NAME:  23 SFP COME BACK AGAIN (BED).MP3.COPY.01
279  11_SFP_T A9    C        01:00:00:12 01:00:03:27 01:21:57:05 01:22:00:22 
* FROM CLIP NAME:  11 SFP TRANSITION OUT.MP3.SUB.01
280  11_SFP_T A10   C        01:00:00:12 01:00:03:27 01:21:57:05 01:22:00:22 
* FROM CLIP NAME:  11 SFP TRANSITION OUT.MP3.SUB.01
281  11_SFP_T A9    C        01:00:03:27 01:00:04:17 01:22:00:22 01:22:01:12 
* FROM CLIP NAME:  11 SFP TRANSITION OUT.MP3.SUB.01 
* TO CLIP NAME:  11 SFP TRANSITION OUT.MP3.SUB.01
282  11_SFP_T A10   C        01:00:03:27 01:00:04:17 01:22:00:22 01:22:01:12 
* FROM CLIP NAME:  11 SFP TRANSITION OUT.MP3.SUB.01 
* TO CLIP NAME:  11 SFP TRANSITION OUT.MP3.SUB.01
283  11_SFP_T A9    C        01:00:04:17 01:00:15:05 01:22:01:12 01:22:12:00 
* FROM CLIP NAME:  11 SFP TRANSITION OUT.MP3.SUB.01
284  11_SFP_T A10   C        01:00:04:17 01:00:15:05 01:22:01:12 01:22:12:00 
* FROM CLIP NAME:  11 SFP TRANSITION OUT.MP3.SUB.01
285  11_SFP_T A9    C        01:02:25:08 01:02:26:14 01:22:12:00 01:22:13:06 
* FROM CLIP NAME:  11 SFP TRANSITION OUT.MP3.SUB.01
286  11_SFP_T A10   C        01:02:25:08 01:02:26:14 01:22:12:00 01:22:13:06 
* FROM CLIP NAME:  11 SFP TRANSITION OUT.MP3.SUB.01
287  SFP_CD29 A7    C        01:00:00:00 01:00:20:01 01:22:41:15 01:23:01:18 
* FROM CLIP NAME:  SFP CD296 ELIMINATION CHALLENGE TENSION 1 04 SFP ELIMINATION TI 
* ME (BED NO DRONE).MP3
288  SFP_CD29 A8    C        01:00:00:00 01:00:20:01 01:22:41:15 01:23:01:18 
* FROM CLIP NAME:  SFP CD296 ELIMINATION CHALLENGE TENSION 1 04 SFP ELIMINATION TI 
* ME (BED NO DRONE).MP3
289  SFP_CD29 A7    C        01:02:02:23 01:02:02:27 01:23:01:18 01:23:01:22 
* FROM CLIP NAME:  SFP CD296 ELIMINATION CHALLENGE TENSION 1 04 SFP ELIMINATION TI 
* ME (BED NO DRONE).MP3 
* TO CLIP NAME:  SFP CD296 ELIMINATION CHALLENGE TENSION 1 04 SFP ELIMINATION TIME 
*  (BED NO DRONE).MP3
290  SFP_CD29 A8    C        01:02:02:23 01:02:02:27 01:23:01:18 01:23:01:22 
* FROM CLIP NAME:  SFP CD296 ELIMINATION CHALLENGE TENSION 1 04 SFP ELIMINATION TI 
* ME (BED NO DRONE).MP3 
* TO CLIP NAME:  SFP CD296 ELIMINATION CHALLENGE TENSION 1 04 SFP ELIMINATION TIME 
*  (BED NO DRONE).MP3
291  SFP_CD29 A7    C        01:02:02:27 01:02:18:23 01:23:01:22 01:23:17:18 
* FROM CLIP NAME:  SFP CD296 ELIMINATION CHALLENGE TENSION 1 04 SFP ELIMINATION TI 
* ME (BED NO DRONE).MP3
292  SFP_CD29 A8    C        01:02:02:27 01:02:18:23 01:23:01:22 01:23:17:18 
* FROM CLIP NAME:  SFP CD296 ELIMINATION CHALLENGE TENSION 1 04 SFP ELIMINATION TI 
* ME (BED NO DRONE).MP3
293  SFP_CD29 A9    C        01:00:00:00 01:00:56:03 01:23:08:01 01:24:04:06 
* FROM CLIP NAME:  SFP CD296 ELIMINATION CHALLENGE TENSION 1 23 SFP THE TRIAL (BED 
*  NO STRINGS).MP3
294  SFP_CD29 A10   C        01:00:00:00 01:00:56:03 01:23:08:01 01:24:04:06 
* FROM CLIP NAME:  SFP CD296 ELIMINATION CHALLENGE TENSION 1 23 SFP THE TRIAL (BED 
*  NO STRINGS).MP3
295  SFP_CD29 A9    C        01:02:28:13 01:02:32:04 01:24:04:06 01:24:07:27 
* FROM CLIP NAME:  SFP CD296 ELIMINATION CHALLENGE TENSION 1 23 SFP THE TRIAL (BED 
*  NO STRINGS).MP3
296  SFP_CD29 A10   C        01:02:28:13 01:02:32:04 01:24:04:06 01:24:07:27 
* FROM CLIP NAME:  SFP CD296 ELIMINATION CHALLENGE TENSION 1 23 SFP THE TRIAL (BED 
*  NO STRINGS).MP3
297  PJP_INQU A7    C        01:00:00:00 01:00:09:22 01:24:50:24 01:25:00:18 
* FROM CLIP NAME:  PJP_INQUISITIVE_MB_NO STRINGS.AIF
298  PJP_INQU A8    C        01:00:00:00 01:00:09:22 01:24:50:24 01:25:00:18 
* FROM CLIP NAME:  PJP_INQUISITIVE_MB_NO STRINGS.AIF
299  PJP_INQU A7    C        01:01:01:15 01:01:06:11 01:25:00:18 01:25:05:14 
* FROM CLIP NAME:  PJP_INQUISITIVE_MB_NO STRINGS.AIF
300  PJP_INQU A8    C        01:01:01:15 01:01:06:11 01:25:00:18 01:25:05:14 
* FROM CLIP NAME:  PJP_INQUISITIVE_MB_NO STRINGS.AIF
301  03_SFP_C A9    C        01:00:00:00 01:00:52:04 01:25:06:22 01:25:58:26 
* FROM CLIP NAME:  03 SFP CONFRONTATION.MP3
302  03_SFP_C A10   C        01:00:00:00 01:00:52:04 01:25:06:22 01:25:58:26 
* FROM CLIP NAME:  03 SFP CONFRONTATION.MP3
303  03_SFP_C A7    C        01:02:00:17 01:02:04:19 01:25:58:07 01:26:02:11 
* FROM CLIP NAME:  03 SFP CONFRONTATION.MP3
304  03_SFP_C A8    C        01:02:00:17 01:02:04:19 01:25:58:07 01:26:02:11 
* FROM CLIP NAME:  03 SFP CONFRONTATION.MP3
305  24S142_5 A7    C        00:59:56:13 01:00:15:16 01:26:02:13 01:26:21:16 
* FROM CLIP NAME:  24S142_59_LESS_NOPNO_51.WAV
306  24S142_5 A8    C        00:59:56:13 01:00:15:16 01:26:02:13 01:26:21:16 
* FROM CLIP NAME:  24S142_59_LESS_NOPNO_51.WAV
307  24S142_5 A7    C        01:00:24:07 01:00:28:19 01:26:21:16 01:26:25:28 
* FROM CLIP NAME:  24S142_59_LESS_NOPNO_51.WAV
308  24S142_5 A8    C        01:00:24:07 01:00:28:19 01:26:21:16 01:26:25:28 
* FROM CLIP NAME:  24S142_59_LESS_NOPNO_51.WAV
309  24S142_5 A9    C        01:01:28:11 01:01:33:22 01:26:25:28 01:26:31:09 
* FROM CLIP NAME:  24S142_59_LESS_NOPNO_51.WAV
310  24S142_5 A10   C        01:01:28:11 01:01:33:22 01:26:25:28 01:26:31:09 
* FROM CLIP NAME:  24S142_59_LESS_NOPNO_51.WAV
311  01_SFP_U A7    C        01:00:00:00 01:00:00:04 01:26:30:21 01:26:30:25 
* FROM CLIP NAME:  01 SFP UTAH SKY.MP3.SUB.01
312  01_SFP_U A8    C        01:00:00:00 01:00:00:04 01:26:30:21 01:26:30:25 
* FROM CLIP NAME:  01 SFP UTAH SKY.MP3.SUB.01
313  01_SFP_U A7    C        01:00:00:04 01:00:02:21 01:26:30:25 01:26:33:12 
* FROM CLIP NAME:  01 SFP UTAH SKY.MP3.SUB.01
314  01_SFP_U A8    C        01:00:00:04 01:00:02:21 01:26:30:25 01:26:33:12 
* FROM CLIP NAME:  01 SFP UTAH SKY.MP3.SUB.01
315  01_SFP_U A7    C        01:00:02:21 01:00:03:11 01:26:33:12 01:26:34:02 
* FROM CLIP NAME:  01 SFP UTAH SKY.MP3.SUB.01 
* TO CLIP NAME:  01 SFP UTAH SKY.MP3.SUB.01
316  01_SFP_U A8    C        01:00:02:21 01:00:03:11 01:26:33:12 01:26:34:02 
* FROM CLIP NAME:  01 SFP UTAH SKY.MP3.SUB.01 
* TO CLIP NAME:  01 SFP UTAH SKY.MP3.SUB.01
317  01_SFP_U A7    C        01:00:03:11 01:00:13:25 01:26:34:02 01:26:44:16 
* FROM CLIP NAME:  01 SFP UTAH SKY.MP3.SUB.01
318  01_SFP_U A8    C        01:00:03:11 01:00:13:25 01:26:34:02 01:26:44:16 
* FROM CLIP NAME:  01 SFP UTAH SKY.MP3.SUB.01
319  01_SFP_U A7    C        01:00:13:25 01:00:14:05 01:26:44:16 01:26:44:26 
* FROM CLIP NAME:  01 SFP UTAH SKY.MP3.SUB.01 
* TO CLIP NAME:  01 SFP UTAH SKY.MP3.SUB.01
320  01_SFP_U A8    C        01:00:13:25 01:00:14:05 01:26:44:16 01:26:44:26 
* FROM CLIP NAME:  01 SFP UTAH SKY.MP3.SUB.01 
* TO CLIP NAME:  01 SFP UTAH SKY.MP3.SUB.01
321  01_SFP_U A7    C        01:00:14:05 01:00:24:12 01:26:44:26 01:26:55:03 
* FROM CLIP NAME:  01 SFP UTAH SKY.MP3.SUB.01
322  01_SFP_U A8    C        01:00:14:05 01:00:24:12 01:26:44:26 01:26:55:03 
* FROM CLIP NAME:  01 SFP UTAH SKY.MP3.SUB.01
323  01_SFP_U A7    C        01:00:24:12 01:00:24:22 01:26:55:03 01:26:55:13 
* FROM CLIP NAME:  01 SFP UTAH SKY.MP3.SUB.01 
* TO CLIP NAME:  01 SFP UTAH SKY.MP3.SUB.01
324  01_SFP_U A8    C        01:00:24:12 01:00:24:22 01:26:55:03 01:26:55:13 
* FROM CLIP NAME:  01 SFP UTAH SKY.MP3.SUB.01 
* TO CLIP NAME:  01 SFP UTAH SKY.MP3.SUB.01
325  01_SFP_U A7    C        01:00:24:22 01:00:50:00 01:26:55:13 01:27:20:23 
* FROM CLIP NAME:  01 SFP UTAH SKY.MP3.SUB.01
326  01_SFP_U A8    C        01:00:24:22 01:00:50:00 01:26:55:13 01:27:20:23 
* FROM CLIP NAME:  01 SFP UTAH SKY.MP3.SUB.01
327  01_SFP_U A7    C        01:02:13:27 01:02:22:26 01:27:20:23 01:27:29:22 
* FROM CLIP NAME:  01 SFP UTAH SKY.MP3.SUB.01
328  01_SFP_U A8    C        01:02:13:27 01:02:22:26 01:27:20:23 01:27:29:22 
* FROM CLIP NAME:  01 SFP UTAH SKY.MP3.SUB.01
329  ZZ_ROM_S A7    C        01:00:00:00 01:00:04:18 01:27:35:11 01:27:39:29 
* FROM CLIP NAME:  ZZ_ROM SLEEP 115BPM.AIF
330  ZZ_ROM_S A8    C        01:00:00:00 01:00:04:18 01:27:35:11 01:27:39:29 
* FROM CLIP NAME:  ZZ_ROM SLEEP 115BPM.AIF
331  ZZ_ROM_S A7    C        01:00:04:18 01:00:04:24 01:27:39:29 01:27:40:05 
* FROM CLIP NAME:  ZZ_ROM SLEEP 115BPM.AIF 
* TO CLIP NAME:  ZZ_ROM SLEEP 115BPM.AIF
332  ZZ_ROM_S A8    C        01:00:04:18 01:00:04:24 01:27:39:29 01:27:40:05 
* FROM CLIP NAME:  ZZ_ROM SLEEP 115BPM.AIF 
* TO CLIP NAME:  ZZ_ROM SLEEP 115BPM.AIF
333  ZZ_ROM_S A7    C        01:00:04:24 01:00:12:00 01:27:40:05 01:27:47:11 
* FROM CLIP NAME:  ZZ_ROM SLEEP 115BPM.AIF
334  ZZ_ROM_S A8    C        01:00:04:24 01:00:12:00 01:27:40:05 01:27:47:11 
* FROM CLIP NAME:  ZZ_ROM SLEEP 115BPM.AIF
335  ZZ_ROM_S A7    C        01:00:17:29 01:00:18:05 01:27:47:11 01:27:47:17 
* FROM CLIP NAME:  ZZ_ROM SLEEP 115BPM.AIF 
* TO CLIP NAME:  ZZ_ROM SLEEP 115BPM.AIF
336  ZZ_ROM_S A8    C        01:00:17:29 01:00:18:05 01:27:47:11 01:27:47:17 
* FROM CLIP NAME:  ZZ_ROM SLEEP 115BPM.AIF 
* TO CLIP NAME:  ZZ_ROM SLEEP 115BPM.AIF
337  ZZ_ROM_S A7    C        01:00:18:05 01:00:22:10 01:27:47:17 01:27:51:22 
* FROM CLIP NAME:  ZZ_ROM SLEEP 115BPM.AIF
338  ZZ_ROM_S A8    C        01:00:18:05 01:00:22:10 01:27:47:17 01:27:51:22 
* FROM CLIP NAME:  ZZ_ROM SLEEP 115BPM.AIF
339  ZZ_ROM_S A7    C        01:00:22:10 01:00:22:16 01:27:51:22 01:27:51:28 
* FROM CLIP NAME:  ZZ_ROM SLEEP 115BPM.AIF 
* TO CLIP NAME:  ZZ_ROM SLEEP 115BPM.AIF
340  ZZ_ROM_S A8    C        01:00:22:10 01:00:22:16 01:27:51:22 01:27:51:28 
* FROM CLIP NAME:  ZZ_ROM SLEEP 115BPM.AIF 
* TO CLIP NAME:  ZZ_ROM SLEEP 115BPM.AIF
341  ZZ_ROM_S A7    C        01:00:22:16 01:00:25:25 01:27:51:28 01:27:55:07 
* FROM CLIP NAME:  ZZ_ROM SLEEP 115BPM.AIF
342  ZZ_ROM_S A8    C        01:00:22:16 01:00:25:25 01:27:51:28 01:27:55:07 
* FROM CLIP NAME:  ZZ_ROM SLEEP 115BPM.AIF
343  ZZ_ROM_S A7    C        01:00:25:25 01:00:26:01 01:27:55:07 01:27:55:13 
* FROM CLIP NAME:  ZZ_ROM SLEEP 115BPM.AIF 
* TO CLIP NAME:  ZZ_ROM SLEEP 115BPM.AIF
344  ZZ_ROM_S A8    C        01:00:25:25 01:00:26:01 01:27:55:07 01:27:55:13 
* FROM CLIP NAME:  ZZ_ROM SLEEP 115BPM.AIF 
* TO CLIP NAME:  ZZ_ROM SLEEP 115BPM.AIF
345  ZZ_ROM_S A7    C        01:00:26:01 01:00:38:17 01:27:55:13 01:28:08:01 
* FROM CLIP NAME:  ZZ_ROM SLEEP 115BPM.AIF
346  ZZ_ROM_S A8    C        01:00:26:01 01:00:38:17 01:27:55:13 01:28:08:01 
* FROM CLIP NAME:  ZZ_ROM SLEEP 115BPM.AIF
347  ZZ_ROM_S A7    C        01:00:40:29 01:00:41:05 01:28:08:01 01:28:08:07 
* FROM CLIP NAME:  ZZ_ROM SLEEP 115BPM.AIF 
* TO CLIP NAME:  ZZ_ROM SLEEP 115BPM.AIF
348  ZZ_ROM_S A8    C        01:00:40:29 01:00:41:05 01:28:08:01 01:28:08:07 
* FROM CLIP NAME:  ZZ_ROM SLEEP 115BPM.AIF 
* TO CLIP NAME:  ZZ_ROM SLEEP 115BPM.AIF
349  ZZ_ROM_S A7    C        01:00:41:05 01:00:50:09 01:28:08:07 01:28:17:11 
* FROM CLIP NAME:  ZZ_ROM SLEEP 115BPM.AIF
350  ZZ_ROM_S A8    C        01:00:41:05 01:00:50:09 01:28:08:07 01:28:17:11 
* FROM CLIP NAME:  ZZ_ROM SLEEP 115BPM.AIF
351  ZZ_ROM_S A7    C        01:00:50:09 01:00:50:15 01:28:17:11 01:28:17:17 
* FROM CLIP NAME:  ZZ_ROM SLEEP 115BPM.AIF 
* TO CLIP NAME:  ZZ_ROM SLEEP 115BPM.AIF
352  ZZ_ROM_S A8    C        01:00:50:09 01:00:50:15 01:28:17:11 01:28:17:17 
* FROM CLIP NAME:  ZZ_ROM SLEEP 115BPM.AIF 
* TO CLIP NAME:  ZZ_ROM SLEEP 115BPM.AIF
353  ZZ_ROM_S A7    C        01:00:50:15 01:01:01:10 01:28:17:17 01:28:28:10 
* FROM CLIP NAME:  ZZ_ROM SLEEP 115BPM.AIF
354  ZZ_ROM_S A8    C        01:00:50:15 01:01:01:10 01:28:17:17 01:28:28:10 
* FROM CLIP NAME:  ZZ_ROM SLEEP 115BPM.AIF
355  ZZ_ROM_S A7    C        01:01:34:14 01:01:34:20 01:28:28:10 01:28:28:16 
* FROM CLIP NAME:  ZZ_ROM SLEEP 115BPM.AIF 
* TO CLIP NAME:  ZZ_ROM SLEEP 115BPM.AIF
356  ZZ_ROM_S A8    C        01:01:34:14 01:01:34:20 01:28:28:10 01:28:28:16 
* FROM CLIP NAME:  ZZ_ROM SLEEP 115BPM.AIF 
* TO CLIP NAME:  ZZ_ROM SLEEP 115BPM.AIF
357  ZZ_ROM_S A7    C        01:01:34:20 01:01:39:28 01:28:28:16 01:28:33:24 
* FROM CLIP NAME:  ZZ_ROM SLEEP 115BPM.AIF
358  ZZ_ROM_S A8    C        01:01:34:20 01:01:39:28 01:28:28:16 01:28:33:24 
* FROM CLIP NAME:  ZZ_ROM SLEEP 115BPM.AIF
359  PSM_BAD_ A9    C        01:00:00:00 01:00:03:22 01:29:17:24 01:29:21:16 
* FROM CLIP NAME:  PSM_BAD BOY DNB_FB.MP3
360  PSM_BAD_ A10   C        01:00:00:00 01:00:03:22 01:29:17:24 01:29:21:16 
* FROM CLIP NAME:  PSM_BAD BOY DNB_FB.MP3
361  PSM_BAD_ A9    C        01:00:03:22 01:00:04:07 01:29:21:16 01:29:22:01 
* FROM CLIP NAME:  PSM_BAD BOY DNB_FB.MP3 
* TO CLIP NAME:  PSM_BAD BOY DNB_FB.MP3
362  PSM_BAD_ A10   C        01:00:03:22 01:00:04:07 01:29:21:16 01:29:22:01 
* FROM CLIP NAME:  PSM_BAD BOY DNB_FB.MP3 
* TO CLIP NAME:  PSM_BAD BOY DNB_FB.MP3
363  PSM_BAD_ A9    C        01:00:04:07 01:00:39:06 01:29:22:01 01:29:57:00 
* FROM CLIP NAME:  PSM_BAD BOY DNB_FB.MP3
364  PSM_BAD_ A10   C        01:00:04:07 01:00:39:06 01:29:22:01 01:29:57:00 
* FROM CLIP NAME:  PSM_BAD BOY DNB_FB.MP3
365  PSM_BAD_ A9    C        01:01:41:04 01:01:44:20 01:29:57:00 01:30:00:16 
* FROM CLIP NAME:  PSM_BAD BOY DNB_FB.MP3
366  PSM_BAD_ A10   C        01:01:41:04 01:01:44:20 01:29:57:00 01:30:00:16 
* FROM CLIP NAME:  PSM_BAD BOY DNB_FB.MP3
367  DCD004_1 A9    C        01:00:00:00 01:00:30:19 01:30:16:25 01:30:47:14 
* FROM CLIP NAME:  DCD004_10 SHADOWMAN.AIF
368  DCD004_1 A10   C        01:00:00:00 01:00:30:19 01:30:16:25 01:30:47:14 
* FROM CLIP NAME:  DCD004_10 SHADOWMAN.AIF
369  DCD004_1 A7    C        01:01:42:02 01:01:47:11 01:30:47:09 01:30:52:18 
* FROM CLIP NAME:  DCD004_10 SHADOWMAN.AIF
370  DCD004_1 A8    C        01:01:42:02 01:01:47:11 01:30:47:09 01:30:52:18 
* FROM CLIP NAME:  DCD004_10 SHADOWMAN.AIF
371  ZZ_WAY_B A9    C        01:00:00:00 01:00:26:05 01:30:49:16 01:31:15:23 
* FROM CLIP NAME:  ZZ_WAY BACK 85BPM.AIF
372  ZZ_WAY_B A10   C        01:00:00:00 01:00:26:05 01:30:49:16 01:31:15:23 
* FROM CLIP NAME:  ZZ_WAY BACK 85BPM.AIF
373  ZZ_WAY_B A9    C        01:01:55:27 01:02:00:15 01:31:15:23 01:31:20:09 
* FROM CLIP NAME:  ZZ_WAY BACK 85BPM.AIF
374  ZZ_WAY_B A10   C        01:01:55:27 01:02:00:15 01:31:15:23 01:31:20:09 
* FROM CLIP NAME:  ZZ_WAY BACK 85BPM.AIF
375  ITG1143_ A7    C        01:00:00:00 01:00:04:12 01:31:20:09 01:31:24:21 
* FROM CLIP NAME:  ITG1143_12_ITG HIGHWAY ROBBERY INST.MP3.COPY.01
376  ITG1143_ A8    C        01:00:00:00 01:00:04:12 01:31:20:09 01:31:24:21 
* FROM CLIP NAME:  ITG1143_12_ITG HIGHWAY ROBBERY INST.MP3.COPY.01
377  ITG1143_ A7    C        01:00:04:12 01:00:04:18 01:31:24:21 01:31:24:27 
* FROM CLIP NAME:  ITG1143_12_ITG HIGHWAY ROBBERY INST.MP3.COPY.01 
* TO CLIP NAME:  ITG1143_12_ITG HIGHWAY ROBBERY INST.MP3.COPY.01
378  ITG1143_ A8    C        01:00:04:12 01:00:04:18 01:31:24:21 01:31:24:27 
* FROM CLIP NAME:  ITG1143_12_ITG HIGHWAY ROBBERY INST.MP3.COPY.01 
* TO CLIP NAME:  ITG1143_12_ITG HIGHWAY ROBBERY INST.MP3.COPY.01
379  ITG1143_ A7    C        01:00:04:18 01:00:10:11 01:31:24:27 01:31:30:20 
* FROM CLIP NAME:  ITG1143_12_ITG HIGHWAY ROBBERY INST.MP3.COPY.01
380  ITG1143_ A8    C        01:00:04:18 01:00:10:11 01:31:24:27 01:31:30:20 
* FROM CLIP NAME:  ITG1143_12_ITG HIGHWAY ROBBERY INST.MP3.COPY.01
381  ITG1143_ A7    C        01:00:10:11 01:00:10:17 01:31:30:20 01:31:30:26 
* FROM CLIP NAME:  ITG1143_12_ITG HIGHWAY ROBBERY INST.MP3.COPY.01 
* TO CLIP NAME:  ITG1143_12_ITG HIGHWAY ROBBERY INST.MP3.COPY.01
382  ITG1143_ A8    C        01:00:10:11 01:00:10:17 01:31:30:20 01:31:30:26 
* FROM CLIP NAME:  ITG1143_12_ITG HIGHWAY ROBBERY INST.MP3.COPY.01 
* TO CLIP NAME:  ITG1143_12_ITG HIGHWAY ROBBERY INST.MP3.COPY.01
383  ITG1143_ A7    C        01:00:10:17 01:00:14:24 01:31:30:26 01:31:35:03 
* FROM CLIP NAME:  ITG1143_12_ITG HIGHWAY ROBBERY INST.MP3.COPY.01
384  ITG1143_ A8    C        01:00:10:17 01:00:14:24 01:31:30:26 01:31:35:03 
* FROM CLIP NAME:  ITG1143_12_ITG HIGHWAY ROBBERY INST.MP3.COPY.01
385  ITG1143_ A7    C        01:00:14:24 01:00:15:04 01:31:35:03 01:31:35:13 
* FROM CLIP NAME:  ITG1143_12_ITG HIGHWAY ROBBERY INST.MP3.COPY.01 
* TO CLIP NAME:  ITG1143_12_ITG HIGHWAY ROBBERY INST.MP3.COPY.01
386  ITG1143_ A8    C        01:00:14:24 01:00:15:04 01:31:35:03 01:31:35:13 
* FROM CLIP NAME:  ITG1143_12_ITG HIGHWAY ROBBERY INST.MP3.COPY.01 
* TO CLIP NAME:  ITG1143_12_ITG HIGHWAY ROBBERY INST.MP3.COPY.01
387  ITG1143_ A7    C        01:00:15:04 01:00:19:07 01:31:35:13 01:31:39:16 
* FROM CLIP NAME:  ITG1143_12_ITG HIGHWAY ROBBERY INST.MP3.COPY.01
388  ITG1143_ A8    C        01:00:15:04 01:00:19:07 01:31:35:13 01:31:39:16 
* FROM CLIP NAME:  ITG1143_12_ITG HIGHWAY ROBBERY INST.MP3.COPY.01
389  ITG1143_ A7    C        01:00:19:07 01:00:19:13 01:31:39:16 01:31:39:22 
* FROM CLIP NAME:  ITG1143_12_ITG HIGHWAY ROBBERY INST.MP3.COPY.01 
* TO CLIP NAME:  ITG1143_12_ITG HIGHWAY ROBBERY INST.MP3.COPY.01
390  ITG1143_ A8    C        01:00:19:07 01:00:19:13 01:31:39:16 01:31:39:22 
* FROM CLIP NAME:  ITG1143_12_ITG HIGHWAY ROBBERY INST.MP3.COPY.01 
* TO CLIP NAME:  ITG1143_12_ITG HIGHWAY ROBBERY INST.MP3.COPY.01
391  ITG1143_ A7    C        01:00:19:13 01:00:22:20 01:31:39:22 01:31:42:29 
* FROM CLIP NAME:  ITG1143_12_ITG HIGHWAY ROBBERY INST.MP3.COPY.01
392  ITG1143_ A8    C        01:00:19:13 01:00:22:20 01:31:39:22 01:31:42:29 
* FROM CLIP NAME:  ITG1143_12_ITG HIGHWAY ROBBERY INST.MP3.COPY.01
393  ITG1143_ A7    C        01:00:22:20 01:00:23:10 01:31:42:29 01:31:43:19 
* FROM CLIP NAME:  ITG1143_12_ITG HIGHWAY ROBBERY INST.MP3.COPY.01 
* TO CLIP NAME:  ITG1143_12_ITG HIGHWAY ROBBERY INST.MP3.COPY.01
394  ITG1143_ A8    C        01:00:22:20 01:00:23:10 01:31:42:29 01:31:43:19 
* FROM CLIP NAME:  ITG1143_12_ITG HIGHWAY ROBBERY INST.MP3.COPY.01 
* TO CLIP NAME:  ITG1143_12_ITG HIGHWAY ROBBERY INST.MP3.COPY.01
395  ITG1143_ A7    C        01:00:23:10 01:00:27:00 01:31:43:19 01:31:47:09 
* FROM CLIP NAME:  ITG1143_12_ITG HIGHWAY ROBBERY INST.MP3.COPY.01
396  ITG1143_ A8    C        01:00:23:10 01:00:27:00 01:31:43:19 01:31:47:09 
* FROM CLIP NAME:  ITG1143_12_ITG HIGHWAY ROBBERY INST.MP3.COPY.01
397  ITG1143_ A7    C        01:00:27:00 01:00:27:06 01:31:47:09 01:31:47:15 
* FROM CLIP NAME:  ITG1143_12_ITG HIGHWAY ROBBERY INST.MP3.COPY.01 
* TO CLIP NAME:  ITG1143_12_ITG HIGHWAY ROBBERY INST.MP3.COPY.01
398  ITG1143_ A8    C        01:00:27:00 01:00:27:06 01:31:47:09 01:31:47:15 
* FROM CLIP NAME:  ITG1143_12_ITG HIGHWAY ROBBERY INST.MP3.COPY.01 
* TO CLIP NAME:  ITG1143_12_ITG HIGHWAY ROBBERY INST.MP3.COPY.01
399  ITG1143_ A7    C        01:00:27:06 01:00:29:12 01:31:47:15 01:31:49:21 
* FROM CLIP NAME:  ITG1143_12_ITG HIGHWAY ROBBERY INST.MP3.COPY.01
400  ITG1143_ A8    C        01:00:27:06 01:00:29:12 01:31:47:15 01:31:49:21 
* FROM CLIP NAME:  ITG1143_12_ITG HIGHWAY ROBBERY INST.MP3.COPY.01
401  ITG1143_ A7    C        01:01:37:24 01:01:41:00 01:31:49:21 01:31:52:27 
* FROM CLIP NAME:  ITG1143_12_ITG HIGHWAY ROBBERY INST.MP3.COPY.01
402  ITG1143_ A8    C        01:01:37:24 01:01:41:00 01:31:49:21 01:31:52:27 
* FROM CLIP NAME:  ITG1143_12_ITG HIGHWAY ROBBERY INST.MP3.COPY.01
403  ITG1143_ A7    C        01:01:41:00 01:01:41:06 01:31:52:27 01:31:53:03 
* FROM CLIP NAME:  ITG1143_12_ITG HIGHWAY ROBBERY INST.MP3.COPY.01 
* TO CLIP NAME:  ITG1143_12_ITG HIGHWAY ROBBERY INST.MP3.COPY.01
404  ITG1143_ A8    C        01:01:41:00 01:01:41:06 01:31:52:27 01:31:53:03 
* FROM CLIP NAME:  ITG1143_12_ITG HIGHWAY ROBBERY INST.MP3.COPY.01 
* TO CLIP NAME:  ITG1143_12_ITG HIGHWAY ROBBERY INST.MP3.COPY.01
405  ITG1143_ A7    C        01:01:41:06 01:01:46:22 01:31:53:03 01:31:58:19 
* FROM CLIP NAME:  ITG1143_12_ITG HIGHWAY ROBBERY INST.MP3.COPY.01
406  ITG1143_ A8    C        01:01:41:06 01:01:46:22 01:31:53:03 01:31:58:19 
* FROM CLIP NAME:  ITG1143_12_ITG HIGHWAY ROBBERY INST.MP3.COPY.01
407  ITG1143_ A7    C        01:01:46:22 01:01:46:28 01:31:58:19 01:31:58:25 
* FROM CLIP NAME:  ITG1143_12_ITG HIGHWAY ROBBERY INST.MP3.COPY.01 
* TO CLIP NAME:  ITG1143_12_ITG HIGHWAY ROBBERY INST.MP3.COPY.01
408  ITG1143_ A8    C        01:01:46:22 01:01:46:28 01:31:58:19 01:31:58:25 
* FROM CLIP NAME:  ITG1143_12_ITG HIGHWAY ROBBERY INST.MP3.COPY.01 
* TO CLIP NAME:  ITG1143_12_ITG HIGHWAY ROBBERY INST.MP3.COPY.01
409  ITG1143_ A7    C        01:01:46:28 01:01:47:21 01:31:58:25 01:31:59:18 
* FROM CLIP NAME:  ITG1143_12_ITG HIGHWAY ROBBERY INST.MP3.COPY.01
410  ITG1143_ A8    C        01:01:46:28 01:01:47:21 01:31:58:25 01:31:59:18 
* FROM CLIP NAME:  ITG1143_12_ITG HIGHWAY ROBBERY INST.MP3.COPY.01
411  ITG1143_ A7    C        01:02:41:16 01:02:42:28 01:31:59:18 01:32:01:02 
* FROM CLIP NAME:  ITG1143_12_ITG HIGHWAY ROBBERY INST.MP3.COPY.01
412  ITG1143_ A8    C        01:02:41:16 01:02:42:28 01:31:59:18 01:32:01:02 
* FROM CLIP NAME:  ITG1143_12_ITG HIGHWAY ROBBERY INST.MP3.COPY.01
413  SFP_CD58 A9    C        01:00:00:01 01:00:11:25 01:32:01:08 01:32:13:02 
* FROM CLIP NAME:  SFP CD58 HAPPY FUN URBAN 08 SFP CHOP IT UP.MP3
414  SFP_CD58 A10   C        01:00:00:01 01:00:11:25 01:32:01:08 01:32:13:02 
* FROM CLIP NAME:  SFP CD58 HAPPY FUN URBAN 08 SFP CHOP IT UP.MP3
415  SFP_CD58 A9    C        01:00:11:25 01:00:12:01 01:32:13:02 01:32:13:08 
* FROM CLIP NAME:  SFP CD58 HAPPY FUN URBAN 08 SFP CHOP IT UP.MP3 
* TO CLIP NAME:  SFP CD58 HAPPY FUN URBAN 08 SFP CHOP IT UP.MP3
416  SFP_CD58 A10   C        01:00:11:25 01:00:12:01 01:32:13:02 01:32:13:08 
* FROM CLIP NAME:  SFP CD58 HAPPY FUN URBAN 08 SFP CHOP IT UP.MP3 
* TO CLIP NAME:  SFP CD58 HAPPY FUN URBAN 08 SFP CHOP IT UP.MP3
417  SFP_CD58 A9    C        01:00:12:01 01:00:20:20 01:32:13:08 01:32:21:27 
* FROM CLIP NAME:  SFP CD58 HAPPY FUN URBAN 08 SFP CHOP IT UP.MP3
418  SFP_CD58 A10   C        01:00:12:01 01:00:20:20 01:32:13:08 01:32:21:27 
* FROM CLIP NAME:  SFP CD58 HAPPY FUN URBAN 08 SFP CHOP IT UP.MP3
419  SFP_CD58 A9    C        01:03:17:02 01:03:18:25 01:32:21:27 01:32:23:20 
* FROM CLIP NAME:  SFP CD58 HAPPY FUN URBAN 08 SFP CHOP IT UP.MP3
420  SFP_CD58 A10   C        01:03:17:02 01:03:18:25 01:32:21:27 01:32:23:20 
* FROM CLIP NAME:  SFP CD58 HAPPY FUN URBAN 08 SFP CHOP IT UP.MP3
421  XMT122_1 A7    C        01:00:00:00 01:00:03:09 01:32:28:13 01:32:31:22 
* FROM CLIP NAME:  XMT122_13 ABSOLUTE TRUTHS APPEAR.AIF
422  XMT122_1 A8    C        01:00:00:00 01:00:03:09 01:32:28:13 01:32:31:22 
* FROM CLIP NAME:  XMT122_13 ABSOLUTE TRUTHS APPEAR.AIF
423  XMT122_1 A7    C        01:00:03:09 01:00:03:15 01:32:31:22 01:32:31:28 
* FROM CLIP NAME:  XMT122_13 ABSOLUTE TRUTHS APPEAR.AIF 
* TO CLIP NAME:  XMT122_13 ABSOLUTE TRUTHS APPEAR.AIF
424  XMT122_1 A8    C        01:00:03:09 01:00:03:15 01:32:31:22 01:32:31:28 
* FROM CLIP NAME:  XMT122_13 ABSOLUTE TRUTHS APPEAR.AIF 
* TO CLIP NAME:  XMT122_13 ABSOLUTE TRUTHS APPEAR.AIF
425  XMT122_1 A7    C        01:00:03:15 01:00:04:11 01:32:31:28 01:32:32:24 
* FROM CLIP NAME:  XMT122_13 ABSOLUTE TRUTHS APPEAR.AIF
426  XMT122_1 A8    C        01:00:03:15 01:00:04:11 01:32:31:28 01:32:32:24 
* FROM CLIP NAME:  XMT122_13 ABSOLUTE TRUTHS APPEAR.AIF
427  XMT122_1 A7    C        01:00:00:00 01:00:06:08 01:32:32:24 01:32:39:02 
* FROM CLIP NAME:  XMT122_13_1 ABSOLUTE TRUTHS APPEAR.AIF
428  XMT122_1 A8    C        01:00:00:00 01:00:06:08 01:32:32:24 01:32:39:02 
* FROM CLIP NAME:  XMT122_13_1 ABSOLUTE TRUTHS APPEAR.AIF
429  XMT122_1 A7    C        01:00:28:10 01:00:28:26 01:32:39:02 01:32:39:18 
* FROM CLIP NAME:  XMT122_13_1 ABSOLUTE TRUTHS APPEAR.AIF
430  XMT122_1 A8    C        01:00:28:10 01:00:28:26 01:32:39:02 01:32:39:18 
* FROM CLIP NAME:  XMT122_13_1 ABSOLUTE TRUTHS APPEAR.AIF
431  XMT122_1 A9    C        01:00:27:26 01:00:30:15 01:32:39:02 01:32:41:21 
* FROM CLIP NAME:  XMT122_12_1 WINK & A MILE.AIF
432  XMT122_1 A10   C        01:00:27:26 01:00:30:15 01:32:39:02 01:32:41:21 
* FROM CLIP NAME:  XMT122_12_1 WINK & A MILE.AIF
433  YAACOV_A A9    C        01:00:03:00 01:00:20:29 01:32:53:19 01:33:11:20 
* FROM CLIP NAME:  YAACOV ANTELIS- CITY DRIVE_INST_EM.MP3
434  YAACOV_A A10   C        01:00:03:00 01:00:20:29 01:32:53:19 01:33:11:20 
* FROM CLIP NAME:  YAACOV ANTELIS- CITY DRIVE_INST_EM.MP3
435  YAACOV_A A9    C        01:00:14:29 01:00:20:29 01:33:11:20 01:33:17:20 
* FROM CLIP NAME:  YAACOV ANTELIS- CITY DRIVE_INST_EM.MP3
436  YAACOV_A A10   C        01:00:14:29 01:00:20:29 01:33:11:20 01:33:17:20 
* FROM CLIP NAME:  YAACOV ANTELIS- CITY DRIVE_INST_EM.MP3
437  YAACOV_A A9    C        01:00:20:29 01:00:26:29 01:33:17:20 01:33:23:20 
* FROM CLIP NAME:  YAACOV ANTELIS- CITY DRIVE_INST_EM.MP3
438  YAACOV_A A10   C        01:00:20:29 01:00:26:29 01:33:17:20 01:33:23:20 
* FROM CLIP NAME:  YAACOV ANTELIS- CITY DRIVE_INST_EM.MP3
439  YAACOV_A A9    C        01:00:32:29 01:00:44:10 01:33:23:20 01:33:35:01 
* FROM CLIP NAME:  YAACOV ANTELIS- CITY DRIVE_INST_EM.MP3
440  YAACOV_A A10   C        01:00:32:29 01:00:44:10 01:33:23:20 01:33:35:01 
* FROM CLIP NAME:  YAACOV ANTELIS- CITY DRIVE_INST_EM.MP3
441  YAACOV_A A9    C        01:00:44:10 01:00:44:16 01:33:35:01 01:33:35:07 
* FROM CLIP NAME:  YAACOV ANTELIS- CITY DRIVE_INST_EM.MP3 
* TO CLIP NAME:  YAACOV ANTELIS- CITY DRIVE_INST_EM.MP3
442  YAACOV_A A10   C        01:00:44:10 01:00:44:16 01:33:35:01 01:33:35:07 
* FROM CLIP NAME:  YAACOV ANTELIS- CITY DRIVE_INST_EM.MP3 
* TO CLIP NAME:  YAACOV ANTELIS- CITY DRIVE_INST_EM.MP3
443  YAACOV_A A9    C        01:00:44:16 01:00:49:19 01:33:35:07 01:33:40:10 
* FROM CLIP NAME:  YAACOV ANTELIS- CITY DRIVE_INST_EM.MP3
444  YAACOV_A A10   C        01:00:44:16 01:00:49:19 01:33:35:07 01:33:40:10 
* FROM CLIP NAME:  YAACOV ANTELIS- CITY DRIVE_INST_EM.MP3
445  YAACOV_A A9    C        01:01:28:18 01:01:31:16 01:33:40:10 01:33:43:08 
* FROM CLIP NAME:  YAACOV ANTELIS- CITY DRIVE_INST_EM.MP3
446  YAACOV_A A10   C        01:01:28:18 01:01:31:16 01:33:40:10 01:33:43:08 
* FROM CLIP NAME:  YAACOV ANTELIS- CITY DRIVE_INST_EM.MP3
447  01_SFP_T A9    C        01:00:04:04 01:00:05:14 01:33:54:02 01:33:55:12 
* FROM CLIP NAME:  01 SFP THIS IS HOW WE DO.MP3.COPY.01
448  01_SFP_T A10   C        01:00:04:03 01:00:05:13 01:33:54:02 01:33:55:12 
* FROM CLIP NAME:  01 SFP THIS IS HOW WE DO.MP3.COPY.01
449  01_SFP_T A9    C        01:00:05:14 01:00:06:11 01:33:55:12 01:33:56:09 
* FROM CLIP NAME:  01 SFP THIS IS HOW WE DO.MP3.COPY.01
450  01_SFP_T A10   C        01:00:05:13 01:00:06:10 01:33:55:12 01:33:56:09 
* FROM CLIP NAME:  01 SFP THIS IS HOW WE DO.MP3.COPY.01
451  XMT144_1 A7    C        01:00:00:01 01:00:36:11 01:33:57:22 01:34:34:04 
* FROM CLIP NAME:  XMT144_10 BUSTED YA GRILL.AIF
452  XMT144_1 A8    C        01:00:00:01 01:00:36:11 01:33:57:22 01:34:34:04 
* FROM CLIP NAME:  XMT144_10 BUSTED YA GRILL.AIF
453  XMT144_1 A7    C        01:00:32:18 01:00:32:28 01:34:34:04 01:34:34:14 
* FROM CLIP NAME:  XMT144_10 BUSTED YA GRILL.AIF 
* TO CLIP NAME:  XMT144_10 BUSTED YA GRILL.AIF
454  XMT144_1 A8    C        01:00:32:18 01:00:32:28 01:34:34:04 01:34:34:14 
* FROM CLIP NAME:  XMT144_10 BUSTED YA GRILL.AIF 
* TO CLIP NAME:  XMT144_10 BUSTED YA GRILL.AIF
455  XMT144_1 A7    C        01:00:32:28 01:00:50:25 01:34:34:14 01:34:52:11 
* FROM CLIP NAME:  XMT144_10 BUSTED YA GRILL.AIF
456  XMT144_1 A8    C        01:00:32:28 01:00:50:25 01:34:34:14 01:34:52:11 
* FROM CLIP NAME:  XMT144_10 BUSTED YA GRILL.AIF
457  XMT144_1 A9    C        01:02:08:02 01:02:13:11 01:34:49:19 01:34:54:28 
* FROM CLIP NAME:  XMT144_10 BUSTED YA GRILL.AIF
458  XMT144_1 A10   C        01:02:08:02 01:02:13:11 01:34:49:19 01:34:54:28 
* FROM CLIP NAME:  XMT144_10 BUSTED YA GRILL.AIF
459  08_SFP_S A9    C        01:00:00:05 01:00:02:00 01:34:54:28 01:34:56:23 
* FROM CLIP NAME:  08 SFP STARBRUSH (BED NO DRUMS).MP3.SUB.01
460  08_SFP_S A10   C        01:00:00:05 01:00:02:00 01:34:54:28 01:34:56:23 
* FROM CLIP NAME:  08 SFP STARBRUSH (BED NO DRUMS).MP3.SUB.01
461  08_SFP_S A9    C        01:00:02:00 01:00:03:10 01:34:56:23 01:34:58:03 
* FROM CLIP NAME:  08 SFP STARBRUSH (BED NO DRUMS).MP3.SUB.01 
* TO CLIP NAME:  08 SFP STARBRUSH (BED NO DRUMS).MP3.SUB.01
462  08_SFP_S A10   C        01:00:02:00 01:00:03:10 01:34:56:23 01:34:58:03 
* FROM CLIP NAME:  08 SFP STARBRUSH (BED NO DRUMS).MP3.SUB.01 
* TO CLIP NAME:  08 SFP STARBRUSH (BED NO DRUMS).MP3.SUB.01
463  08_SFP_S A9    C        01:00:03:10 01:00:09:29 01:34:58:03 01:35:04:24 
* FROM CLIP NAME:  08 SFP STARBRUSH (BED NO DRUMS).MP3.SUB.01
464  08_SFP_S A10   C        01:00:03:10 01:00:09:29 01:34:58:03 01:35:04:24 
* FROM CLIP NAME:  08 SFP STARBRUSH (BED NO DRUMS).MP3.SUB.01
465  08_SFP_S A9    C        01:00:09:29 01:00:11:09 01:35:04:24 01:35:06:04 
* FROM CLIP NAME:  08 SFP STARBRUSH (BED NO DRUMS).MP3.SUB.01 
* TO CLIP NAME:  08 SFP STARBRUSH (BED NO DRUMS).MP3.SUB.01
466  08_SFP_S A10   C        01:00:09:29 01:00:11:09 01:35:04:24 01:35:06:04 
* FROM CLIP NAME:  08 SFP STARBRUSH (BED NO DRUMS).MP3.SUB.01 
* TO CLIP NAME:  08 SFP STARBRUSH (BED NO DRUMS).MP3.SUB.01
467  08_SFP_S A9    C        01:00:11:09 01:00:22:06 01:35:06:04 01:35:17:01 
* FROM CLIP NAME:  08 SFP STARBRUSH (BED NO DRUMS).MP3.SUB.01
468  08_SFP_S A10   C        01:00:11:09 01:00:22:06 01:35:06:04 01:35:17:01 
* FROM CLIP NAME:  08 SFP STARBRUSH (BED NO DRUMS).MP3.SUB.01
469  08_SFP_S A9    C        01:00:22:06 01:00:22:12 01:35:17:01 01:35:17:07 
* FROM CLIP NAME:  08 SFP STARBRUSH (BED NO DRUMS).MP3.SUB.01 
* TO CLIP NAME:  08 SFP STARBRUSH (BED NO DRUMS).MP3.SUB.01
470  08_SFP_S A10   C        01:00:22:06 01:00:22:12 01:35:17:01 01:35:17:07 
* FROM CLIP NAME:  08 SFP STARBRUSH (BED NO DRUMS).MP3.SUB.01 
* TO CLIP NAME:  08 SFP STARBRUSH (BED NO DRUMS).MP3.SUB.01
471  08_SFP_S A9    C        01:00:22:12 01:00:31:29 01:35:17:07 01:35:26:24 
* FROM CLIP NAME:  08 SFP STARBRUSH (BED NO DRUMS).MP3.SUB.01
472  08_SFP_S A10   C        01:00:22:12 01:00:31:29 01:35:17:07 01:35:26:24 
* FROM CLIP NAME:  08 SFP STARBRUSH (BED NO DRUMS).MP3.SUB.01
473  08_SFP_S A9    C        01:02:07:26 01:02:17:27 01:35:26:24 01:35:36:25 
* FROM CLIP NAME:  08 SFP STARBRUSH (BED NO DRUMS).MP3.SUB.01
474  08_SFP_S A10   C        01:02:07:26 01:02:17:27 01:35:26:24 01:35:36:25 
* FROM CLIP NAME:  08 SFP STARBRUSH (BED NO DRUMS).MP3.SUB.01
475  15_THE_G A7    C        01:00:00:00 01:00:16:03 01:35:32:04 01:35:48:07 
* FROM CLIP NAME:  15 THE GUESTS.MP3
476  15_THE_G A8    C        01:00:00:00 01:00:16:03 01:35:32:04 01:35:48:07 
* FROM CLIP NAME:  15 THE GUESTS.MP3
477  15_THE_G A7    C        01:01:22:29 01:01:26:12 01:35:48:07 01:35:51:20 
* FROM CLIP NAME:  15 THE GUESTS.MP3
478  15_THE_G A8    C        01:01:22:29 01:01:26:12 01:35:48:07 01:35:51:20 
* FROM CLIP NAME:  15 THE GUESTS.MP3
479  15_THE_G A7    C        01:01:26:12 01:01:27:02 01:35:51:20 01:35:52:10 
* FROM CLIP NAME:  15 THE GUESTS.MP3 
* TO CLIP NAME:  15 THE GUESTS.MP3
480  15_THE_G A8    C        01:01:26:12 01:01:27:02 01:35:51:20 01:35:52:10 
* FROM CLIP NAME:  15 THE GUESTS.MP3 
* TO CLIP NAME:  15 THE GUESTS.MP3
481  15_THE_G A7    C        01:01:27:02 01:01:38:13 01:35:52:10 01:36:03:23 
* FROM CLIP NAME:  15 THE GUESTS.MP3
482  15_THE_G A8    C        01:01:27:02 01:01:38:13 01:35:52:10 01:36:03:23 
* FROM CLIP NAME:  15 THE GUESTS.MP3
483  PJP_TELE A9    C        00:00:35:15 00:00:38:04 01:35:56:07 01:35:58:26 
* FROM CLIP NAME:  PJP_TELEPHONE.WAV
484  PJP_TELE A10   C        00:00:35:15 00:00:38:04 01:35:56:07 01:35:58:26 
* FROM CLIP NAME:  PJP_TELEPHONE.WAV
485  PJP_TELE A9    C        00:00:39:16 00:00:40:06 01:35:58:26 01:35:59:16 
* FROM CLIP NAME:  PJP_TELEPHONE.WAV 
* TO CLIP NAME:  PJP_TELEPHONE.WAV
486  PJP_TELE A10   C        00:00:39:16 00:00:40:06 01:35:58:26 01:35:59:16 
* FROM CLIP NAME:  PJP_TELEPHONE.WAV 
* TO CLIP NAME:  PJP_TELEPHONE.WAV
487  PJP_TELE A9    C        00:00:40:06 00:00:42:00 01:35:59:16 01:36:01:12 
* FROM CLIP NAME:  PJP_TELEPHONE.WAV
488  PJP_TELE A10   C        00:00:40:06 00:00:42:00 01:35:59:16 01:36:01:12 
* FROM CLIP NAME:  PJP_TELEPHONE.WAV
489  PJP_TELE A9    C        00:00:42:00 00:00:42:20 01:36:01:12 01:36:02:02 
* FROM CLIP NAME:  PJP_TELEPHONE.WAV 
* TO CLIP NAME:  PJP_TELEPHONE.WAV
490  PJP_TELE A10   C        00:00:42:00 00:00:42:20 01:36:01:12 01:36:02:02 
* FROM CLIP NAME:  PJP_TELEPHONE.WAV 
* TO CLIP NAME:  PJP_TELEPHONE.WAV
491  PJP_TELE A9    C        00:00:42:20 00:01:06:19 01:36:02:02 01:36:25:29 
* FROM CLIP NAME:  PJP_TELEPHONE.WAV
492  PJP_TELE A10   C        00:00:42:20 00:01:06:19 01:36:02:02 01:36:25:29 
* FROM CLIP NAME:  PJP_TELEPHONE.WAV
493  PJP_TELE A9    C        00:02:25:22 00:02:25:28 01:36:25:29 01:36:26:05 
* FROM CLIP NAME:  PJP_TELEPHONE.WAV 
* TO CLIP NAME:  PJP_TELEPHONE.WAV
494  PJP_TELE A10   C        00:02:25:22 00:02:25:28 01:36:25:29 01:36:26:05 
* FROM CLIP NAME:  PJP_TELEPHONE.WAV 
* TO CLIP NAME:  PJP_TELEPHONE.WAV
495  PJP_TELE A9    C        00:02:25:28 00:02:31:02 01:36:26:05 01:36:31:09 
* FROM CLIP NAME:  PJP_TELEPHONE.WAV
496  PJP_TELE A10   C        00:02:25:28 00:02:31:02 01:36:26:05 01:36:31:09 
* FROM CLIP NAME:  PJP_TELEPHONE.WAV
497  23_SFP_P A7    C        01:00:00:00 01:00:03:20 01:36:28:03 01:36:31:23 
* FROM CLIP NAME:  23 SFP POINT ZERO (NO GUITARS).MP3
498  23_SFP_P A8    C        01:00:00:00 01:00:03:20 01:36:28:03 01:36:31:23 
* FROM CLIP NAME:  23 SFP POINT ZERO (NO GUITARS).MP3
499  23_SFP_P A7    C        01:00:03:20 01:00:03:24 01:36:31:23 01:36:31:27 
* FROM CLIP NAME:  23 SFP POINT ZERO (NO GUITARS).MP3 
* TO CLIP NAME:  23 SFP POINT ZERO (NO GUITARS).MP3
500  23_SFP_P A8    C        01:00:03:20 01:00:03:24 01:36:31:23 01:36:31:27 
* FROM CLIP NAME:  23 SFP POINT ZERO (NO GUITARS).MP3 
* TO CLIP NAME:  23 SFP POINT ZERO (NO GUITARS).MP3
501  23_SFP_P A7    C        01:00:03:24 01:00:24:29 01:36:31:27 01:36:53:02 
* FROM CLIP NAME:  23 SFP POINT ZERO (NO GUITARS).MP3
502  23_SFP_P A8    C        01:00:03:24 01:00:24:29 01:36:31:27 01:36:53:02 
* FROM CLIP NAME:  23 SFP POINT ZERO (NO GUITARS).MP3
503  23_SFP_P A7    C        01:01:24:23 01:01:36:26 01:36:53:02 01:37:05:07 
* FROM CLIP NAME:  23 SFP POINT ZERO (NO GUITARS).MP3
504  23_SFP_P A8    C        01:01:24:23 01:01:36:26 01:36:53:02 01:37:05:07 
* FROM CLIP NAME:  23 SFP POINT ZERO (NO GUITARS).MP3
505  BENJAMIN A9    C        01:00:00:00 01:00:32:11 01:36:57:11 01:37:29:24 
* FROM CLIP NAME:  BENJAMINDAVIS_SHOCKER.MP3.SUB.01
506  BENJAMIN A10   C        01:00:00:00 01:00:32:11 01:36:57:11 01:37:29:24 
* FROM CLIP NAME:  BENJAMINDAVIS_SHOCKER.MP3.SUB.01
507  BENJAMIN A9    C        01:00:43:01 01:00:43:23 01:37:29:24 01:37:30:16 
* FROM CLIP NAME:  BENJAMINDAVIS_SHOCKER.MP3.SUB.01
508  BENJAMIN A10   C        01:00:43:01 01:00:43:23 01:37:29:24 01:37:30:16 
* FROM CLIP NAME:  BENJAMINDAVIS_SHOCKER.MP3.SUB.01
509  15_SFP_M A7    C        01:00:51:04 01:00:56:16 01:38:15:28 01:38:21:10 
* FROM CLIP NAME:  15 SFP MADE MAN.MP3
510  15_SFP_M A8    C        01:00:51:04 01:00:56:16 01:38:15:28 01:38:21:10 
* FROM CLIP NAME:  15 SFP MADE MAN.MP3
511  15_SFP_M A7    C        01:00:23:14 01:00:30:08 01:38:21:10 01:38:28:04 
* FROM CLIP NAME:  15 SFP MADE MAN.MP3
512  15_SFP_M A8    C        01:00:23:14 01:00:30:08 01:38:21:10 01:38:28:04 
* FROM CLIP NAME:  15 SFP MADE MAN.MP3
513  15_SFP_M A7    C        01:00:30:08 01:00:30:14 01:38:28:04 01:38:28:10 
* FROM CLIP NAME:  15 SFP MADE MAN.MP3 
* TO CLIP NAME:  15 SFP MADE MAN.MP3
514  15_SFP_M A8    C        01:00:30:08 01:00:30:14 01:38:28:04 01:38:28:10 
* FROM CLIP NAME:  15 SFP MADE MAN.MP3 
* TO CLIP NAME:  15 SFP MADE MAN.MP3
515  15_SFP_M A7    C        01:00:30:14 01:00:48:12 01:38:28:10 01:38:46:08 
* FROM CLIP NAME:  15 SFP MADE MAN.MP3
516  15_SFP_M A8    C        01:00:30:14 01:00:48:12 01:38:28:10 01:38:46:08 
* FROM CLIP NAME:  15 SFP MADE MAN.MP3
517  15_SFP_M A7    C        01:00:51:04 01:00:52:16 01:38:46:08 01:38:47:20 
* FROM CLIP NAME:  15 SFP MADE MAN.MP3
518  15_SFP_M A8    C        01:00:51:04 01:00:52:16 01:38:46:08 01:38:47:20 
* FROM CLIP NAME:  15 SFP MADE MAN.MP3
519  15_SFP_M A7    C        01:00:58:27 01:01:03:10 01:38:47:20 01:38:52:03 
* FROM CLIP NAME:  15 SFP MADE MAN.MP3
520  15_SFP_M A8    C        01:00:58:27 01:01:03:10 01:38:47:20 01:38:52:03 
* FROM CLIP NAME:  15 SFP MADE MAN.MP3
521  ZZ_DECEM A7    C        01:00:00:25 01:00:04:12 01:39:09:10 01:39:12:27 
* FROM CLIP NAME:  ZZ_DECEMBER COMES AGAIN 118BPM.AIF
522  ZZ_DECEM A8    C        01:00:00:25 01:00:04:12 01:39:09:10 01:39:12:27 
* FROM CLIP NAME:  ZZ_DECEMBER COMES AGAIN 118BPM.AIF
523  ZZ_DECEM A7    C        01:00:04:12 01:00:04:18 01:39:12:27 01:39:13:03 
* FROM CLIP NAME:  ZZ_DECEMBER COMES AGAIN 118BPM.AIF 
* TO CLIP NAME:  ZZ_DECEMBER COMES AGAIN 118BPM.AIF
524  ZZ_DECEM A8    C        01:00:04:12 01:00:04:18 01:39:12:27 01:39:13:03 
* FROM CLIP NAME:  ZZ_DECEMBER COMES AGAIN 118BPM.AIF 
* TO CLIP NAME:  ZZ_DECEMBER COMES AGAIN 118BPM.AIF
525  ZZ_DECEM A7    C        01:00:04:18 01:00:09:28 01:39:13:03 01:39:18:13 
* FROM CLIP NAME:  ZZ_DECEMBER COMES AGAIN 118BPM.AIF
526  ZZ_DECEM A8    C        01:00:04:18 01:00:09:28 01:39:13:03 01:39:18:13 
* FROM CLIP NAME:  ZZ_DECEMBER COMES AGAIN 118BPM.AIF
527  ZZ_DECEM A7    C        01:00:09:28 01:00:10:04 01:39:18:13 01:39:18:19 
* FROM CLIP NAME:  ZZ_DECEMBER COMES AGAIN 118BPM.AIF 
* TO CLIP NAME:  ZZ_DECEMBER COMES AGAIN 118BPM.AIF
528  ZZ_DECEM A8    C        01:00:09:28 01:00:10:04 01:39:18:13 01:39:18:19 
* FROM CLIP NAME:  ZZ_DECEMBER COMES AGAIN 118BPM.AIF 
* TO CLIP NAME:  ZZ_DECEMBER COMES AGAIN 118BPM.AIF
529  ZZ_DECEM A7    C        01:00:10:04 01:00:25:19 01:39:18:19 01:39:34:04 
* FROM CLIP NAME:  ZZ_DECEMBER COMES AGAIN 118BPM.AIF
530  ZZ_DECEM A8    C        01:00:10:04 01:00:25:19 01:39:18:19 01:39:34:04 
* FROM CLIP NAME:  ZZ_DECEMBER COMES AGAIN 118BPM.AIF
531  ZZ_DECEM A7    C        01:01:44:21 01:01:45:21 01:39:34:04 01:39:35:04 
* FROM CLIP NAME:  ZZ_DECEMBER COMES AGAIN 118BPM.AIF 
* TO CLIP NAME:  ZZ_DECEMBER COMES AGAIN 118BPM.AIF
532  ZZ_DECEM A8    C        01:01:44:21 01:01:45:21 01:39:34:04 01:39:35:04 
* FROM CLIP NAME:  ZZ_DECEMBER COMES AGAIN 118BPM.AIF 
* TO CLIP NAME:  ZZ_DECEMBER COMES AGAIN 118BPM.AIF
533  ZZ_DECEM A7    C        01:01:45:21 01:01:55:12 01:39:35:04 01:39:44:25 
* FROM CLIP NAME:  ZZ_DECEMBER COMES AGAIN 118BPM.AIF
534  ZZ_DECEM A8    C        01:01:45:21 01:01:55:12 01:39:35:04 01:39:44:25 
* FROM CLIP NAME:  ZZ_DECEMBER COMES AGAIN 118BPM.AIF
535  16_SFP_N A9    C        01:00:09:06 01:00:14:18 01:39:44:29 01:39:50:11 
* FROM CLIP NAME:  16 SFP NO WALLS TO CLIMB (BED NO DRUMS).MP3.COPY.01
536  16_SFP_N A10   C        01:00:09:06 01:00:14:18 01:39:44:29 01:39:50:11 
* FROM CLIP NAME:  16 SFP NO WALLS TO CLIMB (BED NO DRUMS).MP3.COPY.01
537  16_SFP_N A9    C        01:00:14:18 01:00:15:08 01:39:50:11 01:39:51:01 
* FROM CLIP NAME:  16 SFP NO WALLS TO CLIMB (BED NO DRUMS).MP3.COPY.01 
* TO CLIP NAME:  16 SFP NO WALLS TO CLIMB (BED NO DRUMS).MP3.COPY.01
538  16_SFP_N A10   C        01:00:14:18 01:00:15:08 01:39:50:11 01:39:51:01 
* FROM CLIP NAME:  16 SFP NO WALLS TO CLIMB (BED NO DRUMS).MP3.COPY.01 
* TO CLIP NAME:  16 SFP NO WALLS TO CLIMB (BED NO DRUMS).MP3.COPY.01
539  16_SFP_N A9    C        01:00:15:08 01:00:18:29 01:39:51:01 01:39:54:22 
* FROM CLIP NAME:  16 SFP NO WALLS TO CLIMB (BED NO DRUMS).MP3.COPY.01
540  16_SFP_N A10   C        01:00:15:08 01:00:18:29 01:39:51:01 01:39:54:22 
* FROM CLIP NAME:  16 SFP NO WALLS TO CLIMB (BED NO DRUMS).MP3.COPY.01
541  15_SFP_N A9    C        01:00:09:23 01:00:31:04 01:39:54:22 01:40:16:03 
* FROM CLIP NAME:  15 SFP NO WALLS TO CLIMB (BED).MP3.COPY.01
542  15_SFP_N A10   C        01:00:09:23 01:00:31:04 01:39:54:22 01:40:16:03 
* FROM CLIP NAME:  15 SFP NO WALLS TO CLIMB (BED).MP3.COPY.01
543  15_SFP_N A9    C        01:02:36:24 01:02:40:29 01:40:16:03 01:40:20:08 
* FROM CLIP NAME:  15 SFP NO WALLS TO CLIMB (BED).MP3.COPY.01
544  15_SFP_N A10   C        01:02:36:24 01:02:40:29 01:40:16:03 01:40:20:08 
* FROM CLIP NAME:  15 SFP NO WALLS TO CLIMB (BED).MP3.COPY.01
545  SFP_CD69 A7    C        01:00:00:00 01:00:07:07 01:40:17:21 01:40:24:28 
* FROM CLIP NAME:  SFP CD697 AMBIENT INDIE POST ROCK SOUNDTRACK 08 S.SUB.01
546  SFP_CD69 A8    C        01:00:00:00 01:00:07:07 01:40:17:21 01:40:24:28 
* FROM CLIP NAME:  SFP CD697 AMBIENT INDIE POST ROCK SOUNDTRACK 08 S.SUB.01
547  SFP_CD69 A7    C        01:00:07:07 01:00:07:13 01:40:24:28 01:40:25:04 
* FROM CLIP NAME:  SFP CD697 AMBIENT INDIE POST ROCK SOUNDTRACK 08 S.SUB.01 
* TO CLIP NAME:  SFP CD697 AMBIENT INDIE POST ROCK SOUNDTRACK 08 S.SUB.01
548  SFP_CD69 A8    C        01:00:07:07 01:00:07:13 01:40:24:28 01:40:25:04 
* FROM CLIP NAME:  SFP CD697 AMBIENT INDIE POST ROCK SOUNDTRACK 08 S.SUB.01 
* TO CLIP NAME:  SFP CD697 AMBIENT INDIE POST ROCK SOUNDTRACK 08 S.SUB.01
549  SFP_CD69 A7    C        01:00:07:13 01:00:17:20 01:40:25:04 01:40:35:11 
* FROM CLIP NAME:  SFP CD697 AMBIENT INDIE POST ROCK SOUNDTRACK 08 S.SUB.01
550  SFP_CD69 A8    C        01:00:07:13 01:00:17:20 01:40:25:04 01:40:35:11 
* FROM CLIP NAME:  SFP CD697 AMBIENT INDIE POST ROCK SOUNDTRACK 08 S.SUB.01
551  SFP_CD69 A7    C        01:03:11:07 01:03:32:21 01:40:35:11 01:40:56:25 
* FROM CLIP NAME:  SFP CD697 AMBIENT INDIE POST ROCK SOUNDTRACK 08 S.SUB.01
552  SFP_CD69 A8    C        01:03:11:07 01:03:32:21 01:40:35:11 01:40:56:25 
* FROM CLIP NAME:  SFP CD697 AMBIENT INDIE POST ROCK SOUNDTRACK 08 S.SUB.01
553  06_SFP_O A9    C        01:00:00:00 01:00:01:23 01:40:44:23 01:40:46:16 
* FROM CLIP NAME:  06 SFP OVERCOME.MP3
554  06_SFP_O A10   C        01:00:00:00 01:00:01:23 01:40:44:23 01:40:46:16 
* FROM CLIP NAME:  06 SFP OVERCOME.MP3
555  06_SFP_O A9    C        01:00:01:23 01:00:02:13 01:40:46:16 01:40:47:06 
* FROM CLIP NAME:  06 SFP OVERCOME.MP3 
* TO CLIP NAME:  06 SFP OVERCOME.MP3
556  06_SFP_O A10   C        01:00:01:23 01:00:02:13 01:40:46:16 01:40:47:06 
* FROM CLIP NAME:  06 SFP OVERCOME.MP3 
* TO CLIP NAME:  06 SFP OVERCOME.MP3
557  06_SFP_O A9    C        01:00:02:13 01:00:23:17 01:40:47:06 01:41:08:12 
* FROM CLIP NAME:  06 SFP OVERCOME.MP3
558  06_SFP_O A10   C        01:00:02:13 01:00:23:17 01:40:47:06 01:41:08:12 
* FROM CLIP NAME:  06 SFP OVERCOME.MP3
559  06_SFP_O A9    C        01:03:25:13 01:03:26:23 01:41:08:12 01:41:09:22 
* FROM CLIP NAME:  06 SFP OVERCOME.MP3 
* TO CLIP NAME:  06 SFP OVERCOME.MP3
560  06_SFP_O A10   C        01:03:25:13 01:03:26:23 01:41:08:12 01:41:09:22 
* FROM CLIP NAME:  06 SFP OVERCOME.MP3 
* TO CLIP NAME:  06 SFP OVERCOME.MP3
561  06_SFP_O A9    C        01:03:26:23 01:03:30:26 01:41:09:22 01:41:13:25 
* FROM CLIP NAME:  06 SFP OVERCOME.MP3
562  06_SFP_O A10   C        01:03:26:23 01:03:30:26 01:41:09:22 01:41:13:25 
* FROM CLIP NAME:  06 SFP OVERCOME.MP3
563  05_SFP_B A7    C        01:00:11:19 01:00:12:09 01:42:35:24 01:42:36:14 
* FROM CLIP NAME:  05 SFP BLEEDING HEART.MP3
564  05_SFP_B A8    C        01:00:11:19 01:00:12:09 01:42:35:24 01:42:36:14 
* FROM CLIP NAME:  05 SFP BLEEDING HEART.MP3
565  05_SFP_B A7    C        01:00:12:09 01:00:24:08 01:42:36:14 01:42:48:13 
* FROM CLIP NAME:  05 SFP BLEEDING HEART.MP3
566  05_SFP_B A8    C        01:00:12:09 01:00:24:08 01:42:36:14 01:42:48:13 
* FROM CLIP NAME:  05 SFP BLEEDING HEART.MP3
567  05_SFP_B A7    C        01:00:24:08 01:00:24:14 01:42:48:13 01:42:48:19 
* FROM CLIP NAME:  05 SFP BLEEDING HEART.MP3 
* TO CLIP NAME:  05 SFP BLEEDING HEART.MP3
568  05_SFP_B A8    C        01:00:24:08 01:00:24:14 01:42:48:13 01:42:48:19 
* FROM CLIP NAME:  05 SFP BLEEDING HEART.MP3 
* TO CLIP NAME:  05 SFP BLEEDING HEART.MP3
569  05_SFP_B A7    C        01:00:24:14 01:00:34:19 01:42:48:19 01:42:58:24 
* FROM CLIP NAME:  05 SFP BLEEDING HEART.MP3
570  05_SFP_B A8    C        01:00:24:14 01:00:34:19 01:42:48:19 01:42:58:24 
* FROM CLIP NAME:  05 SFP BLEEDING HEART.MP3
571  05_SFP_B A7    C        01:00:34:19 01:00:34:25 01:42:58:24 01:42:59:00 
* FROM CLIP NAME:  05 SFP BLEEDING HEART.MP3 
* TO CLIP NAME:  05 SFP BLEEDING HEART.MP3
572  05_SFP_B A8    C        01:00:34:19 01:00:34:25 01:42:58:24 01:42:59:00 
* FROM CLIP NAME:  05 SFP BLEEDING HEART.MP3 
* TO CLIP NAME:  05 SFP BLEEDING HEART.MP3
573  05_SFP_B A7    C        01:00:34:25 01:00:40:16 01:42:59:00 01:43:04:23 
* FROM CLIP NAME:  05 SFP BLEEDING HEART.MP3
574  05_SFP_B A8    C        01:00:34:25 01:00:40:16 01:42:59:00 01:43:04:23 
* FROM CLIP NAME:  05 SFP BLEEDING HEART.MP3
575  05_SFP_B A7    C        01:00:40:16 01:00:40:22 01:43:04:23 01:43:04:29 
* FROM CLIP NAME:  05 SFP BLEEDING HEART.MP3 
* TO CLIP NAME:  05 SFP BLEEDING HEART.MP3
576  05_SFP_B A8    C        01:00:40:16 01:00:40:22 01:43:04:23 01:43:04:29 
* FROM CLIP NAME:  05 SFP BLEEDING HEART.MP3 
* TO CLIP NAME:  05 SFP BLEEDING HEART.MP3
577  05_SFP_B A7    C        01:00:40:22 01:00:58:00 01:43:04:29 01:43:22:07 
* FROM CLIP NAME:  05 SFP BLEEDING HEART.MP3
578  05_SFP_B A8    C        01:00:40:22 01:00:58:00 01:43:04:29 01:43:22:07 
* FROM CLIP NAME:  05 SFP BLEEDING HEART.MP3
579  05_SFP_B A7    C        01:01:00:24 01:01:00:28 01:43:22:07 01:43:22:11 
* FROM CLIP NAME:  05 SFP BLEEDING HEART.MP3 
* TO CLIP NAME:  05 SFP BLEEDING HEART.MP3
580  05_SFP_B A8    C        01:01:00:24 01:01:00:28 01:43:22:07 01:43:22:11 
* FROM CLIP NAME:  05 SFP BLEEDING HEART.MP3 
* TO CLIP NAME:  05 SFP BLEEDING HEART.MP3
581  05_SFP_B A7    C        01:01:00:28 01:01:01:28 01:43:22:11 01:43:23:11 
* FROM CLIP NAME:  05 SFP BLEEDING HEART.MP3
582  05_SFP_B A8    C        01:01:00:28 01:01:01:28 01:43:22:11 01:43:23:11 
* FROM CLIP NAME:  05 SFP BLEEDING HEART.MP3
583  05_SFP_B A9    C        01:03:29:10 01:03:31:10 01:43:23:04 01:43:25:04 
* FROM CLIP NAME:  05 SFP BLEEDING HEART.MP3
584  05_SFP_B A10   C        01:03:29:10 01:03:31:10 01:43:23:04 01:43:25:04 
* FROM CLIP NAME:  05 SFP BLEEDING HEART.MP3
585  05_SFP_B A9    C        01:03:31:10 01:03:32:05 01:43:25:04 01:43:25:29 
* FROM CLIP NAME:  05 SFP BLEEDING HEART.MP3
586  05_SFP_B A10   C        01:03:31:10 01:03:32:05 01:43:25:04 01:43:25:29 
* FROM CLIP NAME:  05 SFP BLEEDING HEART.MP3
587  05_SFP_B A9    C        01:03:32:04 01:03:36:04 01:43:25:29 01:43:29:29 
* FROM CLIP NAME:  05 SFP BLEEDING HEART.MP3 
* TO CLIP NAME:  05 SFP BLEEDING HEART.MP3
588  05_SFP_B A10   C        01:03:32:04 01:03:36:04 01:43:25:29 01:43:29:29 
* FROM CLIP NAME:  05 SFP BLEEDING HEART.MP3 
* TO CLIP NAME:  05 SFP BLEEDING HEART.MP3